<?xml version="1.0" encoding="utf-8"?>
<svg width="48px" height="48px" viewBox="0 0 48 48" version="1.1" xmlns:xlink="http://www.w3.org/1999/xlink" xmlns="http://www.w3.org/2000/svg">
  <defs>
    <path d="M0 0L48 0L48 48L0 48L0 0Z" id="path_1" />
    <clipPath id="mask_1">
      <use xlink:href="#path_1" />
    </clipPath>
  </defs>
  <g id="air_drone">
    <path d="M0 0L48 0L48 48L0 48L0 0Z" id="Фон" fill="#FFFFFF" fill-opacity="0" fill-rule="evenodd" stroke="none" />
    <g clip-path="url(#mask_1)">
      <g id="Group" transform="translate(1.8791728 1.8681936)">
        <g id="Group">
          <g id="Group">
            <path d="M20.7146 0.100556C19.5521 0.325556 18.3146 0.831806 17.3583 1.46931C16.7958 1.86306 15.6708 2.96931 15.2396 3.56931C12.5771 7.30056 13.3833 12.5506 17.0208 15.2881C17.6583 15.7568 19.1583 16.5818 19.4208 16.5818C19.4771 16.5818 19.5521 16.4131 19.6083 16.2068C19.6646 16.0006 19.7396 15.7193 19.7771 15.5506L19.8521 15.2693L19.1958 14.9693C17.4146 14.1631 16.0646 12.6443 15.4458 10.8256C14.5458 8.18181 15.2021 5.36931 17.1896 3.40056C19.3083 1.30056 22.4958 0.738057 25.1958 2.01306C26.0958 2.42556 26.5083 2.72556 27.2021 3.40056C28.2146 4.39431 28.8708 5.59431 29.1708 6.96306C29.3583 7.78806 29.3021 9.55056 29.0958 10.3568C28.7208 11.6881 27.8208 13.0756 26.7708 13.9568C26.2458 14.4068 25.1021 15.0443 24.6333 15.1943C24.5021 15.2318 24.5021 15.3068 24.6333 15.8881C24.7271 16.3381 24.8021 16.5443 24.8771 16.5443C24.9333 16.5443 25.2333 16.4506 25.5333 16.3193C27.4083 15.5506 29.2458 13.7318 30.0521 11.8006C30.5771 10.5631 30.6521 10.0943 30.6521 8.40681C30.6521 7.00056 30.6333 6.83181 30.4083 6.11931C29.4896 3.11931 27.2396 0.963058 24.2208 0.175558C23.3396 -0.0119439 21.6333 -0.0681937 20.7146 0.100556L20.7146 0.100556Z" id="Фигура" fill="#3FF672" stroke="none" />
            <path d="M26.0396 3.77556C25.4771 4.11306 24.4458 5.14431 23.8833 5.96931L23.4521 6.58806L23.8271 7.00056C24.1271 7.33806 24.2396 7.39431 24.3521 7.33806C24.6896 7.15056 26.0021 5.76306 26.3396 5.23806C26.7896 4.52556 26.9208 4.20681 26.8833 3.85056C26.8458 3.47556 26.6208 3.43806 26.0396 3.77556L26.0396 3.77556Z" id="Фигура" fill="#3FF672" stroke="none" />
            <path d="M21.4833 7.15055C20.5458 7.7318 20.3771 8.83805 21.1271 9.6443C21.2958 9.8318 21.2958 9.90681 21.2396 10.9006C21.0708 13.8443 20.4896 16.5256 19.7396 17.8006C19.3458 18.4381 18.4646 19.3193 17.7896 19.6943C16.5521 20.4068 13.9271 20.9506 10.7771 21.1568L9.85832 21.2131L9.55832 20.9506C8.97707 20.4443 8.26457 20.3881 7.68332 20.7818C7.25207 21.0631 7.06457 21.3818 7.00832 21.8693C6.95208 22.4318 7.02707 22.6756 7.34582 23.0506C7.96457 23.7443 8.93958 23.8006 9.63332 23.1443C9.82082 22.9756 9.89583 22.9756 10.8521 23.0318C13.7771 23.2006 16.4771 23.7818 17.6771 24.4568C18.6146 25.0006 19.5896 26.0881 19.9646 27.0631C20.5083 28.3943 20.8646 30.2131 21.0708 32.7068L21.2021 34.4131L20.9396 34.6943C20.5833 35.0693 20.4146 35.6693 20.5646 36.1381C20.7896 36.8506 21.3521 37.2631 22.1021 37.2631C23.2271 37.2631 23.9771 36.0443 23.4521 35.0131C23.3583 34.8443 23.2271 34.6381 23.1521 34.5818C22.9646 34.4318 22.9646 33.7568 23.1521 32.0881C23.6021 27.8881 24.3708 26.0131 26.1521 24.7943C27.4646 23.9131 29.8646 23.3693 33.6146 23.1068L34.4583 23.0506L34.7396 23.313C35.7146 24.2505 37.3083 23.538 37.3083 22.1693C37.3083 21.0443 36.0896 20.2943 35.0583 20.8193C34.8896 20.913 34.6833 21.0443 34.6271 21.1193C34.4771 21.3068 33.8021 21.3068 32.1333 21.1193C29.6771 20.8568 28.1771 20.5193 26.9396 19.938C25.9646 19.488 24.9333 18.4755 24.4833 17.5193C23.8083 16.0943 23.3583 13.8068 23.1521 10.7505L23.0958 9.81305L23.3583 9.5318C24.3146 8.53805 23.5833 6.96305 22.1958 6.96305C21.9146 6.98181 21.6333 7.03806 21.4833 7.15055L21.4833 7.15055Z" id="Фигура" fill="#3FF672" stroke="none" />
            <path d="M19.6083 10.0568C18.3896 11.1443 17.5646 12.3256 17.5271 13.0568C17.5083 13.3756 17.5271 13.4131 17.6958 13.4506C17.8083 13.4693 18.0896 13.3756 18.3333 13.2443C18.8208 12.9818 20.1146 11.6693 20.6208 10.9381L20.9583 10.4318L20.5458 10.0006L20.1521 9.56931L19.6083 10.0568L19.6083 10.0568Z" id="Фигура" fill="#3FF672" stroke="none" />
            <path d="M6.82083 13.6943C3.74583 14.3693 1.30833 16.5256 0.389577 19.4881C-0.247923 21.5318 -0.0979232 23.7443 0.802077 25.6568C1.30833 26.7068 1.79583 27.3818 2.62083 28.1881C3.67083 29.2006 4.68333 29.7818 5.99583 30.2131C10.0271 31.4693 14.3396 29.5756 16.2146 25.7318C16.4396 25.3006 16.6083 24.8881 16.6083 24.8318C16.6083 24.7381 15.6521 24.4568 15.3708 24.4568C15.3146 24.4568 15.1646 24.6818 15.0333 24.9631C14.5083 26.1818 13.3646 27.4943 12.2021 28.1693C9.37083 29.8568 5.84583 29.4256 3.52083 27.1381C0.689577 24.3443 0.652077 19.8256 3.44583 17.0131C4.85208 15.6068 6.50208 14.9318 8.48958 14.9318C9.68958 14.9318 10.6271 15.1568 11.6958 15.6631C13.1208 16.3568 14.1708 17.4256 14.9208 18.9256L15.3333 19.7506L15.9521 19.6381C16.3646 19.5443 16.5896 19.4693 16.5896 19.3943C16.5896 19.1693 16.1396 18.2131 15.7458 17.5568C14.9958 16.3381 13.5521 15.0443 12.2958 14.4068C11.7146 14.1256 10.8896 13.8443 10.1583 13.6943C9.42708 13.5256 7.57083 13.5256 6.82083 13.6943L6.82083 13.6943Z" id="Фигура" fill="#3FF672" stroke="none" />
            <path d="M34.5708 13.7318C33.2958 13.9193 32.1896 14.3318 31.1021 15.0443C30.1646 15.6631 29.6021 16.1881 28.9646 17.0318C28.4958 17.6506 27.6708 19.1693 27.6708 19.3943C27.6708 19.4881 28.5896 19.7693 28.8521 19.7693C28.9646 19.7693 29.0771 19.6006 29.2271 19.2631C29.9771 17.5381 31.5896 16.0568 33.4083 15.4381C35.2646 14.8006 37.0646 14.9131 38.8833 15.7943C40.7583 16.6943 42.1083 18.3443 42.6708 20.3693C42.9146 21.2693 42.9333 23.0131 42.7083 23.8943C42.0146 26.5756 39.9146 28.6006 37.2708 29.1818C36.7458 29.2943 36.3333 29.3131 35.4896 29.2943C34.1958 29.2568 33.6333 29.1068 32.5646 28.6006C31.1208 27.8881 30.0896 26.8381 29.3396 25.3381L28.9271 24.5131L28.3083 24.6256C27.8958 24.7193 27.6708 24.7943 27.6708 24.8693C27.6708 24.9256 27.7646 25.2256 27.8958 25.5256C28.5896 27.2131 30.2583 29.0131 31.9646 29.8568C32.6021 30.1756 33.6146 30.4943 34.3646 30.6256C35.4146 30.7943 37.1583 30.7006 38.0958 30.4193C41.1146 29.5193 43.3271 27.1756 44.0958 24.0631C44.3208 23.1443 44.3021 21.1943 44.0583 20.2006C43.8333 19.2818 43.2521 18.0068 42.7083 17.2568C41.9771 16.2443 40.7021 15.1381 39.5396 14.5568C38.0771 13.8256 36.1646 13.5068 34.5708 13.7318L34.5708 13.7318Z" id="Фигура" fill="#3FF672" stroke="none" />
            <path d="M3.67083 17.3881C3.59583 17.4256 3.53958 17.5381 3.53958 17.6131C3.53958 18.1193 4.83333 19.5818 5.99583 20.3881L6.63333 20.8381L7.02708 20.4443C7.25208 20.2193 7.42083 20.0318 7.42083 20.0131C7.42083 19.9193 6.38958 18.8506 5.86458 18.4006C5.03958 17.6506 4.00833 17.2006 3.67083 17.3881L3.67083 17.3881Z" id="Фигура" fill="#3FF672" stroke="none" />
            <path d="M30.8583 17.5006C30.4458 17.9131 31.8521 19.6381 33.4646 20.7068L33.8583 20.9693L34.2708 20.5568L34.6833 20.1443L34.1583 19.5631C33.4458 18.7756 32.6958 18.1381 32.1146 17.8381C31.5896 17.5381 30.9708 17.3881 30.8583 17.5006L30.8583 17.5006Z" id="Фигура" fill="#3FF672" stroke="none" />
            <path d="M10.1958 23.5756C10.0833 23.7068 9.87708 23.8756 9.76458 23.9506L9.55833 24.0818L10.0458 24.6443C11.1521 25.8818 12.3708 26.7256 13.1021 26.7443C13.4208 26.7443 13.4396 26.7443 13.4208 26.4443C13.4208 26.0693 13.0833 25.5443 12.3708 24.8506C11.9021 24.3818 10.5708 23.3318 10.4583 23.3318C10.4396 23.3506 10.3083 23.4443 10.1958 23.5756L10.1958 23.5756Z" id="Фигура" fill="#3FF672" stroke="none" />
            <path d="M37.3646 23.7818C37.1958 23.9506 37.0083 24.1193 36.9333 24.1381C36.8208 24.1756 36.8208 24.2131 36.9521 24.3818C37.2146 24.7756 38.4333 25.9568 38.9396 26.2943C39.9146 26.9506 40.7396 27.1193 40.7396 26.6506C40.7396 26.1256 39.4271 24.6631 38.2833 23.8943L37.6646 23.4818L37.3646 23.7818L37.3646 23.7818Z" id="Фигура" fill="#3FF672" stroke="none" />
            <path d="M18.6521 27.9068C16.7771 28.6943 14.9771 30.5506 14.1708 32.4631C13.7021 33.6256 13.5521 34.5256 13.5896 36.0068C13.6271 37.0943 13.6646 37.4318 13.8521 38.0881C15.4083 43.2631 21.0896 45.7381 25.8896 43.3381C26.6958 42.9256 27.1271 42.6256 27.8583 41.9506C28.6458 41.2193 29.1333 40.5631 29.6208 39.6631C31.8708 35.4068 30.1083 30.1756 25.7396 28.0568C25.3083 27.8318 24.8958 27.6631 24.8396 27.6631C24.7458 27.6631 24.4646 28.5443 24.4646 28.8443C24.4646 28.9568 24.5958 29.0693 24.9708 29.2193C26.6958 29.9693 28.1771 31.5818 28.7958 33.4006C29.4333 35.2568 29.3208 37.0568 28.4396 38.8756C27.5396 40.7506 25.8896 42.1006 23.8646 42.6631C22.9646 42.9068 21.2208 42.9256 20.3396 42.7006C18.5958 42.2506 17.0208 41.1256 16.0833 39.6818C15.2021 38.3318 14.9021 37.2068 14.9583 35.4631C14.9958 34.4881 15.0333 34.1881 15.2396 33.6068C15.9146 31.6381 17.0958 30.2693 18.9146 29.3506C19.7958 28.9006 19.7771 28.9381 19.6083 28.1693C19.4958 27.5693 19.4771 27.5693 18.6521 27.9068L18.6521 27.9068Z" id="Фигура" fill="#3FF672" stroke="none" />
            <path d="M26.0583 30.9256C25.4396 31.2256 24.2583 32.4068 23.6208 33.3631L23.3208 33.8131L23.6958 34.2443C23.9771 34.5631 24.1083 34.6568 24.2021 34.6006C24.5021 34.4506 25.9083 32.9693 26.2083 32.4818C26.5833 31.9193 26.8646 31.1318 26.7708 30.9256C26.7146 30.7381 26.4146 30.7381 26.0583 30.9256L26.0583 30.9256Z" id="Фигура" fill="#3FF672" stroke="none" />
            <path d="M19.4208 37.3381C18.3333 38.3318 17.7333 39.1193 17.4333 39.9443C17.2646 40.4318 17.3208 40.7318 17.6021 40.7318C18.1083 40.7318 19.5708 39.4381 20.3771 38.2756L20.8271 37.6381L20.6208 37.5068C20.5083 37.4318 20.3396 37.2631 20.2646 37.1131C20.1708 36.9818 20.0771 36.8506 20.0396 36.8506C20.0021 36.8506 19.7208 37.0568 19.4208 37.3381L19.4208 37.3381Z" id="Фигура" fill="#3FF672" stroke="none" />
          </g>
        </g>
      </g>
    </g>
  </g>
</svg>