<svg width="34" height="34" viewBox="0 0 34 34" fill="none" xmlns="http://www.w3.org/2000/svg">
<path d="M13.4287 28.7931L13.2816 28.6424L13.0709 28.6424L5.71733 28.6424L5.71733 22.7612L5.71733 22.5577L5.57513 22.412L0.698709 17.4162L5.57513 12.4204L5.71733 12.2747L5.71733 12.0711L5.71733 5.01269L12.5951 5.01269L12.8058 5.01269L12.9529 4.86194L17 0.715815L22.1962 6.03927L22.3434 6.19002L22.554 6.19002L28.7584 6.19002L28.7584 12.5591L28.7584 12.7627L28.9007 12.9084L33.3013 17.4162L28.9007 21.924L28.7584 22.0697L28.7584 22.2732L28.7584 28.6424L22.554 28.6424L22.3434 28.6424L22.1962 28.7931L17.8125 33.2842L13.4287 28.7931Z" fill="#B342D8" stroke="black"/>
<path d="M20.2219 9.22192L24.7781 9.22192L24.7781 13.7781L28 17L24.7781 20.2219L24.7781 24.7781L20.2219 24.7781L17 28L13.7781 24.7781L9.22192 24.7781L9.22192 20.2219L6 17L9.22192 13.7781L9.22192 9.22191L13.7781 9.22191L17 6L20.2219 9.22192Z" fill="#E8A3FF"/>
</svg>
