<svg width="34" height="34" viewBox="0 0 34 34" fill="none" xmlns="http://www.w3.org/2000/svg">
<g clip-path="url(#clip0_637_590)">
<path d="M16.7525 33.331L17 33.472L17.2475 33.331L31.2475 25.3569L31.5 25.213L31.5 24.9224L31.5 8.97413L31.5 8.6835L31.2475 8.53966L17.2475 0.565526L17 0.424573L16.7525 0.565526L2.75253 8.53966L2.5 8.6835L2.5 8.97413L2.5 24.9224L2.5 25.213L2.75254 25.3569L16.7525 33.331Z" fill="#B342D8" stroke="black"/>
<path d="M16.9834 32.8966L3.00002 24.9224V8.9741L16.9834 1V32.8966Z" fill="#C163E0"/>
<path d="M12.625 8C12.9702 8 13.25 8.27983 13.25 8.625V10.1667L14.6839 9.87989C16.0593 9.6048 17.4851 9.7357 18.7874 10.2566L19.1318 10.3944C20.3193 10.8694 21.6261 10.9581 22.8668 10.6479C23.3926 10.5164 23.8148 11.0863 23.536 11.5511L22.4706 13.3268C22.186 13.8011 22.0437 14.0383 22.0099 14.2962C21.9959 14.4038 21.9959 14.5128 22.0099 14.6204C22.0437 14.8784 22.186 15.1155 22.4706 15.5898L23.7711 17.7574C24.0301 18.1891 23.7985 18.7483 23.3101 18.8704L23.2267 18.8913C21.752 19.2599 20.1988 19.1545 18.7874 18.59C17.4851 18.069 16.0593 17.9382 14.6839 18.2133L13.25 18.5V25.2917C13.25 25.6368 12.9702 25.9167 12.625 25.9167C12.2798 25.9167 12 25.6368 12 25.2917V8.625C12 8.27983 12.2798 8 12.625 8Z" fill="#FFBF56"/>
</g>
<defs>
<clipPath id="clip0_637_590">
<rect width="34" height="34" fill="white"/>
</clipPath>
</defs>
</svg>
