<svg width="34" height="34" viewBox="0 0 34 34" fill="none" xmlns="http://www.w3.org/2000/svg">
<g clip-path="url(#clip0_960_30)">
<path d="M16.7525 33.331L17 33.4719L17.2475 33.331L31.2475 25.3568L31.5 25.213L31.5 24.9223L31.5 8.97407L31.5 8.68344L31.2475 8.5396L17.2475 0.565465L17 0.424512L16.7525 0.565465L2.75253 8.5396L2.5 8.68344L2.5 8.97407L2.5 24.9223L2.5 25.213L2.75254 25.3568L16.7525 33.331Z" fill="#B342D8" stroke="black"/>
<path d="M16.9834 32.8966L3.00005 24.9224V8.9741L16.9834 1V32.8966Z" fill="#C163E0"/>
<path d="M12.7366 6C13.1435 6 13.4733 6.3436 13.4733 6.76744V8.66047L15.1633 8.30833C16.7844 7.97055 18.4648 8.13128 19.9997 8.77095L20.4056 8.94011C21.8051 9.52331 23.3454 9.63222 24.8077 9.25135C25.4274 9.08995 25.9251 9.78973 25.5964 10.3604L24.3407 12.5409C24.0053 13.1233 23.8376 13.4145 23.7978 13.7312C23.7813 13.8633 23.7813 13.9971 23.7978 14.1293C23.8376 14.446 24.0053 14.7372 24.3407 15.3196L25.8735 17.9812C26.1788 18.5112 25.9058 19.198 25.3302 19.3479L25.2319 19.3734C23.4938 19.8261 21.6631 19.6967 19.9997 19.0035C18.4648 18.3638 16.7844 18.2031 15.1633 18.5409L13.4733 18.893V27.2326C13.4733 27.6564 13.1435 28 12.7366 28C12.3298 28 12 27.6564 12 27.2326V6.76744C12 6.3436 12.3298 6 12.7366 6Z" fill="#FFBF56"/>
</g>
<defs>
<clipPath id="clip0_960_30">
<rect width="34" height="34" fill="white"/>
</clipPath>
</defs>
</svg>
