<svg width="22" height="22" viewBox="0 0 22 22" fill="none" xmlns="http://www.w3.org/2000/svg">
<g clip-path="url(#clip0_762_9)">
<path d="M19.5938 8.24355H13.7564V2.40625C13.7564 1.45836 12.9856 0.6875 12.0377 0.6875H9.9623C9.01484 0.6875 8.24355 1.45836 8.24355 2.40625V8.24355H2.40625C1.45879 8.24355 0.6875 9.01484 0.6875 9.9623V12.0377C0.6875 12.9856 1.45836 13.7564 2.40625 13.7564H8.24355V19.5938C8.24355 20.5416 9.01484 21.3125 9.9623 21.3125H12.0377C12.9856 21.3125 13.7564 20.5416 13.7564 19.5938V13.7564H19.5938C20.5416 13.7564 21.3125 12.9856 21.3125 12.0377V9.9623C21.3125 9.01484 20.5416 8.24355 19.5938 8.24355ZM20.0234 12.0377C20.0234 12.2745 19.8305 12.4674 19.5938 12.4674H13.1119C12.9409 12.4674 12.7772 12.5353 12.656 12.656C12.5352 12.777 12.4674 12.941 12.4674 13.1119V19.5938C12.4674 19.8305 12.2745 20.0234 12.0377 20.0234H9.9623C9.72555 20.0234 9.53262 19.8305 9.53262 19.5938V13.1119C9.53262 12.9409 9.46473 12.7768 9.34398 12.656C9.22324 12.5353 9.0591 12.4674 8.88809 12.4674H2.40625C2.16949 12.4674 1.97656 12.2745 1.97656 12.0377V9.9623C1.97656 9.84414 2.02469 9.73672 2.10246 9.65852C2.14231 9.61855 2.18966 9.58686 2.24179 9.56525C2.29393 9.54365 2.34982 9.53256 2.40625 9.53262H8.88809C9.2443 9.53262 9.53262 9.2443 9.53262 8.88809V2.40625C9.53262 2.16949 9.72555 1.97656 9.9623 1.97656H12.0377C12.2745 1.97656 12.4674 2.16949 12.4674 2.40625V8.88809C12.4674 9.2443 12.7557 9.53262 13.1119 9.53262H19.5938C19.8305 9.53262 20.0234 9.72555 20.0234 9.9623V12.0377Z" fill="#E7A000"/>
<path d="M20.0234 9.9623V12.0377C20.0234 12.2745 19.8305 12.4674 19.5938 12.4674H13.1119C12.9409 12.4674 12.7772 12.5353 12.656 12.656C12.5352 12.777 12.4674 12.941 12.4674 13.1119V19.5938C12.4674 19.8305 12.2745 20.0234 12.0377 20.0234H9.9623C9.72555 20.0234 9.53262 19.8305 9.53262 19.5938V13.1119C9.53262 12.9409 9.46473 12.7768 9.34398 12.656C9.22324 12.5353 9.0591 12.4674 8.88809 12.4674H2.40625C2.16949 12.4674 1.97656 12.2745 1.97656 12.0377V9.9623C1.97656 9.84414 2.02469 9.73672 2.10246 9.65852C2.14231 9.61855 2.18966 9.58686 2.24179 9.56525C2.29393 9.54365 2.34982 9.53256 2.40625 9.53262H8.88809C9.2443 9.53262 9.53262 9.2443 9.53262 8.88809V2.40625C9.53262 2.16949 9.72555 1.97656 9.9623 1.97656H12.0377C12.2745 1.97656 12.4674 2.16949 12.4674 2.40625V8.88809C12.4674 9.2443 12.7557 9.53262 13.1119 9.53262H19.5938C19.8305 9.53262 20.0234 9.72555 20.0234 9.9623Z" fill="#FFB612"/>
</g>
<defs>
<clipPath id="clip0_762_9">
<rect width="22" height="22" fill="white"/>
</clipPath>
</defs>
</svg>
