<svg width="28" height="28" viewBox="0 0 28 28" fill="none" xmlns="http://www.w3.org/2000/svg">
<path d="M27.499 27.4187L27.4991 27.4189C27.5008 27.4294 27.5001 27.4402 27.4968 27.4504C27.4936 27.4606 27.4879 27.4698 27.4804 27.4774C27.4728 27.4849 27.4636 27.4906 27.4534 27.4938C27.4432 27.4971 27.4324 27.4979 27.4219 27.4961L27.4213 27.496L19.2347 26.1257C19.2344 26.1257 19.2342 26.1256 19.2339 26.1256C19.215 26.1221 19.1958 26.1116 19.1826 26.098L6.123 10.3695L10.3721 6.12549L26.092 19.177C26.1078 19.193 26.1188 19.2133 26.1235 19.2354L27.499 27.4187Z" fill="#D0D0F7" stroke="black"/>
<path d="M8.04173 7.74761C8.0418 7.74768 8.04186 7.74774 8.04192 7.7478L8.04173 7.74761Z" fill="#C2C2EF" stroke="black"/>
<path d="M9.669 3.30361C9.90065 3.30361 10.1229 3.39518 10.2873 3.55832C10.4506 3.72275 10.5422 3.94507 10.5422 4.17682C10.5422 4.40881 10.4504 4.63136 10.2868 4.79583C10.2867 4.79594 10.2866 4.79604 10.2865 4.79614L4.79608 10.2865C4.79597 10.2866 4.79586 10.2867 4.79576 10.2869C4.63138 10.4504 4.40896 10.5422 4.17709 10.5422C3.94544 10.5422 3.7232 10.4505 3.55888 10.2873C3.39559 10.123 3.30393 9.90071 3.30393 9.66902C3.30393 9.43715 3.39574 9.21471 3.55928 9.05034C3.55937 9.05024 3.55947 9.05014 3.55957 9.05004L9.04987 3.55916C9.05 3.55902 9.05014 3.55889 9.05028 3.55875C9.21472 3.39534 9.43715 3.30361 9.669 3.30361Z" fill="#C163E0" stroke="black"/>
<mask id="path-4-inside-1_691_1425" fill="white">
<path d="M10.6408 3.20469C10.3826 2.9478 10.0332 2.80359 9.66899 2.80359C9.30477 2.80359 8.95537 2.9478 8.69719 3.20469L3.20528 8.69719C2.77946 9.12301 2.69196 9.75649 2.94862 10.264C2.96526 9.9306 3.10541 9.61536 3.34177 9.37967L8.83369 3.88776C9.09187 3.63086 9.44127 3.48665 9.80549 3.48665C10.1697 3.48665 10.5191 3.63086 10.7773 3.88776C10.8881 3.99391 10.9756 4.12206 11.034 4.264C11.0666 3.88192 10.9301 3.49402 10.6408 3.20469Z"/>
</mask>
<path d="M10.6408 3.20469C10.3826 2.9478 10.0332 2.80359 9.66899 2.80359C9.30477 2.80359 8.95537 2.9478 8.69719 3.20469L3.20528 8.69719C2.77946 9.12301 2.69196 9.75649 2.94862 10.264C2.96526 9.9306 3.10541 9.61536 3.34177 9.37967L8.83369 3.88776C9.09187 3.63086 9.44127 3.48665 9.80549 3.48665C10.1697 3.48665 10.5191 3.63086 10.7773 3.88776C10.8881 3.99391 10.9756 4.12206 11.034 4.264C11.0666 3.88192 10.9301 3.49402 10.6408 3.20469Z" fill="#C163E0"/>
<path d="M10.6408 3.20469L11.3479 2.49759L11.3461 2.49582L10.6408 3.20469ZM9.66899 2.80359L9.66899 1.80359L9.66899 2.80359ZM8.69719 3.20469L7.99185 2.49582L7.99004 2.49763L8.69719 3.20469ZM3.20528 8.69719L3.91238 9.4043L3.91242 9.40426L3.20528 8.69719ZM2.94862 10.264L2.05625 10.7153L3.75928 14.0826L3.94737 10.3138L2.94862 10.264ZM3.34177 9.37967L4.04787 10.0878L4.04888 10.0868L3.34177 9.37967ZM8.83369 3.88776L8.12835 3.17888L8.12658 3.18065L8.83369 3.88776ZM9.80549 3.48665L9.80549 2.48665L9.80549 3.48665ZM10.7773 3.88776L10.072 4.59663L10.0787 4.60339L10.0857 4.61001L10.7773 3.88776ZM11.034 4.264L10.1091 4.64443L12.0303 4.34918L11.034 4.264ZM11.3461 2.49582C10.9006 2.05247 10.2976 1.80359 9.66899 1.80359L9.66899 3.80359C9.76886 3.80359 9.86467 3.84313 9.93546 3.91357L11.3461 2.49582ZM9.66899 1.80359C9.04043 1.80359 8.43743 2.05247 7.99185 2.49582L9.40252 3.91357C9.47332 3.84313 9.56912 3.80359 9.66899 3.80359L9.66899 1.80359ZM7.99004 2.49763L2.49813 7.99012L3.91242 9.40426L9.40433 3.91176L7.99004 2.49763ZM2.49817 7.99009C1.76282 8.72544 1.60712 9.82724 2.05625 10.7153L3.84098 9.81267C3.7768 9.68575 3.79609 9.52059 3.91238 9.4043L2.49817 7.99009ZM3.94737 10.3138C3.95163 10.2286 3.98745 10.148 4.04787 10.0878L2.63568 8.67156C2.22337 9.08269 1.97888 9.63259 1.94986 10.2141L3.94737 10.3138ZM4.04888 10.0868L9.54079 4.59486L8.12658 3.18065L2.63467 8.67257L4.04888 10.0868ZM9.53902 4.59663C9.60981 4.52619 9.70562 4.48665 9.80549 4.48665L9.80549 2.48665C9.17692 2.48665 8.57393 2.73553 8.12835 3.17888L9.53902 4.59663ZM9.80549 4.48665C9.90536 4.48665 10.0012 4.52619 10.072 4.59663L11.4826 3.17888C11.0371 2.73553 10.4341 2.48665 9.80549 2.48665L9.80549 4.48665ZM10.0857 4.61001C10.0958 4.61972 10.1038 4.63145 10.1091 4.64443L11.9588 3.88356C11.8473 3.61268 11.6805 3.36809 11.4689 3.16551L10.0857 4.61001ZM12.0303 4.34918C12.0882 3.67213 11.8449 2.99462 11.3479 2.49759L9.93369 3.9118C10.0153 3.99342 10.045 4.09172 10.0376 4.17881L12.0303 4.34918Z" fill="black" mask="url(#path-4-inside-1_691_1425)"/>
<path d="M7.92728 3.97467L4.77154 0.818932C4.51208 0.559398 4.20403 0.353521 3.86498 0.213058C3.52594 0.072595 3.16255 0.000297963 2.79556 0.000297995C2.42857 0.000298027 2.06518 0.0725952 1.72614 0.213058C1.3871 0.353521 1.07904 0.559398 0.819579 0.818932C0.558487 1.07735 0.351532 1.38522 0.210812 1.72455C0.0700922 2.06388 -0.00156784 2.42786 2.19626e-05 2.7952C0.00160131 3.53638 0.295962 4.24691 0.818996 4.77206L3.62118 7.57424L3.97471 7.22066M7.92728 3.97467L7.5737 3.62114L7.2202 3.97469M7.92728 3.97467L4.32826 7.57422L3.97471 7.22066M7.92728 3.97467L7.57372 4.32822L7.2202 3.97469M7.2202 3.97469L4.41799 1.17249L4.41794 1.17244C4.20491 0.959347 3.95198 0.790312 3.67361 0.674985C3.39524 0.559657 3.09687 0.500298 2.79556 0.500298C2.49425 0.500298 2.19588 0.559657 1.91751 0.674985C1.63914 0.790313 1.38621 0.959348 1.17318 1.17244L1.17131 1.1743C0.957448 1.38597 0.787935 1.63814 0.672673 1.91608C0.557411 2.19402 0.498715 2.49215 0.500017 2.79304L0.500022 2.79414C0.501319 3.40332 0.743213 3.98731 1.17303 4.41899L1.17255 4.41851L0.819026 4.77203L1.17326 4.41922L3.97471 7.22066M7.2202 3.97469L3.97471 7.22066" fill="#F9B938" stroke="black"/>
<path d="M2.87995 0.501863C2.85193 0.493465 2.82379 0.485437 2.79553 0.477781C2.63221 0.433537 2.46491 0.40174 2.295 0.383044C2.12637 0.36449 1.95745 0.359092 1.78968 0.366515C1.632 0.373491 1.47534 0.391791 1.32089 0.421138C1.44977 0.341056 1.58527 0.271419 1.72611 0.21307C2.06515 0.0726066 2.42854 0.000309948 2.79553 0.000309916C3.16252 0.000309884 3.52591 0.0726065 3.86495 0.213069C4.204 0.353533 4.51205 0.559409 4.77151 0.818943L7.92725 3.97468M2.87995 0.501863C2.85184 0.500829 2.8237 0.50031 2.79553 0.50031C2.62007 0.50031 2.44562 0.520437 2.27553 0.560023C2.15352 0.588418 2.03375 0.626825 1.91748 0.674996C1.77316 0.734787 1.63568 0.809013 1.50705 0.89633C1.74807 0.858913 1.99456 0.853004 2.24031 0.880045C2.87168 0.949513 3.46046 1.2323 3.90937 1.68167M2.87995 0.501863C3.15246 0.511898 3.42123 0.570451 3.67358 0.674996C3.95195 0.790324 4.20488 0.959359 4.41791 1.17245L4.41796 1.1725L7.22026 3.9748M2.87995 0.501863C3.39941 0.657581 3.87548 0.94027 4.26311 1.3283M3.90937 1.68167L6.71155 4.48385L7.06499 4.13018M3.90937 1.68167L4.26292 1.32811L4.26311 1.3283M3.90937 1.68167L4.26311 1.3283M7.06499 4.13018L7.41854 4.48373L7.92725 3.97468M7.06499 4.13018L4.26311 1.3283M7.06499 4.13018L7.22026 3.9748M7.92725 3.97468L7.57369 4.32823L7.22026 3.9748M7.92725 3.97468L7.57357 3.62125L7.22026 3.9748" fill="#ECB021" stroke="black"/>
<g opacity="0.2">
<path d="M1.41798 4.41112L1.41803 4.41118C1.41801 4.41116 1.418 4.41114 1.41798 4.41112ZM1.41798 4.41112C1.41797 4.41112 1.41797 4.41111 1.41796 4.41111L1.41798 4.41112ZM1.93695 4.32961C1.93696 4.32962 1.93698 4.32963 1.93699 4.32965M1.93695 4.32961L1.6367 4.62985L1.63696 4.63011L1.78697 4.47987L1.93699 4.32965M1.93695 4.32961L1.93699 4.32965M1.93695 4.32961L1.93699 4.32965M3.95818 6.35083L3.95814 6.35079C3.95815 6.35081 3.95816 6.35082 3.95818 6.35083ZM1.63731 4.3293C1.67558 4.29126 1.72686 4.26926 1.78067 4.26766C1.77894 4.32137 1.75691 4.37252 1.7189 4.41071C1.71885 4.41076 1.7188 4.41081 1.71875 4.41086C1.7187 4.4109 1.71865 4.41095 1.7186 4.411C1.7185 4.4111 1.7184 4.4112 1.7183 4.4113C1.70075 4.42874 1.67752 4.44519 1.64934 4.45688C1.62565 4.46671 1.60039 4.47216 1.57478 4.47298C1.57607 4.43333 1.58843 4.39506 1.61014 4.36239C1.61785 4.35078 1.62675 4.33987 1.63674 4.32986C1.63685 4.32975 1.63697 4.32964 1.63708 4.32953C1.63715 4.32945 1.63723 4.32937 1.63731 4.3293Z" fill="white" stroke="black"/>
</g>
<g opacity="0.3">
<path d="M4.88171 10.1344L4.88177 10.1345L4.88171 10.1344ZM4.88171 10.1344L4.88171 10.1344L4.88171 10.1344ZM4.83384 9.77579C4.83398 9.77593 4.83413 9.77608 4.83428 9.77622L4.88241 9.72798C4.90894 9.75464 4.92999 9.78625 4.94436 9.82101C4.95214 9.83984 4.95788 9.8594 4.96152 9.87934C4.94162 9.8664 4.9223 9.85255 4.90364 9.83784C4.87922 9.8186 4.8559 9.79788 4.83384 9.77579ZM6.84969 8.05996C6.84967 8.05997 6.84966 8.05999 6.84965 8.06L6.84969 8.05996ZM5.24068 9.06848C5.2407 9.06846 5.24072 9.06844 5.24074 9.06842L5.24068 9.06848ZM4.54084 9.95452C4.5532 9.95965 4.56501 9.96592 4.57614 9.97323C4.58793 9.98098 4.59895 9.98989 4.60902 9.99987C4.60903 9.99987 4.60903 9.99987 4.60903 9.99988C4.60909 9.99993 4.60914 9.99998 4.60919 10C4.6092 10 4.60922 10.0001 4.60923 10.0001C4.60933 10.0002 4.60943 10.0003 4.60954 10.0004C4.6097 10.0005 4.60987 10.0007 4.61004 10.0009C4.61978 10.0107 4.62851 10.0215 4.63612 10.033C4.64359 10.0443 4.64998 10.0563 4.6552 10.0688C4.66499 10.0924 4.67043 10.1176 4.67129 10.1431C4.6458 10.1422 4.62066 10.1368 4.5971 10.127C4.5845 10.1218 4.57247 10.1154 4.56115 10.1079C4.54963 10.1002 4.53885 10.0914 4.52898 10.0817C4.52874 10.0814 4.5285 10.0812 4.52825 10.0809C4.52823 10.0809 4.52822 10.0809 4.5282 10.0809C4.51833 10.071 4.50948 10.0602 4.50178 10.0486C4.49412 10.0371 4.48758 10.0249 4.48228 10.012C4.4726 9.98859 4.46719 9.96364 4.46631 9.93835C4.4919 9.93921 4.51715 9.94468 4.54084 9.95452ZM4.8285 10.0811C4.82849 10.0812 4.82847 10.0812 4.82846 10.0812L4.8285 10.0811ZM4.30912 10C4.30914 10 4.30916 10 4.30918 9.99998L4.30912 10ZM4.30828 10.0009C4.30848 10.0007 4.30868 10.0005 4.30889 10.0003L4.30828 10.0009Z" fill="white" stroke="black"/>
</g>
<path opacity="0.1" d="M13.1058 8.39834L20.1423 14.2364L14.7391 20.744L8.00045 12.6323L13.1058 8.39834Z" fill="#2D2C2C" stroke="black"/>
<path d="M14.4602 16.9779L15.5138 18.0319L13.8844 19.9899L11.2352 20.2384L10.7375 20.2851L10.7841 20.7828L11.0319 23.4316L8.81915 26.0952C8.80574 26.1086 8.78441 26.1197 8.76865 26.1224C8.76861 26.1224 8.76858 26.1224 8.76855 26.1224L0.582582 27.4979C0.582338 27.498 0.582096 27.498 0.581852 27.498C0.570963 27.4997 0.559837 27.4988 0.549353 27.4954C0.538629 27.4919 0.528887 27.486 0.520927 27.478C0.512964 27.47 0.507011 27.4603 0.503557 27.4496C0.500168 27.439 0.499281 27.4279 0.500963 27.417C0.500996 27.4167 0.501028 27.4165 0.501062 27.4163L1.87548 19.2305C1.87549 19.2304 1.8755 19.2304 1.87551 19.2303C1.87785 19.2168 1.88871 19.1946 1.90385 19.1794L17.6269 6.12451L21.8739 10.3716L17.6696 15.4338L14.6986 16.1379L13.827 16.3444L14.4602 16.9779Z" fill="#E4E3FF" stroke="black"/>
<path d="M17.6269 6.12454L17.9976 6.49527L3.05102 18.9043L3.0441 18.9101L3.03739 18.916C2.85778 19.0764 2.72749 19.303 2.68646 19.551C2.6864 19.5513 2.68634 19.5517 2.68628 19.552L1.36973 27.3665L0.582586 27.4985C0.582355 27.4986 0.582125 27.4986 0.581894 27.4986C0.570995 27.5003 0.559853 27.4994 0.549356 27.496C0.538635 27.4925 0.528891 27.4866 0.520931 27.4786C0.51297 27.4706 0.507015 27.4609 0.503561 27.4502C0.500179 27.4397 0.499289 27.4285 0.500957 27.4176C0.500992 27.4174 0.501028 27.4172 0.501066 27.4169L1.87548 19.2305C1.87776 19.2171 1.88864 19.1947 1.90386 19.1794L17.6269 6.12454Z" fill="#D0D0F7" stroke="black"/>
<mask id="path-13-inside-2_691_1425" fill="white">
<path d="M20.3104 7.68808C20.3376 7.71517 20.3591 7.74735 20.3738 7.78279C20.3885 7.81822 20.3961 7.85621 20.3961 7.89457C20.3961 7.93294 20.3885 7.97092 20.3738 8.00636C20.3591 8.04179 20.3376 8.07397 20.3104 8.10107L5.70305 22.7084C5.67615 22.7363 5.64397 22.7585 5.60838 22.7738C5.5728 22.7891 5.53453 22.7971 5.4958 22.7975C5.45707 22.7978 5.41867 22.7904 5.38282 22.7758C5.34698 22.7611 5.31442 22.7394 5.28703 22.7121C5.25965 22.6847 5.23799 22.6521 5.22333 22.6163C5.20866 22.5804 5.20128 22.542 5.20162 22.5033C5.20195 22.4646 5.21 22.4263 5.22529 22.3907C5.24057 22.3551 5.26279 22.3229 5.29065 22.296L19.898 7.68808C19.9527 7.6334 20.0269 7.60269 20.1042 7.60269C20.1816 7.60269 20.2557 7.6334 20.3104 7.68808Z"/>
</mask>
<path d="M20.3104 7.68808C20.3376 7.71517 20.3591 7.74735 20.3738 7.78279C20.3885 7.81822 20.3961 7.85621 20.3961 7.89457C20.3961 7.93294 20.3885 7.97092 20.3738 8.00636C20.3591 8.04179 20.3376 8.07397 20.3104 8.10107L5.70305 22.7084C5.67615 22.7363 5.64397 22.7585 5.60838 22.7738C5.5728 22.7891 5.53453 22.7971 5.4958 22.7975C5.45707 22.7978 5.41867 22.7904 5.38282 22.7758C5.34698 22.7611 5.31442 22.7394 5.28703 22.7121C5.25965 22.6847 5.23799 22.6521 5.22333 22.6163C5.20866 22.5804 5.20128 22.542 5.20162 22.5033C5.20195 22.4646 5.21 22.4263 5.22529 22.3907C5.24057 22.3551 5.26279 22.3229 5.29065 22.296L19.898 7.68808C19.9527 7.6334 20.0269 7.60269 20.1042 7.60269C20.1816 7.60269 20.2557 7.6334 20.3104 7.68808Z" fill="#C2C2EF"/>
<path d="M20.3104 7.68808L19.6034 8.39529L19.6042 8.39608L20.3104 7.68808ZM20.3104 8.10107L19.6042 7.39307L19.6033 7.39396L20.3104 8.10107ZM5.70305 22.7084L4.99594 22.0013L4.9898 22.0075L4.98376 22.0137L5.70305 22.7084ZM5.29065 22.296L5.98536 23.0153L5.99162 23.0093L5.99777 23.0031L5.29065 22.296ZM19.898 7.68808L19.191 6.98086L19.1909 6.98099L19.898 7.68808ZM19.6042 8.39608C19.5383 8.33028 19.4859 8.25212 19.4502 8.16606L21.2975 7.39952C21.2324 7.24259 21.1369 7.10006 21.0166 6.98008L19.6042 8.39608ZM19.4502 8.16606C19.4145 8.08 19.3961 7.98774 19.3961 7.89457L21.3961 7.89457C21.3961 7.72468 21.3626 7.55645 21.2975 7.39952L19.4502 8.16606ZM19.3961 7.89457C19.3961 7.8014 19.4145 7.70915 19.4502 7.62309L21.2975 8.38962C21.3626 8.2327 21.3961 8.06447 21.3961 7.89457L19.3961 7.89457ZM19.4502 7.62309C19.4859 7.53703 19.5383 7.45886 19.6042 7.39307L21.0166 8.80907C21.1369 8.68909 21.2324 8.54655 21.2975 8.38962L19.4502 7.62309ZM19.6033 7.39396L4.99594 22.0013L6.41016 23.4156L21.0175 8.80817L19.6033 7.39396ZM4.98376 22.0137C5.0491 21.9461 5.12727 21.8921 5.21369 21.855L6.00307 23.6926C6.16066 23.6249 6.30319 23.5265 6.42234 23.4032L4.98376 22.0137ZM5.21369 21.855C5.30011 21.8179 5.39306 21.7983 5.48711 21.7975L5.50449 23.7974C5.67599 23.7959 5.84549 23.7603 6.00307 23.6926L5.21369 21.855ZM5.48711 21.7975C5.58116 21.7967 5.67444 21.8146 5.76149 21.8502L5.00416 23.7013C5.1629 23.7662 5.33298 23.7989 5.50449 23.7974L5.48711 21.7975ZM5.76149 21.8502C5.84854 21.8858 5.92762 21.9384 5.99414 22.005L4.57992 23.4192C4.70121 23.5405 4.84543 23.6364 5.00416 23.7013L5.76149 21.8502ZM5.99414 22.005C6.06066 22.0715 6.11325 22.1506 6.14886 22.2376L4.29779 22.9949C4.36273 23.1537 4.45864 23.2979 4.57992 23.4192L5.99414 22.005ZM6.14886 22.2376C6.18447 22.3246 6.2024 22.4179 6.20158 22.512L4.20166 22.4946C4.20017 22.6661 4.23285 22.8362 4.29779 22.9949L6.14886 22.2376ZM6.20158 22.512C6.20076 22.6061 6.18121 22.699 6.1441 22.7854L4.30647 21.996C4.23879 22.1536 4.20315 22.3231 4.20166 22.4946L6.20158 22.512ZM6.1441 22.7854C6.10698 22.8718 6.05302 22.95 5.98536 23.0153L4.59594 21.5768C4.47256 21.6959 4.37416 21.8384 4.30647 21.996L6.1441 22.7854ZM5.99777 23.0031L20.6051 8.39517L19.1909 6.98099L4.58353 21.589L5.99777 23.0031ZM20.605 8.39529C20.4722 8.52809 20.2921 8.60269 20.1042 8.60269L20.1042 6.60269C19.7617 6.60269 19.4332 6.73872 19.191 6.98086L20.605 8.39529ZM20.1042 8.60269C19.9164 8.60269 19.7363 8.52809 19.6034 8.39529L21.0174 6.98086C20.7752 6.73871 20.4467 6.60269 20.1042 6.60269L20.1042 8.60269Z" fill="black" mask="url(#path-13-inside-2_691_1425)"/>
<path d="M17.4571 4.17653C17.4571 3.94436 17.5485 3.7223 17.7112 3.55828C17.8756 3.39516 18.0979 3.30361 18.3295 3.30361C18.5613 3.30361 18.7837 3.39534 18.9482 3.55874C18.9483 3.55888 18.9485 3.55902 18.9486 3.55916L24.4395 9.05004C24.4396 9.05015 24.4397 9.05026 24.4398 9.05037C24.6033 9.21474 24.6951 9.43716 24.6951 9.66902C24.6951 9.90069 24.6035 10.1229 24.4402 10.2873C24.2759 10.4505 24.0536 10.5422 23.822 10.5422C23.5901 10.5422 23.3677 10.4504 23.2033 10.2869C23.2032 10.2868 23.2031 10.2866 23.203 10.2865L17.7127 4.79566C17.7126 4.79555 17.7125 4.79544 17.7124 4.79533C17.5489 4.63087 17.4571 4.40841 17.4571 4.17653Z" fill="#C163E0" stroke="black"/>
<mask id="path-16-inside-3_691_1425" fill="white">
<path d="M17.3577 3.20472C17.6159 2.94783 17.9653 2.80361 18.3295 2.80361C18.6937 2.80361 19.0431 2.94783 19.3013 3.20472L24.7938 8.69722C24.9964 8.89804 25.1303 9.15777 25.1764 9.43927C25.2225 9.72077 25.1784 10.0096 25.0505 10.2646C25.0341 9.94201 24.9029 9.62527 24.6573 9.3797L19.1654 3.8872C18.9072 3.63013 18.5577 3.4858 18.1933 3.4858C17.8289 3.4858 17.4794 3.63013 17.2212 3.8872C17.1121 3.99628 17.0194 4.12228 16.9645 4.26402C16.9486 4.06945 16.9756 3.87374 17.0435 3.69072C17.1114 3.50769 17.2187 3.34179 17.3577 3.20472Z"/>
</mask>
<path d="M17.3577 3.20472C17.6159 2.94783 17.9653 2.80361 18.3295 2.80361C18.6937 2.80361 19.0431 2.94783 19.3013 3.20472L24.7938 8.69722C24.9964 8.89804 25.1303 9.15777 25.1764 9.43927C25.2225 9.72077 25.1784 10.0096 25.0505 10.2646C25.0341 9.94201 24.9029 9.62527 24.6573 9.3797L19.1654 3.8872C18.9072 3.63013 18.5577 3.4858 18.1933 3.4858C17.8289 3.4858 17.4794 3.63013 17.2212 3.8872C17.1121 3.99628 17.0194 4.12228 16.9645 4.26402C16.9486 4.06945 16.9756 3.87374 17.0435 3.69072C17.1114 3.50769 17.2187 3.34179 17.3577 3.20472Z" fill="#7979F7"/>
<path d="M17.3577 3.20472L18.0598 3.91682L18.063 3.9136L17.3577 3.20472ZM18.3295 2.80361L18.3295 3.80361L18.3295 2.80361ZM19.3013 3.20472L20.0084 2.49761L20.0066 2.49585L19.3013 3.20472ZM24.7938 8.69722L24.0867 9.40433L24.0898 9.40739L24.7938 8.69722ZM25.0505 10.2646L24.0517 10.3152L24.2435 14.1022L25.9442 10.7131L25.0505 10.2646ZM24.6573 9.3797L23.9502 10.0868L23.9502 10.0868L24.6573 9.3797ZM19.1654 3.8872L19.8725 3.18013L19.8709 3.17854L19.1654 3.8872ZM18.1933 3.4858L18.1933 2.4858L18.1933 3.4858ZM17.2212 3.8872L16.5156 3.17854L16.5141 3.1801L17.2212 3.8872ZM16.9645 4.26402L15.9679 4.34564L17.8972 4.6248L16.9645 4.26402ZM18.063 3.9136C18.1338 3.84316 18.2296 3.80361 18.3295 3.80361L18.3295 1.80361C17.7009 1.80361 17.0979 2.0525 16.6524 2.49585L18.063 3.9136ZM18.3295 3.80361C18.4294 3.80361 18.5252 3.84316 18.596 3.9136L20.0066 2.49585C19.5611 2.0525 18.9581 1.80361 18.3295 1.80361L18.3295 3.80361ZM18.5942 3.91183L24.0867 9.40433L25.5009 7.99011L20.0084 2.49762L18.5942 3.91183ZM24.0898 9.40739C24.1426 9.45975 24.1775 9.52747 24.1895 9.60087L26.1632 9.27767C26.0831 8.78807 25.8502 8.33634 25.4978 7.98705L24.0898 9.40739ZM24.1895 9.60087C24.2015 9.67427 24.19 9.74959 24.1567 9.81606L25.9442 10.7131C26.1667 10.2697 26.2434 9.76727 26.1632 9.27767L24.1895 9.60087ZM26.0492 10.214C26.0208 9.65339 25.7917 9.09985 25.3644 8.67259L23.9502 10.0868C24.0141 10.1507 24.0475 10.2306 24.0517 10.3152L26.0492 10.214ZM25.3644 8.67263L19.8725 3.18013L18.4582 4.59427L23.9502 10.0868L25.3644 8.67263ZM19.8709 3.17854C19.4253 2.73488 18.8221 2.4858 18.1933 2.4858L18.1933 4.4858C18.2932 4.4858 18.389 4.52538 18.4598 4.59587L19.8709 3.17854ZM18.1933 2.4858C17.5645 2.4858 16.9613 2.73488 16.5157 3.17854L17.9267 4.59587C17.9975 4.52538 18.0934 4.4858 18.1933 4.4858L18.1933 2.4858ZM16.5141 3.1801C16.3375 3.35665 16.1507 3.59615 16.0319 3.90325L17.8972 4.6248C17.8922 4.63779 17.889 4.64074 17.8937 4.63401C17.8985 4.62709 17.9091 4.61348 17.9283 4.59431L16.5141 3.1801ZM17.9612 4.18241C17.9572 4.13363 17.964 4.08456 17.981 4.03867L16.106 3.34276C15.9871 3.66293 15.94 4.00527 15.9679 4.34564L17.9612 4.18241ZM17.981 4.03867C17.998 3.99278 18.0249 3.95118 18.0598 3.91682L16.6556 2.49263C16.4124 2.7324 16.2248 3.0226 16.106 3.34276L17.981 4.03867Z" fill="black" mask="url(#path-16-inside-3_691_1425)"/>
<path d="M23.5806 1.17249L23.5807 1.17239C23.7937 0.959224 24.0467 0.790127 24.3251 0.674758C24.6035 0.559388 24.9019 0.500007 25.2033 0.500007C25.5047 0.500007 25.8031 0.559388 26.0815 0.674758C26.3599 0.790127 26.6129 0.959223 26.8259 1.17239L26.826 1.17249C27.7496 2.09608 27.696 3.5486 26.826 4.41851L24.0239 7.22066L20.7784 3.97469L23.5806 1.17249Z" fill="#F9B938" stroke="black"/>
<path d="M20.7784 3.97468L23.5806 1.1725L23.5807 1.1724C23.7937 0.959236 24.0467 0.790139 24.3251 0.674769C24.5781 0.569921 24.8477 0.511316 25.1209 0.501498C24.6009 0.657035 24.1242 0.939804 23.7362 1.32811C23.7362 1.32816 23.7361 1.32821 23.7361 1.32826L20.934 4.1303L20.7784 3.97468Z" fill="#ECB021" stroke="black"/>
<g opacity="0.2">
<path d="M26.2116 4.48006L26.2115 4.47995L26.2113 4.47979L26.2113 4.47978L26.2109 4.47941L26.2116 4.48006ZM26.2116 4.48006L26.2117 4.48017L26.2116 4.48006ZM26.4238 4.47288C26.3984 4.472 26.3733 4.46656 26.3498 4.45679C26.3366 4.45133 26.3245 4.44482 26.3135 4.43766C26.301 4.42945 26.29 4.42038 26.2806 4.41102C26.2806 4.41099 26.2805 4.41095 26.2805 4.41092L26.4238 4.47288ZM26.4238 4.47288C26.423 4.44739 26.4176 4.42223 26.4078 4.39862C26.4026 4.38607 26.3962 4.37408 26.3888 4.3628C26.3809 4.35096 26.3719 4.3399 26.3618 4.32981C26.3618 4.32979 26.3618 4.32976 26.3617 4.32973C26.3617 4.32966 26.3616 4.32958 26.3615 4.3295C26.3419 4.30996 26.3186 4.29444 26.293 4.28384C26.2693 4.27402 26.244 4.26859 26.2184 4.26779C26.2198 4.30745 26.2321 4.3457 26.2538 4.37836L26.4238 4.47288ZM25.4992 5.19231L25.4986 5.19173L25.3489 5.04215M25.4992 5.19231L25.6547 5.03691L25.4993 5.19219L25.4992 5.1923L25.4983 5.19142L25.296 4.98903L25.4694 5.16249L25.349 5.04212L25.3489 5.04215M25.4992 5.19231L25.3489 5.34247C25.3091 5.30264 25.2868 5.24863 25.2868 5.19231C25.2868 5.13599 25.3091 5.08198 25.3489 5.04215M25.4992 5.19231L25.6495 5.34268M25.3489 5.04215L24.0407 6.35097C24.0604 6.33129 24.0838 6.31568 24.1095 6.30502C24.1352 6.29437 24.1628 6.28888 24.1906 6.28888C24.2185 6.28888 24.2461 6.29437 24.2718 6.30502C24.2975 6.31568 24.3209 6.33131 24.3406 6.351C24.3603 6.37069 24.3759 6.39408 24.3866 6.41981C24.3973 6.44555 24.4027 6.47313 24.4027 6.50098C24.4027 6.52883 24.3973 6.55641 24.3866 6.58214C24.376 6.60784 24.3604 6.63118 24.3407 6.65085L25.6495 5.34268M25.6495 5.34268L25.6495 5.34266L25.5276 5.22069L25.7026 5.3956L24.3942 6.70455M25.6495 5.34268L24.1906 6.501L24.1906 6.50098L24.1905 6.50091L24.1894 6.49978L24.0406 6.35108L24.0407 6.35101L23.9871 6.2974M25.6495 5.34268L25.4993 5.19243L25.3492 5.34268C25.389 5.38249 25.443 5.40486 25.4993 5.40486C25.5556 5.40486 25.6096 5.38249 25.6495 5.34268ZM24.3942 6.70455L24.3406 6.65095L24.1906 6.50098L24.0407 6.351L23.9871 6.2974M24.3942 6.70455L24.3406 6.65097L23.9871 6.2974M24.3942 6.70455C24.3675 6.73129 24.3358 6.7525 24.3008 6.76696C24.2659 6.78143 24.2285 6.78888 24.1906 6.78888C24.1528 6.78888 24.1154 6.78143 24.0805 6.76696C24.0455 6.7525 24.0138 6.73129 23.9871 6.70455C23.9603 6.67782 23.9391 6.64608 23.9247 6.61115C23.9102 6.57622 23.9027 6.53879 23.9027 6.50098C23.9027 6.46317 23.9102 6.42573 23.9247 6.3908C23.9391 6.35587 23.9603 6.32414 23.9871 6.2974M26.5811 4.41104C26.5811 4.41106 26.5811 4.41108 26.5811 4.41109L26.5811 4.41104ZM26.5811 4.41104C26.5813 4.4109 26.5814 4.41076 26.5815 4.41062L26.5811 4.41104ZM24.1906 6.50107L24.1907 6.50113L24.1906 6.50107Z" fill="white" stroke="black"/>
</g>
<g opacity="0.3">
<path d="M23.2647 10.1244C23.2299 10.11 23.1982 10.0889 23.1716 10.0622L23.5776 10.0622C23.5509 10.0889 23.5193 10.11 23.4844 10.1244C23.4496 10.1389 23.4123 10.1463 23.3746 10.1463C23.3369 10.1463 23.2995 10.1389 23.2647 10.1244ZM23.224 9.70862C23.2241 9.70849 23.2243 9.70836 23.2244 9.70823C23.2244 9.7082 23.2245 9.70817 23.2245 9.70814C23.2441 9.68863 23.2674 9.67313 23.293 9.66253C23.3168 9.65269 23.3421 9.64724 23.3677 9.64641C23.3664 9.68609 23.354 9.72437 23.3322 9.75704C23.3245 9.76855 23.3157 9.77936 23.3058 9.78929C23.3057 9.78937 23.3056 9.78945 23.3055 9.78953C23.3054 9.78966 23.3053 9.78979 23.3051 9.78992C23.2952 9.79979 23.2844 9.80859 23.2729 9.81622C23.2403 9.8378 23.2022 9.85012 23.1627 9.85146C23.1636 9.82596 23.169 9.8008 23.1788 9.7772C23.191 9.74774 23.2074 9.72529 23.2239 9.70874C23.2239 9.7087 23.224 9.70866 23.224 9.70862ZM23.5249 9.7084L23.5248 9.70834C23.5248 9.70836 23.5249 9.70838 23.5249 9.7084ZM23.0055 9.78951L23.0055 9.78955C23.0055 9.78953 23.0055 9.78952 23.0055 9.78951ZM23.3058 9.4893L23.3055 9.48905L23.3058 9.4893Z" fill="white" stroke="black"/>
</g>
</svg>
