<svg width="64" height="64" viewBox="0 0 64 64" fill="none" xmlns="http://www.w3.org/2000/svg">
<g clip-path="url(#clip0_718_1817)">
<mask id="mask0_718_1817" style="mask-type:luminance" maskUnits="userSpaceOnUse" x="0" y="0" width="64" height="64">
<path d="M0 0H64V64H0V0Z" fill="white"/>
</mask>
<g mask="url(#mask0_718_1817)">
<path d="M17.9248 56.478L16.2587 52.9866C16.1824 52.8266 16.0625 52.6916 15.913 52.5971L15.8919 52.5837C15.7501 52.494 15.5869 52.444 15.4195 52.4391C15.252 52.4343 15.0862 52.4746 14.9395 52.5559C13.6544 53.2678 12.7196 53.951 12.0973 54.4665L8.88372 48.3022C8.82267 48.1853 8.73778 48.0824 8.63458 48.0005C8.53138 47.9186 8.41217 47.8595 8.2847 47.8269C8.15723 47.7942 8.02436 47.7889 7.89471 47.8113C7.76507 47.8336 7.64156 47.8831 7.5322 47.9565L0.415659 52.7396C0.282002 52.8295 0.17364 52.9525 0.100999 53.0966C0.0283587 53.2408 -0.00611684 53.4013 0.000889557 53.5627C0.00789596 53.7241 0.0561485 53.881 0.141005 54.0182C0.225861 54.1556 0.344467 54.2685 0.485409 54.3465L5.72857 57.2424V63.0589C5.72866 63.2248 5.77244 63.3877 5.85546 63.5313C5.93847 63.6748 6.05779 63.7937 6.20132 63.8759C6.34484 63.9582 6.50747 64.0009 6.67272 63.9997C6.83797 63.9986 6.99998 63.9535 7.14233 63.8693L17.5562 57.6954C17.7581 57.5756 17.908 57.384 17.9763 57.1587C18.0445 56.9332 18.0261 56.6904 17.9248 56.478ZM63.5844 52.7396L56.4677 47.9565C56.3585 47.883 56.2349 47.8334 56.1052 47.811C55.9756 47.7886 55.8427 47.794 55.7152 47.8265C55.5877 47.8591 55.4684 47.9184 55.3652 48.0004C55.262 48.0823 55.1772 48.1852 55.1163 48.3022L51.9026 54.4665C51.2804 53.951 50.3455 53.2678 49.0604 52.5559C48.9137 52.4746 48.7479 52.4342 48.5804 52.4391C48.4129 52.444 48.2497 52.4939 48.108 52.5837L48.0868 52.5971C47.9374 52.6917 47.8176 52.8267 47.7412 52.9866L46.0752 56.478C45.9739 56.6904 45.9555 56.9332 46.0237 57.1587C46.092 57.384 46.242 57.5755 46.444 57.6952L56.8577 63.8692C57 63.9537 57.162 63.9989 57.3274 64C57.4927 64.0013 57.6554 63.9585 57.7989 63.876C57.9424 63.7937 58.0617 63.6748 58.1447 63.5312C58.2276 63.3877 58.2714 63.2247 58.2714 63.0587V57.2423L63.5146 54.3463C63.6556 54.2685 63.7741 54.1555 63.859 54.0181C63.9438 53.8809 63.9921 53.724 63.9991 53.5627C64.0061 53.4013 63.9716 53.2407 63.899 53.0966C63.8263 52.9525 63.718 52.8295 63.5844 52.7396Z" fill="#F5BA3D"/>
<mask id="mask1_718_1817" style="mask-type:luminance" maskUnits="userSpaceOnUse" x="0" y="47" width="64" height="17">
<path d="M17.9248 56.478L16.2587 52.9866C16.1824 52.8266 16.0625 52.6916 15.913 52.5971L15.8919 52.5837C15.7501 52.494 15.5869 52.444 15.4195 52.4391C15.252 52.4343 15.0862 52.4746 14.9395 52.5559C13.6544 53.2678 12.7196 53.951 12.0973 54.4665L8.88372 48.3022C8.82267 48.1853 8.73778 48.0824 8.63458 48.0005C8.53138 47.9186 8.41217 47.8595 8.2847 47.8269C8.15723 47.7942 8.02436 47.7889 7.89471 47.8113C7.76507 47.8336 7.64156 47.8831 7.5322 47.9565L0.415659 52.7396C0.282002 52.8295 0.17364 52.9525 0.100999 53.0966C0.0283587 53.2408 -0.00611684 53.4013 0.000889557 53.5627C0.00789596 53.7241 0.0561485 53.881 0.141005 54.0182C0.225861 54.1556 0.344467 54.2685 0.485409 54.3465L5.72857 57.2424V63.0589C5.72866 63.2248 5.77244 63.3877 5.85546 63.5313C5.93847 63.6748 6.05779 63.7937 6.20132 63.8759C6.34484 63.9582 6.50747 64.0009 6.67272 63.9997C6.83797 63.9986 6.99998 63.9535 7.14233 63.8693L17.5562 57.6954C17.7581 57.5756 17.908 57.384 17.9763 57.1587C18.0445 56.9332 18.0261 56.6904 17.9248 56.478ZM63.5844 52.7396L56.4677 47.9565C56.3585 47.883 56.2349 47.8334 56.1052 47.811C55.9756 47.7886 55.8427 47.794 55.7152 47.8265C55.5877 47.8591 55.4684 47.9184 55.3652 48.0004C55.262 48.0823 55.1772 48.1852 55.1163 48.3022L51.9026 54.4665C51.2804 53.951 50.3455 53.2678 49.0604 52.5559C48.9137 52.4746 48.7479 52.4342 48.5804 52.4391C48.4129 52.444 48.2497 52.4939 48.108 52.5837L48.0868 52.5971C47.9374 52.6917 47.8176 52.8267 47.7412 52.9866L46.0752 56.478C45.9739 56.6904 45.9555 56.9332 46.0237 57.1587C46.092 57.384 46.242 57.5755 46.444 57.6952L56.8577 63.8692C57 63.9537 57.162 63.9989 57.3274 64C57.4927 64.0013 57.6554 63.9585 57.7989 63.876C57.9424 63.7937 58.0617 63.6748 58.1447 63.5312C58.2276 63.3877 58.2714 63.2247 58.2714 63.0587V57.2423L63.5146 54.3463C63.6556 54.2685 63.7741 54.1555 63.859 54.0181C63.9438 53.8809 63.9921 53.724 63.9991 53.5627C64.0061 53.4013 63.9716 53.2407 63.899 53.0966C63.8263 52.9525 63.718 52.8295 63.5844 52.7396Z" fill="white"/>
</mask>
<g mask="url(#mask1_718_1817)">
<path d="M17.9248 56.478L16.2587 52.9866C16.1824 52.8266 16.0625 52.6916 15.913 52.5971L15.8919 52.5837C15.7501 52.494 15.5869 52.444 15.4195 52.4391C15.252 52.4343 15.0862 52.4746 14.9395 52.5559C13.6544 53.2678 12.7196 53.951 12.0973 54.4665L8.88372 48.3022C8.82267 48.1853 8.73778 48.0824 8.63458 48.0005C8.53138 47.9186 8.41217 47.8595 8.2847 47.8269C8.15723 47.7942 8.02436 47.7889 7.89471 47.8113C7.76507 47.8336 7.64156 47.8831 7.5322 47.9565L0.415659 52.7396C0.282002 52.8295 0.17364 52.9525 0.100999 53.0966C0.0283587 53.2408 -0.00611684 53.4013 0.000889557 53.5627C0.00789596 53.7241 0.0561485 53.881 0.141005 54.0182C0.225861 54.1556 0.344467 54.2685 0.485409 54.3465L5.72857 57.2424V63.0589C5.72866 63.2248 5.77244 63.3877 5.85546 63.5313C5.93847 63.6748 6.05779 63.7937 6.20132 63.8759C6.34484 63.9582 6.50747 64.0009 6.67272 63.9997C6.83797 63.9986 6.99998 63.9535 7.14233 63.8693L17.5562 57.6954C17.7581 57.5756 17.908 57.384 17.9763 57.1587C18.0445 56.9332 18.0261 56.6904 17.9248 56.478ZM63.5844 52.7396L56.4677 47.9565C56.3585 47.883 56.2349 47.8334 56.1052 47.811C55.9756 47.7886 55.8427 47.794 55.7152 47.8265C55.5877 47.8591 55.4684 47.9184 55.3652 48.0004C55.262 48.0823 55.1772 48.1852 55.1163 48.3022L51.9026 54.4665C51.2804 53.951 50.3455 53.2678 49.0604 52.5559C48.9137 52.4746 48.7479 52.4342 48.5804 52.4391C48.4129 52.444 48.2497 52.4939 48.108 52.5837L48.0868 52.5971C47.9374 52.6917 47.8176 52.8267 47.7412 52.9866L46.0752 56.478C45.9739 56.6904 45.9555 56.9332 46.0237 57.1587C46.092 57.384 46.242 57.5755 46.444 57.6952L56.8577 63.8692C57 63.9537 57.162 63.9989 57.3274 64C57.4927 64.0013 57.6554 63.9585 57.7989 63.876C57.9424 63.7937 58.0617 63.6748 58.1447 63.5312C58.2276 63.3877 58.2714 63.2247 58.2714 63.0587V57.2423L63.5146 54.3463C63.6556 54.2685 63.7741 54.1555 63.859 54.0181C63.9438 53.8809 63.9921 53.724 63.9991 53.5627C64.0061 53.4013 63.9716 53.2407 63.899 53.0966C63.8263 52.9525 63.718 52.8295 63.5844 52.7396Z" stroke="black" stroke-width="2"/>
</g>
<path d="M17.9248 56.4779L16.2587 52.9865C16.1085 52.6718 15.7925 52.4662 15.4452 52.4526C15.4452 52.4526 15.4172 52.4515 15.3694 52.4515C15.2107 52.4515 15.0546 52.492 14.9157 52.5693C12.3367 54.0021 11.1769 55.3156 11.1286 55.3709C11.0189 55.4968 10.9446 55.6499 10.9134 55.8143C10.8822 55.9788 10.8952 56.1485 10.951 56.3062C11.0069 56.4639 11.1037 56.6038 11.2313 56.7115C11.3589 56.819 11.5128 56.8905 11.6772 56.9185L16.9226 57.8126C17.0919 57.8415 17.266 57.8231 17.4256 57.7594C17.5852 57.6957 17.7244 57.5891 17.8277 57.4514C17.9312 57.3136 17.995 57.15 18.0122 56.9783C18.0293 56.8066 17.9991 56.6334 17.9248 56.4779ZM52.8714 55.3709C52.8231 55.3156 51.6634 54.0021 49.0844 52.5693C48.9455 52.492 48.7893 52.4515 48.6306 52.4515C48.5832 52.4515 48.5551 52.4526 48.5551 52.4526C48.2077 52.466 47.8917 52.6716 47.7413 52.9865L46.0754 56.4779C46.0011 56.6334 45.9708 56.8065 45.9877 56.9782C46.0048 57.1499 46.0685 57.3136 46.172 57.4513C46.2754 57.5891 46.4146 57.6957 46.5742 57.7594C46.734 57.823 46.908 57.8414 47.0773 57.8125L52.3227 56.9183C52.4869 56.8903 52.6409 56.8189 52.7685 56.7112C52.8961 56.6037 52.9929 56.4638 53.0488 56.3061C53.1047 56.1485 53.1177 55.9787 53.0866 55.8143C53.0554 55.6499 52.9811 55.4968 52.8714 55.3709Z" fill="#F5BA3D"/>
<mask id="mask2_718_1817" style="mask-type:luminance" maskUnits="userSpaceOnUse" x="10" y="52" width="44" height="6">
<path d="M17.9248 56.4779L16.2587 52.9865C16.1085 52.6718 15.7925 52.4662 15.4452 52.4526C15.4452 52.4526 15.4172 52.4515 15.3694 52.4515C15.2107 52.4515 15.0546 52.492 14.9157 52.5693C12.3367 54.0021 11.1769 55.3156 11.1286 55.3709C11.0189 55.4968 10.9446 55.6499 10.9134 55.8143C10.8822 55.9788 10.8952 56.1485 10.951 56.3062C11.0069 56.4639 11.1037 56.6038 11.2313 56.7115C11.3589 56.819 11.5128 56.8905 11.6772 56.9185L16.9226 57.8126C17.0919 57.8415 17.266 57.8231 17.4256 57.7594C17.5852 57.6957 17.7244 57.5891 17.8277 57.4514C17.9312 57.3136 17.995 57.15 18.0122 56.9783C18.0293 56.8066 17.9991 56.6334 17.9248 56.4779ZM52.8714 55.3709C52.8231 55.3156 51.6634 54.0021 49.0844 52.5693C48.9455 52.492 48.7893 52.4515 48.6306 52.4515C48.5832 52.4515 48.5551 52.4526 48.5551 52.4526C48.2077 52.466 47.8917 52.6716 47.7413 52.9865L46.0754 56.4779C46.0011 56.6334 45.9708 56.8065 45.9877 56.9782C46.0048 57.1499 46.0685 57.3136 46.172 57.4513C46.2754 57.5891 46.4146 57.6957 46.5742 57.7594C46.734 57.823 46.908 57.8414 47.0773 57.8125L52.3227 56.9183C52.4869 56.8903 52.6409 56.8189 52.7685 56.7112C52.8961 56.6037 52.9929 56.4638 53.0488 56.3061C53.1047 56.1485 53.1177 55.9787 53.0866 55.8143C53.0554 55.6499 52.9811 55.4968 52.8714 55.3709Z" fill="white"/>
</mask>
<g mask="url(#mask2_718_1817)">
<path d="M17.9248 56.4779L16.2587 52.9865C16.1085 52.6718 15.7925 52.4662 15.4452 52.4526C15.4452 52.4526 15.4172 52.4515 15.3694 52.4515C15.2107 52.4515 15.0546 52.492 14.9157 52.5693C12.3367 54.0021 11.1769 55.3156 11.1286 55.3709C11.0189 55.4968 10.9446 55.6499 10.9134 55.8143C10.8822 55.9788 10.8952 56.1485 10.951 56.3062C11.0069 56.4639 11.1037 56.6038 11.2313 56.7115C11.3589 56.819 11.5128 56.8905 11.6772 56.9185L16.9226 57.8126C17.0919 57.8415 17.266 57.8231 17.4256 57.7594C17.5852 57.6957 17.7244 57.5891 17.8277 57.4514C17.9312 57.3136 17.995 57.15 18.0122 56.9783C18.0293 56.8066 17.9991 56.6334 17.9248 56.4779ZM52.8714 55.3709C52.8231 55.3156 51.6634 54.0021 49.0844 52.5693C48.9455 52.492 48.7893 52.4515 48.6306 52.4515C48.5832 52.4515 48.5551 52.4526 48.5551 52.4526C48.2077 52.466 47.8917 52.6716 47.7413 52.9865L46.0754 56.4779C46.0011 56.6334 45.9708 56.8065 45.9877 56.9782C46.0048 57.1499 46.0685 57.3136 46.172 57.4513C46.2754 57.5891 46.4146 57.6957 46.5742 57.7594C46.734 57.823 46.908 57.8414 47.0773 57.8125L52.3227 56.9183C52.4869 56.8903 52.6409 56.8189 52.7685 56.7112C52.8961 56.6037 52.9929 56.4638 53.0488 56.3061C53.1047 56.1485 53.1177 55.9787 53.0866 55.8143C53.0554 55.6499 52.9811 55.4968 52.8714 55.3709Z" stroke="black" stroke-width="2"/>
</g>
<path d="M13.8084 41.3528C13.7005 41.1293 13.5092 40.9577 13.276 40.8753C13.0428 40.7928 12.7865 40.8062 12.5631 40.9126C8.0098 43.081 6.03453 45.3693 5.95278 45.4654C5.83139 45.6084 5.75535 45.7845 5.73441 45.9711C5.71348 46.1577 5.7486 46.3464 5.83528 46.5128L11.0037 56.4269C11.0834 56.5789 11.2028 56.7061 11.3492 56.7947C11.4957 56.8834 11.6635 56.9302 11.8345 56.9301C11.9672 56.9299 12.0984 56.9015 12.2195 56.8469C12.3405 56.7922 12.4487 56.7126 12.537 56.613C12.5423 56.607 13.0859 55.9992 14.2588 55.1854C15.3428 54.4333 17.2013 53.3468 19.8997 52.4404C20.0492 52.3901 20.1835 52.303 20.2904 52.1869C20.3973 52.0709 20.4734 51.9295 20.5116 51.7761C20.5499 51.6227 20.5489 51.4621 20.509 51.3091C20.4691 51.1561 20.3914 51.0157 20.2831 50.9009C17.7401 48.202 15.5615 44.9897 13.8084 41.3528ZM58.0474 45.4654C57.9656 45.369 55.9902 43.081 51.4372 40.9126C51.2138 40.8061 50.9575 40.7927 50.7244 40.8752C50.4911 40.9577 50.2997 41.1293 50.192 41.3528C48.4385 44.99 46.2599 48.2023 43.7169 50.9007C43.6086 51.0156 43.5309 51.156 43.491 51.309C43.4511 51.462 43.4502 51.6226 43.4884 51.776C43.5266 51.9294 43.6027 52.0707 43.7096 52.1868C43.8165 52.3029 43.9509 52.3901 44.1003 52.4402C46.7987 53.3468 48.6572 54.4333 49.7412 55.1853C50.9143 55.9991 51.4577 56.6068 51.4605 56.6098C51.5608 56.725 51.6875 56.814 51.8297 56.8689C51.9719 56.9238 52.1252 56.9431 52.2766 56.9252C52.4279 56.9071 52.5725 56.8524 52.698 56.7655C52.8235 56.6787 52.926 56.5625 52.9965 56.4269L58.165 46.5128C58.2516 46.3464 58.2867 46.1577 58.2657 45.971C58.2447 45.7845 58.1687 45.6084 58.0474 45.4654Z" fill="#FFDB57"/>
<mask id="mask3_718_1817" style="mask-type:luminance" maskUnits="userSpaceOnUse" x="5" y="40" width="54" height="17">
<path d="M13.8084 41.3528C13.7005 41.1293 13.5092 40.9577 13.276 40.8753C13.0428 40.7928 12.7865 40.8062 12.5631 40.9126C8.0098 43.081 6.03453 45.3693 5.95278 45.4654C5.83139 45.6084 5.75535 45.7845 5.73441 45.9711C5.71348 46.1577 5.7486 46.3464 5.83528 46.5128L11.0037 56.4269C11.0834 56.5789 11.2028 56.7061 11.3492 56.7947C11.4957 56.8834 11.6635 56.9302 11.8345 56.9301C11.9672 56.9299 12.0984 56.9015 12.2195 56.8469C12.3405 56.7922 12.4487 56.7126 12.537 56.613C12.5423 56.607 13.0859 55.9992 14.2588 55.1854C15.3428 54.4333 17.2013 53.3468 19.8997 52.4404C20.0492 52.3901 20.1835 52.303 20.2904 52.1869C20.3973 52.0709 20.4734 51.9295 20.5116 51.7761C20.5499 51.6227 20.5489 51.4621 20.509 51.3091C20.4691 51.1561 20.3914 51.0157 20.2831 50.9009C17.7401 48.202 15.5615 44.9897 13.8084 41.3528ZM58.0474 45.4654C57.9656 45.369 55.9902 43.081 51.4372 40.9126C51.2138 40.8061 50.9575 40.7927 50.7244 40.8752C50.4911 40.9577 50.2997 41.1293 50.192 41.3528C48.4385 44.99 46.2599 48.2023 43.7169 50.9007C43.6086 51.0156 43.5309 51.156 43.491 51.309C43.4511 51.462 43.4502 51.6226 43.4884 51.776C43.5266 51.9294 43.6027 52.0707 43.7096 52.1868C43.8165 52.3029 43.9509 52.3901 44.1003 52.4402C46.7987 53.3468 48.6572 54.4333 49.7412 55.1853C50.9143 55.9991 51.4577 56.6068 51.4605 56.6098C51.5608 56.725 51.6875 56.814 51.8297 56.8689C51.9719 56.9238 52.1252 56.9431 52.2766 56.9252C52.4279 56.9071 52.5725 56.8524 52.698 56.7655C52.8235 56.6787 52.926 56.5625 52.9965 56.4269L58.165 46.5128C58.2516 46.3464 58.2867 46.1577 58.2657 45.971C58.2447 45.7845 58.1687 45.6084 58.0474 45.4654Z" fill="white"/>
</mask>
<g mask="url(#mask3_718_1817)">
<path d="M13.8084 41.3528C13.7005 41.1293 13.5092 40.9577 13.276 40.8753C13.0428 40.7928 12.7865 40.8062 12.5631 40.9126C8.0098 43.081 6.03453 45.3693 5.95278 45.4654C5.83139 45.6084 5.75535 45.7845 5.73441 45.9711C5.71348 46.1577 5.7486 46.3464 5.83528 46.5128L11.0037 56.4269C11.0834 56.5789 11.2028 56.7061 11.3492 56.7947C11.4957 56.8834 11.6635 56.9302 11.8345 56.9301C11.9672 56.9299 12.0984 56.9015 12.2195 56.8469C12.3405 56.7922 12.4487 56.7126 12.537 56.613C12.5423 56.607 13.0859 55.9992 14.2588 55.1854C15.3428 54.4333 17.2013 53.3468 19.8997 52.4404C20.0492 52.3901 20.1835 52.303 20.2904 52.1869C20.3973 52.0709 20.4734 51.9295 20.5116 51.7761C20.5499 51.6227 20.5489 51.4621 20.509 51.3091C20.4691 51.1561 20.3914 51.0157 20.2831 50.9009C17.7401 48.202 15.5615 44.9897 13.8084 41.3528ZM58.0474 45.4654C57.9656 45.369 55.9902 43.081 51.4372 40.9126C51.2138 40.8061 50.9575 40.7927 50.7244 40.8752C50.4911 40.9577 50.2997 41.1293 50.192 41.3528C48.4385 44.99 46.2599 48.2023 43.7169 50.9007C43.6086 51.0156 43.5309 51.156 43.491 51.309C43.4511 51.462 43.4502 51.6226 43.4884 51.776C43.5266 51.9294 43.6027 52.0707 43.7096 52.1868C43.8165 52.3029 43.9509 52.3901 44.1003 52.4402C46.7987 53.3468 48.6572 54.4333 49.7412 55.1853C50.9143 55.9991 51.4577 56.6068 51.4605 56.6098C51.5608 56.725 51.6875 56.814 51.8297 56.8689C51.9719 56.9238 52.1252 56.9431 52.2766 56.9252C52.4279 56.9071 52.5725 56.8524 52.698 56.7655C52.8235 56.6787 52.926 56.5625 52.9965 56.4269L58.165 46.5128C58.2516 46.3464 58.2867 46.1577 58.2657 45.971C58.2447 45.7845 58.1687 45.6084 58.0474 45.4654Z" stroke="black" stroke-width="2"/>
</g>
<path d="M57.8302 45.4642C57.7486 45.3677 55.7731 43.0797 51.2201 40.9114C50.9966 40.8049 50.7405 40.7914 50.5072 40.8739C50.274 40.9563 50.0827 41.1281 49.975 41.3515C48.2214 44.9887 46.0428 48.201 43.4998 50.8994C43.3915 51.0143 43.3139 51.1547 43.2739 51.3077C43.234 51.4607 43.2331 51.6213 43.2713 51.7747C43.3095 51.9282 43.3856 52.0694 43.4926 52.1855C43.5995 52.3016 43.7338 52.3888 43.8831 52.4389C46.5815 53.3455 48.44 54.4321 49.5241 55.1841C50.6972 55.9978 51.2406 56.6055 51.2435 56.6085C51.3437 56.7237 51.4704 56.8127 51.6126 56.8676C51.7548 56.9226 51.9082 56.9418 52.0595 56.9239C52.2108 56.9058 52.3554 56.8511 52.4809 56.7642C52.6063 56.6774 52.7088 56.5612 52.7795 56.4257L57.9479 46.5115C58.0345 46.3451 58.0696 46.1564 58.0486 45.9698C58.0277 45.7832 57.9517 45.6071 57.8302 45.4642Z" fill="#FFDB57"/>
<mask id="mask4_718_1817" style="mask-type:luminance" maskUnits="userSpaceOnUse" x="43" y="40" width="16" height="17">
<path d="M57.8302 45.4642C57.7486 45.3677 55.7731 43.0797 51.2201 40.9114C50.9966 40.8049 50.7405 40.7914 50.5072 40.8739C50.274 40.9563 50.0827 41.1281 49.975 41.3515C48.2214 44.9887 46.0428 48.201 43.4998 50.8994C43.3915 51.0143 43.3139 51.1547 43.2739 51.3077C43.234 51.4607 43.2331 51.6213 43.2713 51.7747C43.3095 51.9282 43.3856 52.0694 43.4926 52.1855C43.5995 52.3016 43.7338 52.3888 43.8831 52.4389C46.5815 53.3455 48.44 54.4321 49.5241 55.1841C50.6972 55.9978 51.2406 56.6055 51.2435 56.6085C51.3437 56.7237 51.4704 56.8127 51.6126 56.8676C51.7548 56.9226 51.9082 56.9418 52.0595 56.9239C52.2108 56.9058 52.3554 56.8511 52.4809 56.7642C52.6063 56.6774 52.7088 56.5612 52.7795 56.4257L57.9479 46.5115C58.0345 46.3451 58.0696 46.1564 58.0486 45.9698C58.0277 45.7832 57.9517 45.6071 57.8302 45.4642Z" fill="white"/>
</mask>
<g mask="url(#mask4_718_1817)">
<path d="M57.8302 45.4642C57.7486 45.3677 55.7731 43.0797 51.2201 40.9114C50.9966 40.8049 50.7405 40.7914 50.5072 40.8739C50.274 40.9563 50.0827 41.1281 49.975 41.3515C48.2214 44.9887 46.0428 48.201 43.4998 50.8994C43.3915 51.0143 43.3139 51.1547 43.2739 51.3077C43.234 51.4607 43.2331 51.6213 43.2713 51.7747C43.3095 51.9282 43.3856 52.0694 43.4926 52.1855C43.5995 52.3016 43.7338 52.3888 43.8831 52.4389C46.5815 53.3455 48.44 54.4321 49.5241 55.1841C50.6972 55.9978 51.2406 56.6055 51.2435 56.6085C51.3437 56.7237 51.4704 56.8127 51.6126 56.8676C51.7548 56.9226 51.9082 56.9418 52.0595 56.9239C52.2108 56.9058 52.3554 56.8511 52.4809 56.7642C52.6063 56.6774 52.7088 56.5612 52.7795 56.4257L57.9479 46.5115C58.0345 46.3451 58.0696 46.1564 58.0486 45.9698C58.0277 45.7832 57.9517 45.6071 57.8302 45.4642Z" stroke="black" stroke-width="2"/>
</g>
<path d="M57.2792 10.4126C57.2571 10.1975 57.162 9.99653 57.0098 9.84356C56.8574 9.69067 56.6573 9.59502 56.4431 9.57289C48.9835 8.80009 42.9036 6.3018 39.117 4.34228C35.0007 2.21217 32.6242 0.238217 32.6012 0.219011C32.4326 0.0775157 32.2199 0 32.0002 0C31.7804 0 31.5676 0.0775157 31.399 0.219011C31.3055 0.297593 21.8782 8.08933 7.55716 9.57298C7.34293 9.5952 7.14284 9.69076 6.99056 9.84373C6.83828 9.99671 6.7431 10.1976 6.72102 10.4128C6.68053 10.8084 5.75689 20.2302 8.31779 31.2028C9.82842 37.675 12.2474 43.3228 15.5077 47.9891C19.6034 53.8511 25.0358 58.1639 31.6537 60.8076C31.8761 60.8964 32.124 60.8964 32.3464 60.8076C38.9642 58.1639 44.3966 53.8511 48.4922 47.9891C51.7527 43.3228 54.1715 37.6751 55.6822 31.2028C58.2434 20.23 57.3196 10.8083 57.2792 10.4126Z" fill="#C163E0"/>
<mask id="mask5_718_1817" style="mask-type:luminance" maskUnits="userSpaceOnUse" x="6" y="0" width="52" height="61">
<path d="M57.2792 10.4126C57.2571 10.1975 57.162 9.99653 57.0098 9.84356C56.8574 9.69067 56.6573 9.59502 56.4431 9.57289C48.9835 8.80009 42.9036 6.3018 39.117 4.34228C35.0007 2.21217 32.6242 0.238217 32.6012 0.219011C32.4326 0.0775157 32.2199 0 32.0002 0C31.7804 0 31.5676 0.0775157 31.399 0.219011C31.3055 0.297593 21.8782 8.08933 7.55716 9.57298C7.34293 9.5952 7.14284 9.69076 6.99056 9.84373C6.83828 9.99671 6.7431 10.1976 6.72102 10.4128C6.68053 10.8084 5.75689 20.2302 8.31779 31.2028C9.82842 37.675 12.2474 43.3228 15.5077 47.9891C19.6034 53.8511 25.0358 58.1639 31.6537 60.8076C31.8761 60.8964 32.124 60.8964 32.3464 60.8076C38.9642 58.1639 44.3966 53.8511 48.4922 47.9891C51.7527 43.3228 54.1715 37.6751 55.6822 31.2028C58.2434 20.23 57.3196 10.8083 57.2792 10.4126Z" fill="white"/>
</mask>
<g mask="url(#mask5_718_1817)">
<path d="M57.2792 10.4126C57.2571 10.1975 57.162 9.99653 57.0098 9.84356C56.8574 9.69067 56.6573 9.59502 56.4431 9.57289C48.9835 8.80009 42.9036 6.3018 39.117 4.34228C35.0007 2.21217 32.6242 0.238217 32.6012 0.219011C32.4326 0.0775157 32.2199 0 32.0002 0C31.7804 0 31.5676 0.0775157 31.399 0.219011C31.3055 0.297593 21.8782 8.08933 7.55716 9.57298C7.34293 9.5952 7.14284 9.69076 6.99056 9.84373C6.83828 9.99671 6.7431 10.1976 6.72102 10.4128C6.68053 10.8084 5.75689 20.2302 8.31779 31.2028C9.82842 37.675 12.2474 43.3228 15.5077 47.9891C19.6034 53.8511 25.0358 58.1639 31.6537 60.8076C31.8761 60.8964 32.124 60.8964 32.3464 60.8076C38.9642 58.1639 44.3966 53.8511 48.4922 47.9891C51.7527 43.3228 54.1715 37.6751 55.6822 31.2028C58.2434 20.23 57.3196 10.8083 57.2792 10.4126Z" stroke="black" stroke-width="2"/>
</g>
<path d="M51.4792 15.1599C51.4572 14.9447 51.3621 14.7438 51.2098 14.5908C51.0575 14.4379 50.8574 14.3423 50.6432 14.3201C39.831 13.2 32.6716 7.30425 32.6013 7.24538C32.4326 7.10389 32.2199 7.02637 32.0001 7.02637C31.7804 7.02637 31.5676 7.10389 31.399 7.24538C31.3284 7.30476 24.1993 13.1969 13.3571 14.3201C13.1429 14.3423 12.9428 14.4379 12.7904 14.5908C12.6382 14.7438 12.543 14.9447 12.5209 15.1599C12.4899 15.4628 11.7827 22.6766 13.7421 31.0716C14.8993 36.03 16.7538 40.3583 19.2537 43.9366C22.3992 48.4385 26.5713 51.7508 31.6536 53.7812C31.876 53.87 32.124 53.87 32.3464 53.7812C37.4289 51.7508 41.6008 48.4387 44.7463 43.9366C47.2464 40.3583 49.1008 36.03 50.2579 31.0716C52.2176 22.6764 51.5103 15.4628 51.4792 15.1599Z" fill="#DB8EF4"/>
<mask id="mask6_718_1817" style="mask-type:luminance" maskUnits="userSpaceOnUse" x="20" y="19" width="24" height="23">
<path d="M20.7567 19.027H43.2432V41.5135H20.7567V19.027Z" fill="white"/>
</mask>
<g mask="url(#mask6_718_1817)">
<path d="M22.4865 24.6486L32 19.027L41.5135 24.6486V35.8919L32 41.5135L22.4865 35.8919V24.6486Z" fill="#F5BA3D"/>
<path d="M26.1455 26.8108L32 23.3514L37.8544 26.8108V33.7297L32 37.1892L26.1455 33.7297V26.8108Z" fill="#FFDB57"/>
</g>
</g>
</g>
<defs>
<clipPath id="clip0_718_1817">
<rect width="64" height="64" fill="white"/>
</clipPath>
</defs>
</svg>
