<svg width="54" height="54" viewBox="0 0 54 54" fill="none" xmlns="http://www.w3.org/2000/svg">
<g clip-path="url(#clip0_719_1869)">
<path d="M23.848 37.1132L19.6396 42.5243L14.5451 45.024L8.97595 39.4548L11.4757 34.3603L16.8867 30.1517C17.5827 29.6139 18.5637 29.7404 19.1017 30.4366L21.3485 32.6832L23.5635 34.8982C24.2594 35.4361 24.3861 36.4486 23.848 37.1132Z" fill="#E2E2E7"/>
<path d="M23.8481 37.1132L19.6397 42.5243L14.5452 45.024L11.7606 42.2394L21.3484 32.6831L23.5634 34.8981C24.2595 35.4361 24.3862 36.4486 23.8481 37.1132Z" fill="#D3D3D8"/>
<path d="M47.9602 6.03977C39.9229 -2.02922 26.9494 -1.99737 18.9118 6.03977C10.8428 14.0772 10.8745 27.0506 18.9118 35.088C26.9491 43.1571 39.9226 43.1254 47.9602 35.088C56.0291 27.0508 55.9975 14.0772 47.9602 6.03977Z" fill="#FDBF00"/>
<path d="M47.9602 35.088C39.9228 43.1254 26.9493 43.1571 18.9117 35.088L47.9602 6.03976C55.9974 14.0772 56.029 27.0508 47.9602 35.088Z" fill="#FF9F00"/>
<path d="M43.4984 10.5015C40.9037 7.90678 37.3597 6.32465 33.436 6.32465C25.5887 6.32465 19.1967 12.7164 19.1967 20.564C19.1967 24.4877 20.7788 28.0317 23.3735 30.6264C25.9683 33.2212 29.5122 34.8033 33.436 34.8033C41.2833 34.8033 47.6753 28.4114 47.6753 20.564C47.6753 16.6403 46.0932 13.0963 43.4984 10.5015Z" fill="#ECECF1"/>
<path d="M19.6397 42.5241L12.8175 51.2449C10.191 54.6307 5.16005 54.9471 2.09059 51.9093C-0.947121 48.8401 -0.630715 43.8088 2.75515 41.1825L11.4758 34.3602L19.6397 42.5241Z" fill="#3E5959"/>
<path d="M15.5577 38.4422L19.6397 42.5243L12.8175 51.245C10.191 54.6308 5.16003 54.9472 2.09058 51.9094L15.5577 38.4422Z" fill="#384949"/>
<path d="M47.6753 20.564C47.6753 28.4113 41.2834 34.8033 33.436 34.8033C29.5122 34.8033 25.9683 33.2212 23.3735 30.6264L43.4984 10.5015C46.0932 13.0963 47.6753 16.6403 47.6753 20.564Z" fill="#E2E2E7"/>
</g>
<defs>
<clipPath id="clip0_719_1869">
<rect width="54" height="54" fill="white"/>
</clipPath>
</defs>
</svg>
