<svg width="52" height="52" viewBox="0 0 52 52" fill="none" xmlns="http://www.w3.org/2000/svg">
<path d="M0.507721 1.14981L0.507688 1.14961C0.493034 1.06265 0.499391 0.973449 0.526228 0.889446C0.553065 0.805443 0.599604 0.729078 0.66196 0.666721C0.724317 0.604364 0.800683 0.557826 0.884685 0.530989C0.968688 0.504152 1.05789 0.497795 1.14485 0.512449L1.14539 0.512539L16.3518 3.05776C16.3522 3.05783 16.3526 3.05791 16.3531 3.05798C16.4859 3.0814 16.6096 3.15131 16.6974 3.24871L41.2081 32.7685L32.7642 41.2024L3.25763 16.7046C3.15752 16.6112 3.08951 16.4885 3.06341 16.354L0.507721 1.14981Z" fill="#D0D0F7" stroke="black"/>
<path d="M37.3384 37.3795H37.3377C37.3325 37.3795 37.3274 37.3785 37.3226 37.3765C37.3203 37.3755 37.3181 37.3744 37.316 37.373C37.3138 37.3715 37.3117 37.3698 37.3097 37.3679L37.3086 37.3667L10.1807 10.2388L10.1807 10.2387L10.1745 10.2327C10.1705 10.2288 10.1673 10.2242 10.1651 10.2192C10.1629 10.2141 10.1618 10.2086 10.1617 10.2031C10.1617 10.1976 10.1628 10.1921 10.1648 10.1869C10.1669 10.1818 10.17 10.1772 10.1739 10.1733C10.1779 10.1694 10.1825 10.1663 10.1876 10.1642C10.1927 10.1621 10.1982 10.161 10.2038 10.1611C10.2093 10.1611 10.2147 10.1623 10.2198 10.1645C10.2249 10.1666 10.2295 10.1698 10.2334 10.1738L10.2333 10.1738L10.2394 10.18L37.3685 37.308L37.3689 37.3084C37.3748 37.3142 37.3787 37.3216 37.3804 37.3297C37.382 37.3378 37.3811 37.3462 37.378 37.3538C37.3748 37.3615 37.3695 37.368 37.3626 37.3725C37.3566 37.3765 37.3476 37.3795 37.3384 37.3795Z" fill="#C2C2EF" stroke="black"/>
<path d="M34.0432 46.2925C33.4993 46.2925 32.9776 46.0774 32.5919 45.694C32.2083 45.3083 31.9929 44.7864 31.9929 44.2423C31.9929 43.698 32.2085 43.1759 32.5924 42.7901C32.5925 42.79 32.5926 42.7899 32.5927 42.7898L42.7904 32.592C42.7905 32.5919 42.7906 32.5919 42.7907 32.5918C43.1763 32.2079 43.6983 31.9924 44.2424 31.9924C44.7863 31.9924 45.308 32.2077 45.6936 32.5912C46.0772 32.9768 46.2925 33.4986 46.2925 34.0425C46.2925 34.5866 46.077 35.1085 45.6932 35.4941C45.6931 35.4943 45.693 35.4944 45.6929 35.4945L35.4953 45.6932C35.4951 45.6933 35.495 45.6934 35.4949 45.6936C35.1091 46.0772 34.5872 46.2925 34.0432 46.2925Z" fill="#9696D0" stroke="black"/>
<path d="M43.4921 50.1248L43.492 50.1248L37.9849 44.6177L44.6183 37.9833L50.1246 43.4897C50.1247 43.4897 50.1247 43.4897 50.1248 43.4898C51.003 44.3716 51.4972 45.5647 51.4999 46.8092L51.4999 46.8103C51.5025 47.426 51.3824 48.0362 51.1465 48.605C50.9107 49.1737 50.5637 49.6898 50.1261 50.123L50.1242 50.1248C49.6888 50.5604 49.1718 50.9059 48.6028 51.1416C48.0339 51.3773 47.424 51.4987 46.8082 51.4987C46.1923 51.4987 45.5824 51.3773 45.0135 51.1416C44.4445 50.9059 43.9275 50.5604 43.4921 50.1248Z" fill="#F9B938" stroke="black"/>
<path d="M24.842 20.7718L22.609 18.5378L25.9984 14.4649L31.0945 13.9869L31.5922 13.9402L31.5456 13.4425L31.0688 8.3463L35.3002 3.25267C35.3881 3.15614 35.5166 3.08519 35.6437 3.06362C35.6438 3.0636 35.6439 3.06357 35.6441 3.06355L50.8493 0.508577C50.8497 0.508515 50.8501 0.508453 50.8504 0.508392C50.9378 0.494407 51.0272 0.501293 51.1114 0.528493C51.1959 0.555812 51.2728 0.602842 51.3356 0.6657C51.3984 0.72856 51.4454 0.80545 51.4726 0.890029C51.4997 0.974277 51.5065 1.06375 51.4925 1.15113C51.4924 1.15147 51.4924 1.15181 51.4923 1.15215L48.9394 16.3567C48.9394 16.3569 48.9394 16.3571 48.9393 16.3572C48.9182 16.4817 48.8467 16.6112 48.7486 16.7011L19.2375 41.2043L10.7976 32.7644L18.9468 22.9523L24.6037 21.6118L25.4752 21.4053L24.842 20.7718Z" fill="#E4E3FF" stroke="black"/>
<path d="M14.6338 37.3674L14.6342 37.3678C14.642 37.3756 14.6526 37.3799 14.6637 37.3799C14.6747 37.3799 14.6852 37.3756 14.693 37.3678L14.6338 37.3674ZM14.6338 37.3674C14.6299 37.3635 14.6269 37.3589 14.6248 37.3538C14.6227 37.3488 14.6216 37.3434 14.6216 37.3379C14.6216 37.3324 14.6227 37.327 14.6248 37.3219C14.6269 37.3169 14.6299 37.3123 14.6338 37.3084L14.6343 37.3079L41.7622 10.18L41.7623 10.18L41.7683 10.1738C41.7722 10.1698 41.7768 10.1666 41.7818 10.1645C41.7869 10.1623 41.7924 10.1611 41.7979 10.1611C41.8034 10.161 41.8089 10.1621 41.814 10.1642C41.8192 10.1663 41.8238 10.1694 41.8277 10.1733C41.8316 10.1772 41.8347 10.1818 41.8368 10.1869C41.8389 10.1921 41.84 10.1976 41.8399 10.2031C41.8399 10.2086 41.8387 10.2141 41.8365 10.2192C41.8344 10.2242 41.8312 10.2288 41.8272 10.2327L41.8272 10.2326L41.821 10.2388L14.6931 37.3678L14.6338 37.3674Z" fill="#C2C2EF" stroke="black"/>
<path d="M19.4109 45.694C19.0252 46.0773 18.5035 46.2925 17.9597 46.2925C17.4156 46.2925 16.8937 46.0771 16.508 45.6935C16.5078 45.6934 16.5077 45.6932 16.5076 45.6931L6.30888 35.4944C6.30877 35.4943 6.30866 35.4942 6.30855 35.4941C5.92472 35.1085 5.70923 34.5865 5.70923 34.0424C5.70923 33.4986 5.92457 32.9768 6.30815 32.5912C6.69371 32.2077 7.21547 31.9923 7.75937 31.9923C8.30346 31.9923 8.82541 32.2078 9.21101 32.5917C9.21112 32.5918 9.21122 32.5919 9.21132 32.592L19.409 42.7907C19.4091 42.7908 19.4092 42.7909 19.4093 42.791C19.793 43.1768 20.0083 43.6987 20.0083 44.2428C20.0083 44.7871 19.7939 45.3087 19.4109 45.694Z" fill="#9696D0" stroke="black"/>
<path d="M14.0175 44.6177L8.51042 50.1248L8.51031 50.1249C8.07487 50.5606 7.55784 50.9062 6.98877 51.142C6.4197 51.3778 5.80975 51.4992 5.19375 51.4992C4.57776 51.4992 3.96781 51.3778 3.39874 51.142C2.82967 50.9062 2.31264 50.5606 1.87719 50.1249L1.87709 50.1248C-0.0124739 48.2352 0.101213 45.2663 1.87709 43.4904L7.38416 37.9833L14.0175 44.6177Z" fill="#F9B938" stroke="black"/>
</svg>
