<svg width="27" height="27" viewBox="0 0 27 27" fill="none" xmlns="http://www.w3.org/2000/svg">
<g clip-path="url(#clip0_654_826)">
<path d="M4.97437 3.5H22.9744C24.9074 3.5 26.4744 5.067 26.4744 7V23C26.4744 23.8284 25.8028 24.5 24.9744 24.5H2.97437C2.14594 24.5 1.47437 23.8284 1.47437 23V7C1.47437 5.067 3.04137 3.5 4.97437 3.5Z" fill="#D9D9D9" stroke="black"/>
<path d="M2.67749 24H25.2712C25.6596 24 25.9744 23.7 25.9744 23.3299V10.8612C25.9744 10.4912 25.6596 10.1912 25.2712 10.1912H2.67749C2.28918 10.1912 1.97437 10.4912 1.97437 10.8612L1.97437 23.3299C1.97437 23.7 2.28918 24 2.67749 24Z" fill="#FFE835"/>
<path d="M25.9744 23.3299V10.8612C25.9744 10.4912 25.6596 10.1912 25.2712 10.1912H13.9744V23.9999H25.2712C25.6596 24 25.9744 23.7 25.9744 23.3299Z" fill="#FFC833"/>
<path d="M5.17438 14.5808V20.2806C5.17438 20.6507 5.48919 20.9507 5.8775 20.9507H22.0713C22.4596 20.9507 22.7744 20.6507 22.7744 20.2806V14.5808C22.7744 14.2108 22.4596 13.9108 22.0713 13.9108H5.8775C5.48914 13.9108 5.17438 14.2108 5.17438 14.5808Z" fill="#F1A267"/>
<path d="M22.7743 20.2806V14.5808C22.7743 14.2108 22.4595 13.9108 22.0712 13.9108H13.9744V20.9507H22.0712C22.4596 20.9507 22.7743 20.6507 22.7743 20.2806Z" fill="#E47C5E"/>
<path d="M22.7743 4C22.7743 4.37004 22.4595 4.67004 22.0712 4.67004L5.87751 4.67004C5.48919 4.67004 5.17438 4.37004 5.17438 4C3.40658 4 1.97437 5.36626 1.97437 7.04868L1.97437 10.8612H25.9744V7.04868C25.9744 5.36626 24.5421 4 22.7743 4Z" fill="#FFC833"/>
<path d="M25.9744 7.04868C25.9744 5.36626 24.5421 4 22.7743 4C22.7743 4.37004 22.4595 4.67004 22.0712 4.67004H13.9744V10.8612H25.9744V7.04868Z" fill="#FFA735"/>
<path d="M5.8775 7.81182H22.0713C22.4596 7.81182 22.7744 7.51182 22.7744 7.14178V4L5.17438 4V7.14173C5.17438 7.51182 5.48914 7.81182 5.8775 7.81182Z" fill="#E47C5E"/>
<path d="M22.7743 7.14178V4H13.9744V7.81177H22.0712C22.4596 7.81182 22.7743 7.51182 22.7743 7.14178Z" fill="#D15853"/>
<path d="M13.9217 17.0705L16.9217 15.3398V11.8782L13.9217 10.1475L13.9217 17.0705Z" fill="#1F2746"/>
<path d="M13.9217 17.0705L10.9217 15.3398V11.8782L13.9217 10.1475L13.9217 17.0705Z" fill="#374969"/>
</g>
<defs>
<clipPath id="clip0_654_826">
<rect width="26" height="26" fill="white" transform="translate(0.921692 0.921631)"/>
</clipPath>
</defs>
</svg>
