<svg width="40" height="40" viewBox="0 0 40 40" fill="none" xmlns="http://www.w3.org/2000/svg">
<path d="M34.3533 20.1766C34.3533 28.0055 28.0094 34.3533 20.1767 34.3533C18.151 34.3533 16.2219 33.9271 14.4773 33.1595C14.2766 33.0712 14.0507 33.0627 13.8465 33.1423L9.33508 34.9015C8.75812 35.1265 8.14878 34.6575 8.21861 34.0421L8.79205 28.9908C8.81508 28.7877 8.75913 28.5851 8.64007 28.4189C6.94819 26.0562 5.96596 23.1535 6.0009 20.0148C6.08719 12.2591 12.5444 5.93435 20.3003 6.00051C28.076 6.06682 34.3533 12.3888 34.3533 20.1766Z" fill="#41B3E7"/>
<path d="M15.3148 20.2626C15.3148 21.6659 14.1759 22.8049 12.7725 22.8049C11.3692 22.8049 10.2302 21.666 10.2302 20.2626C10.2302 18.8593 11.3692 17.7203 12.7725 17.7203C14.1759 17.7203 15.3148 18.8593 15.3148 20.2626ZM22.7189 20.2626C22.7189 21.6659 21.58 22.8049 20.1767 22.8049C18.7733 22.8049 17.6344 21.666 17.6344 20.2626C17.6344 18.8593 18.7733 17.7203 20.1767 17.7203C21.58 17.7203 22.7189 18.8593 22.7189 20.2626ZM30.1231 20.2626C30.1231 21.6659 28.9842 22.8049 27.5809 22.8049C26.1776 22.8049 25.0386 21.666 25.0386 20.2626C25.0386 18.8593 26.1775 17.7203 27.5809 17.7203C28.9842 17.7203 30.1231 18.8593 30.1231 20.2626Z" fill="white"/>
<g opacity="0.1">
<path d="M14.9961 19.0371C14.6226 18.8309 14.2029 18.7227 13.7762 18.7229C12.3714 18.7229 11.2346 19.8627 11.2346 21.2645C11.2346 21.7111 11.3486 22.127 11.5519 22.4906C10.7632 22.0593 10.2303 21.2244 10.2303 20.2632C10.2303 18.8583 11.3702 17.7216 12.7719 17.7216C13.7299 17.7217 14.5648 18.2516 14.9961 19.0371ZM22.4052 19.0403C22.0417 18.8369 21.6258 18.723 21.1791 18.723C19.7774 18.723 18.6375 19.8628 18.6375 21.2645C18.6375 21.7112 18.7515 22.1271 18.9548 22.4906C18.1661 22.0594 17.6332 21.2244 17.6332 20.2633C17.6332 18.8584 18.7731 17.7217 20.1779 17.7217C21.136 17.7217 21.9739 18.2546 22.4052 19.0403ZM29.8082 19.0403C29.4446 18.8369 29.0288 18.723 28.5851 18.723C27.1803 18.723 26.0404 19.8628 26.0404 21.2645C26.0404 21.7112 26.1544 22.1271 26.3547 22.4906C25.5691 22.0563 25.0392 21.2214 25.0392 20.2633C25.0392 18.8584 26.176 17.7217 27.5808 17.7217C28.5421 17.7217 29.3769 18.2546 29.8082 19.0403Z" fill="black"/>
</g>
</svg>
