<svg width="26" height="26" viewBox="0 0 26 26" fill="none" xmlns="http://www.w3.org/2000/svg">
<g clip-path="url(#clip0_839_64)">
<path d="M15.8636 13L25.5846 3.27855C25.852 3.01094 25.9996 2.65391 26 2.27321C26 1.8923 25.8525 1.53485 25.5846 1.26767L24.7328 0.416009C24.4649 0.147765 24.1079 0.000854492 23.7268 0.000854492C23.3463 0.000854492 22.9893 0.147765 22.7215 0.416009L13.0004 10.1368L3.27896 0.416009C3.01156 0.147765 2.65432 0.000854492 2.27341 0.000854492C1.89293 0.000854492 1.53569 0.147765 1.26829 0.416009L0.416 1.26767C-0.138667 1.82233 -0.138667 2.72451 0.416 3.27855L10.1373 13L0.416 22.7211C0.14839 22.9891 0.00105691 23.3461 0.00105691 23.7268C0.00105691 24.1075 0.14839 24.4645 0.416 24.7324L1.26808 25.584C1.53548 25.852 1.89293 25.9992 2.2732 25.9992C2.65411 25.9992 3.01135 25.852 3.27875 25.584L13.0002 15.863L22.7212 25.584C22.9891 25.852 23.3461 25.9992 23.7266 25.9992H23.727C24.1077 25.9992 24.4647 25.852 24.7325 25.584L25.5844 24.7324C25.8518 24.4647 25.9994 24.1075 25.9994 23.7268C25.9994 23.3461 25.8518 22.9891 25.5844 22.7213L15.8636 13Z" fill={props.fill}/>
</g>
<defs>
<clipPath id="clip0_839_64">
<rect width="26" height="26" fill="white"/>
</clipPath>
</defs>
</svg>
