<svg width="44" height="44" viewBox="0 0 44 44" fill="none" xmlns="http://www.w3.org/2000/svg">
<path d="M5.41379 22.0255C5.41379 21.819 5.39052 21.618 5.34586 21.4253L5.36726 21.4207L10.9506 22.3512L16.319 31.3765L22.1172 31.3765L22.1172 38.1706L22.1117 38.3596C22.0827 38.3578 22.0529 38.3567 22.0242 38.3567C20.5531 38.3567 19.3583 39.5337 19.3274 40.9968C16.0017 40.5788 12.9418 39.308 10.3719 37.4102C11.3897 36.3542 11.3787 34.6727 10.3362 33.6317C9.28284 32.5783 7.57621 32.5772 6.52319 33.6294C4.5734 31.0864 3.24736 28.0425 2.77185 24.7223C4.2357 24.6925 5.41379 23.497 5.41379 22.0255Z" fill="#46B3AC"/>
<path d="M40.7588 24.4281C40.3423 27.6999 39.0987 30.7131 37.2482 33.2546C36.1882 32.3843 34.62 32.444 33.6299 33.4342C32.6193 34.4447 32.5787 36.0565 33.5063 37.1164C31.0003 39.0665 27.9974 40.4075 24.7191 40.9186C24.6501 39.5209 23.5159 38.4032 22.1117 38.3596L22.1172 38.1705L22.1172 31.3764L27.1709 31.3764L32.5971 21.9789L38.3553 21.9975L38.3665 21.9967C38.4836 23.2715 39.4897 24.2914 40.7587 24.4282L40.7588 24.4281Z" fill="#46B3AC"/>
<path d="M33.433 10.1406C34.4053 11.1137 35.936 11.1875 36.9949 10.3638C38.897 12.8577 40.2028 15.8308 40.696 19.0718C39.3744 19.2476 38.3554 20.3774 38.3554 21.7464C38.3554 21.831 38.3592 21.9139 38.3667 21.9968L38.3554 21.9975L32.5973 21.979L27.171 12.5804L21.6407 12.5804L21.5691 5.40862C21.6269 5.41328 21.6854 5.41514 21.7451 5.41514C23.1409 5.41514 24.2881 4.35626 24.4288 2.99756C27.6828 3.45372 30.6755 4.7256 33.192 6.60085C32.3868 7.65861 32.4668 9.1743 33.433 10.1406Z" fill="#46B3AC"/>
<path d="M21.6407 12.5804L27.1709 12.5804L32.5972 21.979L27.1709 31.3765L16.3189 31.3765L10.9505 22.3512L5.36722 21.4207L5.34582 21.4253C5.0768 20.2371 4.02341 19.3483 2.75879 19.328C3.21569 16.0223 4.51595 12.986 6.43448 10.4431C7.49438 11.3903 9.12219 11.3558 10.1392 10.338C11.1552 9.32272 11.1916 7.69797 10.249 6.639C12.7753 4.74235 15.7858 3.45623 19.0613 2.99756C19.1961 4.29847 20.2543 5.32497 21.569 5.40862L21.6407 12.5804Z" fill="black"/>
<path d="M27.9398 23.6252L33.9839 19.7883L33.9812 19.7837C34.4154 20.05 34.9256 20.1647 35.432 20.11C35.9384 20.0552 36.4123 19.834 36.7795 19.4811C37.1467 19.1281 37.3864 18.6633 37.4611 18.1595C37.5359 17.6557 37.4414 17.1413 37.1924 16.697C36.9435 16.2526 36.5542 15.9034 36.0855 15.704C35.6168 15.5046 35.0953 15.4663 34.6025 15.5951C34.1097 15.7239 33.6736 16.0125 33.3624 16.4158C33.0513 16.819 32.8827 17.3141 32.883 17.8234L32.8814 17.8204L26.936 21.5947L27.9398 23.6252Z" fill="#F9C47A"/>
<path d="M12.2251 28.5977C12.4524 24.2845 17.7129 20.0501 20.4166 18.1497C22.0741 16.9846 25.4723 16.8086 28.6619 21.8331C31.8516 26.8576 30.2462 29.8578 28.4867 30.8619C26.1669 32.186 21.757 34.3723 18.0392 34.3021L17.7233 34.2857C14.6816 34.1271 12.2805 31.6431 12.2251 28.5977Z" fill="#FF4E51"/>
<path d="M19.0853 22.2986L22.5602 20.4588C22.6222 20.426 22.6916 20.4097 22.7618 20.4115C22.8319 20.4133 22.9004 20.4332 22.9606 20.4692C23.0208 20.5052 23.0707 20.5561 23.1055 20.617C23.1403 20.6779 23.1588 20.7468 23.1592 20.817L23.1812 24.2358C23.1816 24.3015 23.198 24.3662 23.2288 24.4243C23.2596 24.4824 23.304 24.5322 23.3582 24.5694C23.4124 24.6067 23.4748 24.6302 23.5401 24.6382C23.6053 24.6461 23.6716 24.6381 23.7331 24.615L24.954 24.1553C25.0251 24.1287 25.1021 24.1223 25.1766 24.137C25.2511 24.1517 25.3199 24.1869 25.3755 24.2386C25.4311 24.2903 25.4711 24.3565 25.4911 24.4297C25.5112 24.5029 25.5104 24.5802 25.4889 24.653L23.56 31.1765C23.5338 31.265 23.4783 31.342 23.4027 31.395C23.327 31.4479 23.2356 31.4736 23.1435 31.4678C23.0513 31.4621 22.9638 31.4253 22.8953 31.3634C22.8268 31.3015 22.7813 31.2182 22.7662 31.1271L22.1591 27.4377C22.1484 27.3727 22.1221 27.3112 22.0824 27.2586C22.0428 27.2059 21.991 27.1637 21.9314 27.1354C21.8719 27.1072 21.8064 27.0938 21.7405 27.0963C21.6747 27.0989 21.6104 27.1174 21.5533 27.1502L20.3415 27.846C20.2847 27.8786 20.221 27.897 20.1556 27.8998C20.0902 27.9026 20.0251 27.8895 19.9658 27.8619C19.9064 27.8342 19.8547 27.7926 19.8148 27.7408C19.7749 27.6889 19.7481 27.6281 19.7366 27.5637L18.8743 22.731C18.8591 22.6459 18.8713 22.5582 18.9092 22.4804C18.9471 22.4027 19.0089 22.339 19.0853 22.2986Z" fill="#F9C47A"/>
</svg>
