<svg width="44" height="44" viewBox="0 0 44 44" fill="none" xmlns="http://www.w3.org/2000/svg">
<path d="M5.41379 22.0255C5.41379 21.819 5.39052 21.618 5.34586 21.4253L5.36726 21.4207L10.9506 22.3512L16.319 31.3765L22.1172 31.3765L22.1172 38.1706L22.1117 38.3596C22.0827 38.3578 22.0529 38.3567 22.0242 38.3567C20.5531 38.3567 19.3583 39.5337 19.3274 40.9968C16.0017 40.5788 12.9418 39.308 10.3719 37.4102C11.3897 36.3542 11.3787 34.6727 10.3362 33.6317C9.28284 32.5783 7.57621 32.5772 6.52319 33.6294C4.5734 31.0864 3.24736 28.0425 2.77185 24.7223C4.2357 24.6925 5.41379 23.497 5.41379 22.0255Z" fill="#46B3AC"/>
<path d="M40.7588 24.4281C40.3423 27.6999 39.0987 30.7131 37.2482 33.2546C36.1882 32.3843 34.62 32.444 33.6299 33.4342C32.6193 34.4447 32.5787 36.0565 33.5063 37.1164C31.0003 39.0665 27.9974 40.4075 24.7191 40.9186C24.6501 39.5209 23.5159 38.4032 22.1117 38.3596L22.1172 38.1705L22.1172 31.3764L27.1709 31.3764L32.5971 21.9789L38.3553 21.9975L38.3665 21.9967C38.4836 23.2715 39.4897 24.2914 40.7587 24.4282L40.7588 24.4281Z" fill="#46B3AC"/>
<path d="M33.433 10.1406C34.4053 11.1137 35.936 11.1875 36.9949 10.3638C38.897 12.8577 40.2028 15.8308 40.696 19.0718C39.3744 19.2476 38.3554 20.3774 38.3554 21.7464C38.3554 21.831 38.3592 21.9139 38.3667 21.9968L38.3554 21.9975L32.5973 21.979L27.171 12.5804L21.6407 12.5804L21.5691 5.40862C21.6269 5.41328 21.6854 5.41514 21.7451 5.41514C23.1409 5.41514 24.2881 4.35626 24.4288 2.99756C27.6828 3.45372 30.6755 4.7256 33.192 6.60085C32.3868 7.65861 32.4668 9.1743 33.433 10.1406Z" fill="#46B3AC"/>
<path d="M21.6407 12.5804L27.1709 12.5804L32.5972 21.979L27.1709 31.3765L16.3189 31.3765L10.9505 22.3512L5.36722 21.4207L5.34582 21.4253C5.0768 20.2371 4.02341 19.3483 2.75879 19.328C3.21569 16.0223 4.51595 12.986 6.43448 10.4431C7.49438 11.3903 9.12219 11.3558 10.1392 10.338C11.1552 9.32272 11.1916 7.69797 10.249 6.639C12.7753 4.74235 15.7858 3.45623 19.0613 2.99756C19.1961 4.29847 20.2543 5.32497 21.569 5.40862L21.6407 12.5804Z" fill="black"/>
<path d="M31.1809 29.7459L36 27.4593L32.6208 23.3536L33.8319 17.9805H28.1999L24.9241 14L21.6934 17.9805H16.1681L17.3693 23.3083L14 27.4593L18.8191 29.7459L20.0126 35.0435L25 32.6781L29.9874 35.0435L31.1809 29.7459Z" fill="#F5BE6F"/>
<path d="M20.0126 35.0435L25 32.6781V14.0928L24.9241 14L21.6934 17.9805H16.1681L17.3693 23.3083L14 27.4593L18.8191 29.7459L20.0126 35.0435Z" fill="#F9C47A"/>
</svg>
