<svg width="40" height="40" viewBox="0 0 40 40" fill="none" xmlns="http://www.w3.org/2000/svg">
<path d="M20.3333 6C16.5333 6.00455 12.8902 7.51613 10.2032 10.2032C7.51613 12.8902 6.00455 16.5333 6 20.3333V33.2334C6 33.6135 6.15101 33.9781 6.41981 34.2469C6.68862 34.5157 7.05319 34.6667 7.43333 34.6667H20.3333C24.1348 34.6667 27.7805 33.1566 30.4685 30.4685C33.1566 27.7805 34.6667 24.1348 34.6667 20.3333C34.6667 16.5319 33.1566 12.8862 30.4685 10.1981C27.7805 7.51012 24.1348 6 20.3333 6Z" fill="#C163E0"/>
<path d="M20.3333 6C16.5332 6.00417 12.8899 7.51563 10.2027 10.2027C7.51563 12.8899 6.00417 16.5332 6 20.3333V33.2334C6.00086 33.4307 6.04286 33.6256 6.12331 33.8058C6.20377 33.9859 6.32092 34.1474 6.46727 34.2797L30.9873 10.7787C29.6482 9.27673 28.0069 8.07458 26.1709 7.25105C24.3349 6.42753 22.3456 6.0012 20.3333 6Z" fill="#C163E0"/>
<path d="M18.9001 24.6291C18.5199 24.6291 18.1553 24.4781 17.8865 24.2093C17.6177 23.9405 17.4667 23.5759 17.4667 23.1957V22.4791C17.4675 21.5289 17.8453 20.6179 18.5171 19.9461C19.1889 19.2743 20.0999 18.8965 21.0501 18.8957C21.24 18.8954 21.4221 18.8197 21.5564 18.6854C21.6907 18.5511 21.7663 18.369 21.7667 18.1791V15.3124C21.7663 15.1224 21.6907 14.9404 21.5564 14.8061C21.4221 14.6717 21.24 14.5961 21.0501 14.5957H17.4667C17.0866 14.5957 16.722 14.4447 16.4532 14.1759C16.1844 13.9071 16.0334 13.5425 16.0334 13.1624C16.0334 12.7823 16.1844 12.4177 16.4532 12.1489C16.722 11.8801 17.0866 11.7291 17.4667 11.7291H21.0501C22.0002 11.7298 22.9112 12.1076 23.583 12.7794C24.2549 13.4513 24.6326 14.3623 24.6334 15.3124V18.1791C24.6326 19.1292 24.2549 20.0402 23.583 20.712C22.9112 21.3839 22.0002 21.7616 21.0501 21.7624C20.8601 21.7628 20.678 21.8384 20.5437 21.9727C20.4094 22.107 20.3338 22.2891 20.3334 22.4791V23.1957C20.3334 23.5759 20.1824 23.9405 19.9136 24.2093C19.6448 24.4781 19.2802 24.6291 18.9001 24.6291ZM18.9001 28.9377C18.6152 28.9377 18.3368 28.8532 18.0999 28.695C17.863 28.5368 17.6784 28.3119 17.5693 28.0488C17.4603 27.7856 17.4317 27.4961 17.4871 27.2167C17.5426 26.9373 17.6796 26.6806 17.881 26.4791C18.0823 26.2776 18.3388 26.1403 18.6181 26.0845C18.8975 26.0288 19.1871 26.0571 19.4503 26.1659C19.7136 26.2747 19.9386 26.4591 20.0971 26.6958C20.2555 26.9325 20.3403 27.2109 20.3406 27.4957C20.3394 27.8776 20.1873 28.2435 19.9175 28.5136C19.6476 28.7837 19.2819 28.9362 18.9001 28.9377Z" fill="white"/>
</svg>
