<svg width={props.width} height={props.height} viewBox="0 0 10 10" fill="none" xmlns="http://www.w3.org/2000/svg">
<g clip-path="url(#clip0_419_84)">
<path d="M7.33329 2.66667H2.66663C2.29843 2.66667 1.99996 2.3682 1.99996 2V0.333333C1.99996 0.149267 2.14923 0 2.33329 0C2.51736 0 2.66663 0.149267 2.66663 0.333333V1.33333H3.33329V0.666667C3.33329 0.298467 3.63176 0 3.99996 0C4.36816 0 4.66663 0.298467 4.66663 0.666667V1.33333H5.33329V0.666667C5.33329 0.298467 5.63176 0 5.99996 0C6.36816 0 6.66663 0.298467 6.66663 0.666667V1.33333H7.33329V0.333333C7.33329 0.149267 7.48256 0 7.66663 0C7.85069 0 7.99996 0.149267 7.99996 0.333333V2C7.99996 2.3682 7.70149 2.66667 7.33329 2.66667ZM9.33329 9.66667C9.33329 9.85073 9.18403 10 8.99996 10H0.999959C0.815893 10 0.666626 9.85073 0.666626 9.66667C0.666626 9.4826 0.815893 9.33333 0.999959 9.33333H1.33329C1.70149 9.33333 1.99996 9.03487 1.99996 8.66667C1.99996 8.66667 2.66663 4.66667 2.66663 4C2.66663 3.6318 2.96509 3.33333 3.33329 3.33333H6.66663C7.03483 3.33333 7.33329 3.6318 7.33329 4C7.33329 4.66667 7.99996 8.66667 7.99996 8.66667C7.99996 9.03487 8.29843 9.33333 8.66663 9.33333H8.99996C9.18149 9.33327 9.32969 9.47853 9.33329 9.66V9.66667ZM5.99996 7C5.99996 6.44773 5.55223 6 4.99996 6C4.44769 6 3.99996 6.44773 3.99996 7V9.33333H5.99996V7Z" fill="white"/>
</g>
<defs>
<clipPath id="clip0_419_84">
<rect width="10" height="10" fill="white"/>
</clipPath>
</defs>
</svg>
