<svg width="40" height="40" viewBox="0 0 40 40" fill="none" xmlns="http://www.w3.org/2000/svg">
<g clip-path="url(#clip0_876_253)">
<path d="M37.1986 9.78586C35.4192 6.79609 32.8797 4.30859 29.8546 2.5925L29.2809 3.60391C30.549 4.3233 31.729 5.18767 32.7974 6.17961L30.6434 9.91039H25.8252L23.4161 5.73766L25.5738 2.00039C26.5034 2.28841 27.4091 2.64824 28.2829 3.07664L28.7948 2.03258C26.0445 0.683906 23.0854 0 20 0C14.6578 0 9.63531 2.08031 5.85781 5.85781C2.08031 9.63531 0 14.6578 0 20C7.8125e-05 23.5466 0.940703 27.031 2.72016 30.0762L3.72414 29.4895C2.96106 28.1824 2.3594 26.7875 1.93234 25.3354H5.94047L8.34961 29.5082L6.34594 32.9792C5.59997 32.1937 4.9226 31.3458 4.32125 30.4448L3.35406 31.0903C7.07836 36.6693 13.3011 40 20 40C25.3422 40 30.3647 37.9197 34.1422 34.1422C37.9197 30.3647 40 25.3422 40 20C40 16.3973 39.0313 12.8653 37.1986 9.78586ZM34.0595 24.1727L31.6505 20L34.0595 15.8273H38.3665C38.6791 17.1962 38.837 18.5959 38.8372 20C38.8372 21.4336 38.6754 22.83 38.3706 24.1727H34.0595ZM17.5909 33.6809L15.1818 29.5081L17.5909 25.3354H22.4091L24.8182 29.5081L22.4091 33.6809H17.5909ZM14.1748 19.4186H9.35664L6.94758 15.2459L9.35664 11.0731H14.1748L16.584 15.2459L14.1748 19.4186ZM14.1748 9.91039H9.35656L7.20711 6.18672C9.24805 4.29516 11.7066 2.84836 14.4283 2.00398L16.5839 5.73766L14.1748 9.91039ZM17.5909 15.8273H22.4091L23.7873 18.2145L24.7943 17.6331L23.416 15.2459L25.8252 11.0731H30.6434L33.0524 15.2459L30.6434 19.4186H25.8252L25.3757 18.6402L24.3688 19.2216L24.8182 20L22.4091 24.1727H17.5909L15.1818 20L17.5909 15.8273ZM25.8252 30.0896H30.6434L32.7931 33.813C30.7521 35.7048 28.2934 37.1516 25.5717 37.996L23.4161 34.2623L25.8252 30.0896ZM30.6435 28.9268H25.8253L23.4162 24.7541L25.8253 20.5813H30.6435L33.0526 24.7541L30.6435 28.9268ZM38.062 14.6645H34.0596L31.6505 10.4918L33.6519 7.02539C35.7028 9.18906 37.2139 11.8065 38.062 14.6645ZM24.4152 1.68172L22.4091 5.15641H19.9996V6.31922H22.4091L24.8182 10.492L22.4091 14.6647H17.5909L15.1818 10.492L17.5909 6.31922H18.8368V5.15633H17.5909L15.5873 1.68602C17.0324 1.33792 18.5136 1.16227 20 1.16273C21.5077 1.16281 22.9827 1.33758 24.4152 1.68172ZM6.35148 7.03023L8.34961 10.4918L5.94047 14.6646H1.93359C2.78992 11.7699 4.32352 9.16328 6.35148 7.03023ZM1.16281 20C1.16281 18.5664 1.32461 17.17 1.62938 15.8273H5.94047L8.34953 20L5.94047 24.1727H1.62984C1.31966 22.8035 1.16302 21.4039 1.16281 20ZM9.35648 20.5814H14.1747L16.5838 24.7541L14.1747 28.9269H11.5562V30.0897H14.1747L16.5838 34.2624L14.4277 37.997C11.7366 37.1649 9.2669 35.7387 7.20109 33.8238L9.35648 30.0897H10.3934V28.9269H9.35648L6.94742 24.7541L9.35648 20.5814ZM15.5867 38.3149L17.5909 34.8436H22.4091L24.4127 38.3139C22.9676 38.662 21.4864 38.8377 20 38.8372C18.5135 38.8375 17.0321 38.6622 15.5867 38.3149ZM33.6488 32.9695L31.6505 29.5082L34.0595 25.3355H38.0663C37.2101 28.23 35.6766 30.8365 33.6488 32.9695Z" fill="#1D1D1F"/>
<path d="M36.6008 20.2034C36.5889 21.1995 36.4881 22.1926 36.2996 23.1708L37.4413 23.3916C37.643 22.3452 37.7509 21.2829 37.7635 20.2173L36.6008 20.2034ZM37.5791 17.4222C37.5214 17.0256 37.4502 16.6311 37.3659 16.2393L36.2292 16.4843C36.308 16.8504 36.3744 17.219 36.4284 17.5896L37.5791 17.4222ZM36.5932 19.454L37.7554 19.4166C37.7425 19.0162 37.7162 18.6163 37.6765 18.2176L36.5195 18.3328C36.5563 18.7035 36.5811 19.0807 36.5932 19.454ZM14.3246 3.16113C13.4215 3.46572 12.5445 3.84264 11.7021 4.28824L12.246 5.31598C13.033 4.89972 13.8523 4.54759 14.6959 4.26301L14.3246 3.16113ZM9.98783 5.32324L10.644 6.28324C10.9532 6.07198 11.2694 5.87116 11.5921 5.68113L11.0024 4.67895C10.6571 4.88227 10.3187 5.09716 9.98783 5.32324ZM8.40088 6.54402L9.16049 7.42441C9.44409 7.17972 9.73587 6.94466 10.0353 6.71965L9.33674 5.79004C9.01644 6.03083 8.70431 6.2823 8.40088 6.54402Z" fill="white"/>
<path d="M27.1841 18.2279L26.1771 17.6465L27.3465 15.6212L28.3534 16.2026L27.1841 18.2279Z" fill="white"/>
<path d="M29.7095 13.8529L28.7025 13.2715L29.2839 12.2646L30.2908 12.8459L29.7095 13.8529Z" fill="white"/>
<path d="M28.7407 15.5305L27.7338 14.9492L28.3151 13.9422L29.3221 14.5236L28.7407 15.5305Z" fill="white"/>
<path d="M20.0481 28.9271H23.6049V30.0899H20.0481V28.9271ZM18.1101 28.9271H19.2729V30.0899H18.1101V28.9271ZM16.1721 28.9271H17.3349V30.0899H16.1721V28.9271Z" fill="white"/>
</g>
<defs>
<clipPath id="clip0_876_253">
<rect width="40" height="40" fill="white"/>
</clipPath>
</defs>
</svg>
