<svg width="44" height="44" viewBox="0 0 44 44" fill="none" xmlns="http://www.w3.org/2000/svg">
<path d="M31.6293 13.4389L18.0114 1.9818C17.7001 1.72234 17.2876 1.68252 16.9084 1.79888L16.0264 5.89235L27.6025 38.3673L29.4652 42.1685L32.6114 36.7348L33.5019 19.5511L31.6293 13.4389Z" fill="#FEBD4E"/>
<path d="M26.0442 36.1412L5.66977 15.7667L2.33411 15.7757L2.5779 19.2791L8.54397 37.4645L12.9765 42.2632H29.1237C29.2397 42.231 29.3523 42.1997 29.4652 42.1685L26.0442 36.1412Z" fill="#FEBD4E"/>
<path d="M1.86235 16.7192C1.77976 16.8842 1.73678 17.0662 1.73682 17.2508V33.9509C1.73682 34.3249 1.91293 34.6771 2.21221 34.9016L11.7897 42.0254C11.9955 42.1797 12.2457 42.2631 12.5028 42.2631H12.9765L2.3341 15.7757L1.86235 16.7192ZM29.7346 42.0938L41.6869 34.97C41.8627 34.8646 42.0081 34.7154 42.1091 34.537C42.2101 34.3587 42.2631 34.1572 42.2631 33.9522V26.7474C42.2631 26.4783 42.1716 26.2172 42.0034 26.0071L32.4259 14.1341C32.37 14.0771 32.3143 14.0204 32.2584 13.9631L31.6293 13.4388L31.6289 13.439L29.4605 42.1531L29.4652 42.1684L29.7346 42.0938Z" fill="#FEDE51"/>
<path d="M16.9085 1.79883C16.8462 1.81798 16.7798 1.80215 16.7203 1.83183L7.22141 6.61117C6.99159 6.72605 6.80525 6.91239 6.69037 7.14221L2.33411 15.7757L29.4652 42.1685L16.9085 1.79883Z" fill="#FD9F4B"/>
</svg>
