<svg width="44" height="44" viewBox="0 0 44 44" fill="none" xmlns="http://www.w3.org/2000/svg">
<path d="M17.4167 8.73008L15.8889 21.9999L17.4167 35.2698L19.7084 36.6666L22 35.2698L23.5278 21.9999L22 8.73008L19.7084 7.33325L17.4167 8.73008Z" fill="#FD9F4B"/>
<path d="M22 35.2698L24.2917 36.6666L26.5833 35.2698L28.1111 21.9999L26.5833 8.73008L24.2917 7.33325L22 8.73008V35.2698Z" fill="#FF884D"/>
<path d="M17.4167 8.7301H22.0001L23.5278 5.23804L22.0001 1.74597H9.77783L13.5973 7.33327L17.4167 8.7301ZM17.4167 35.2698L13.5973 36.6666L9.77783 42.2539H22.0001L23.5278 38.7618L22.0001 35.2698H17.4167Z" fill="#FEDE51"/>
<path d="M26.5833 8.7301L30.4028 7.33327L34.2222 1.74597H22V8.7301H26.5833ZM26.5833 35.2698H22V42.2539H34.2222L30.4028 36.6666L26.5833 35.2698Z" fill="#FEBD4E"/>
<path d="M26.5834 35.2698L34.2223 42.2539V1.74597L26.5834 8.7301V35.2698Z" fill="#FD9F4B"/>
<path d="M9.77783 1.74597V42.2539L17.4167 35.2698V8.7301L9.77783 1.74597Z" fill="#FEBD4E"/>
</svg>
