<svg width="40" height="40" viewBox="0 0 40 40" fill="none" xmlns="http://www.w3.org/2000/svg">
<path d="M24.901 17.3287L33.4288 11.9151L33.425 11.9086C34.0376 12.2843 34.7575 12.4462 35.472 12.369C36.1865 12.2917 36.8551 11.9796 37.3732 11.4816C37.8913 10.9836 38.2296 10.3278 38.3351 9.61696C38.4405 8.9061 38.3072 8.18034 37.9559 7.55338C37.6047 6.92642 37.0554 6.43369 36.3941 6.15235C35.7329 5.87102 34.9969 5.81699 34.3017 5.99873C33.6064 6.18047 32.991 6.58771 32.552 7.15665C32.113 7.72559 31.8751 8.42409 31.8756 9.14273L31.8733 9.13852L23.4846 14.4638L24.901 17.3287Z" fill="url(#paint0_linear_745_17)"/>
<path d="M2.7285 24.3447C3.04918 18.2589 10.4714 12.2845 14.2861 9.603C16.6248 7.95919 21.4195 7.71081 25.9199 14.8001C30.4204 21.8894 28.1552 26.1226 25.6727 27.5393C22.3996 29.4075 16.1775 32.4922 10.9318 32.3933L10.4861 32.37C6.1944 32.1463 2.80657 28.6415 2.7285 24.3447V24.3447Z" fill="url(#paint1_linear_745_17)"/>
<path d="M12.899 17.6183L16.3739 15.7785C16.4359 15.7457 16.5053 15.7294 16.5754 15.7312C16.6456 15.733 16.714 15.7529 16.7742 15.7889C16.8345 15.8249 16.8844 15.8758 16.9192 15.9367C16.954 15.9976 16.9725 16.0665 16.9729 16.1367L16.9949 19.5555C16.9953 19.6212 17.0116 19.6859 17.0424 19.744C17.0733 19.8021 17.1177 19.8519 17.1719 19.8891C17.2261 19.9264 17.2884 19.9499 17.3537 19.9579C17.419 19.9658 17.4852 19.9578 17.5468 19.9347L18.7677 19.475C18.8387 19.4484 18.9158 19.442 18.9903 19.4567C19.0647 19.4714 19.1336 19.5066 19.1892 19.5583C19.2447 19.61 19.2848 19.6762 19.3048 19.7494C19.3248 19.8226 19.324 19.8999 19.3025 19.9727L17.3737 26.4962C17.3475 26.5847 17.292 26.6617 17.2163 26.7147C17.1407 26.7676 17.0493 26.7933 16.9571 26.7875C16.865 26.7818 16.7775 26.745 16.7089 26.6831C16.6404 26.6212 16.5949 26.5379 16.5799 26.4468L15.9727 22.7574C15.962 22.6924 15.9357 22.6309 15.8961 22.5783C15.8564 22.5256 15.8046 22.4834 15.7451 22.4551C15.6855 22.4269 15.62 22.4135 15.5542 22.416C15.4883 22.4186 15.4241 22.4371 15.3669 22.4699L14.1551 23.1657C14.0984 23.1983 14.0346 23.2167 13.9692 23.2195C13.9038 23.2223 13.8387 23.2092 13.7794 23.1816C13.7201 23.1539 13.6683 23.1123 13.6284 23.0605C13.5886 23.0086 13.5617 22.9478 13.5503 22.8834L12.688 18.0507C12.6728 17.9656 12.685 17.8779 12.7229 17.8001C12.7607 17.7224 12.8225 17.6587 12.899 17.6183Z" fill="url(#paint2_linear_745_17)"/>
<defs>
<linearGradient id="paint0_linear_745_17" x1="37.5302" y1="13.2513" x2="24.4101" y2="10.3206" gradientUnits="userSpaceOnUse">
<stop stop-color="#8F84A6"/>
<stop offset="0.263" stop-color="#86799E"/>
<stop offset="0.495" stop-color="#7A6C95"/>
<stop offset="0.632" stop-color="#766791"/>
<stop offset="0.795" stop-color="#695987"/>
<stop offset="0.969" stop-color="#534176"/>
<stop offset="1" stop-color="#4F3C73"/>
</linearGradient>
<linearGradient id="paint1_linear_745_17" x1="28.3386" y1="23.723" x2="3.96557" y2="18.2788" gradientUnits="userSpaceOnUse">
<stop stop-color="#ADADC0"/>
<stop offset="0.001" stop-color="#ADADC0"/>
<stop offset="0.634" stop-color="#9191AF"/>
<stop offset="1" stop-color="#8686A8"/>
</linearGradient>
<linearGradient id="paint2_linear_745_17" x1="12.1685" y1="20.2312" x2="18.9097" y2="21.737" gradientUnits="userSpaceOnUse">
<stop stop-color="#F9C47A"/>
<stop offset="0.365" stop-color="#F9CA7A"/>
<stop offset="0.83" stop-color="#FAD97A"/>
<stop offset="1" stop-color="#FBE17A"/>
</linearGradient>
</defs>
</svg>
