<svg width="24" height="24" viewBox="0 0 24 24" fill="none" xmlns="http://www.w3.org/2000/svg">
<g clip-path="url(#clip0_737_22)">
<path d="M21.4667 6.52285C21.4549 5.91261 21.4442 5.33658 21.4442 4.7793C21.4442 4.34248 21.0903 3.98861 20.6535 3.98861C17.2718 3.98861 14.6968 3.01654 12.5507 0.929909C12.4035 0.786013 12.2058 0.705574 12 0.705872C11.8008 0.705872 11.602 0.780395 11.4483 0.929909C9.30215 3.01654 6.72808 3.98861 3.34644 3.98861C2.91009 3.98861 2.55575 4.34248 2.55575 4.7793C2.55575 5.33658 2.54497 5.91307 2.53325 6.52332C2.42499 12.1992 2.27641 19.973 11.7408 23.2534C11.8247 23.2824 11.9118 23.297 11.9995 23.297H12C12.0876 23.297 12.1748 23.2824 12.2582 23.2534C21.7235 19.973 21.5749 12.1987 21.4667 6.52285Z" fill="#506473"/>
<path d="M12.2583 23.2534C12.1748 23.2824 12.0876 23.297 12 23.297V0.705872C12.1987 0.705872 12.3975 0.780394 12.5507 0.929908C14.6969 3.01654 17.2719 3.98861 20.6535 3.98861C21.0903 3.98861 21.4442 4.34248 21.4442 4.7793C21.4442 5.33658 21.455 5.91261 21.4667 6.52285C21.575 12.1987 21.7235 19.973 12.2583 23.2534Z" fill="#3C505A"/>
<path d="M22.1697 6.50924L22.1693 6.48627C22.158 5.88822 22.1472 5.32297 22.1472 4.77928C22.1472 3.95532 21.477 3.28555 20.6535 3.28555C17.4664 3.28555 15.0474 2.37675 13.041 0.426044C12.749 0.142015 12.3745 0 12 0C11.625 0 11.2501 0.142015 10.9581 0.426044C8.95206 2.37675 6.53312 3.28555 3.34647 3.28555C2.52297 3.28555 1.85273 3.95532 1.85273 4.77928C1.85273 5.33469 1.84195 5.90556 1.83024 6.50971C1.77634 9.33125 1.70931 12.8427 2.88761 16.0303C3.53582 17.7832 4.5168 19.3065 5.80383 20.5574C7.26991 21.9827 9.18969 23.1132 11.5102 23.9175C11.6681 23.9723 11.8327 24 11.9995 24H12C12.1668 24 12.3314 23.9723 12.4888 23.9175C14.8093 23.1132 16.7296 21.9827 18.1957 20.5574C19.4827 19.306 20.4637 17.7828 21.1119 16.0303C22.2907 12.8427 22.2236 9.33078 22.1697 6.50924ZM19.793 15.5424C18.5505 18.9039 16.0106 21.2089 12.0276 22.5892C12.0187 22.5925 12.0098 22.5944 12 22.5944C11.9901 22.5944 11.9803 22.5925 11.9709 22.5892C7.98889 21.2089 5.4495 18.9039 4.20652 15.5429C3.12055 12.6041 3.18195 9.38093 3.23632 6.53642C3.24804 5.92524 3.25882 5.34781 3.25882 4.77928C3.25882 4.73101 3.29819 4.69164 3.34647 4.69164C6.92261 4.69164 9.65276 3.65629 11.9386 1.43374C11.9555 1.41733 11.9775 1.4089 11.9995 1.4089H12C12.022 1.4089 12.0436 1.41733 12.0609 1.43374C14.3463 3.65629 17.0769 4.69164 20.6535 4.69164C20.7018 4.69164 20.7411 4.73101 20.7411 4.77928C20.7411 5.33609 20.7519 5.9079 20.7632 6.51299L20.7636 6.53595C20.7758 7.17057 20.7885 7.8244 20.7885 8.48947C20.7885 10.8048 20.6371 13.2594 19.793 15.5424Z" fill="white"/>
<path d="M16.837 10.1297V12.9358C16.837 13.1945 16.6275 13.4045 16.3683 13.4045H13.872V15.9013C13.872 16.16 13.662 16.37 13.4033 16.37H10.5972C10.3385 16.37 10.1285 16.16 10.1285 15.9013V13.4045H7.63172C7.37253 13.4045 7.16302 13.1945 7.16302 12.9358V10.1297C7.16302 9.87103 7.37253 9.66105 7.63172 9.66105H10.1285V7.16431C10.1285 6.90559 10.3385 6.69562 10.5972 6.69562H13.4033C13.662 6.69562 13.872 6.90559 13.872 7.16431V9.66105H16.3683C16.6275 9.66105 16.837 9.87103 16.837 10.1297Z" fill="white"/>
<path d="M16.837 10.1297V12.9358C16.837 13.1945 16.6275 13.4045 16.3683 13.4045H13.872V15.9013C13.872 16.16 13.662 16.37 13.4033 16.37H12V6.69562H13.4033C13.662 6.69562 13.872 6.90559 13.872 7.16431V9.66105H16.3683C16.6275 9.66105 16.837 9.87103 16.837 10.1297Z" fill="white"/>
<path d="M21.1119 16.0303C20.4637 17.7828 19.4827 19.306 18.1957 20.5574C16.7296 21.9827 14.8094 23.1132 12.4888 23.9175C12.3317 23.9722 12.1664 24.0001 12 24V22.5944C12.0098 22.5944 12.0187 22.5925 12.0277 22.5892C16.0106 21.2089 18.5505 18.9039 19.793 15.5424C20.6371 13.2594 20.7885 10.8048 20.7885 8.48947C20.7885 7.8244 20.7758 7.17057 20.7637 6.53595L20.7632 6.51299C20.7519 5.9079 20.7412 5.33609 20.7412 4.77928C20.7412 4.73101 20.7018 4.69164 20.6535 4.69164C17.0769 4.69164 14.3463 3.65629 12.0609 1.43374C12.0436 1.41733 12.022 1.4089 12 1.4089V0C12.3745 0 12.749 0.142015 13.041 0.426044C15.0475 2.37675 17.4664 3.28555 20.6535 3.28555C21.477 3.28555 22.1472 3.95532 22.1472 4.77928C22.1472 5.32297 22.158 5.88822 22.1693 6.48627L22.1697 6.50924C22.2236 9.33078 22.2907 12.8427 21.1119 16.0303Z" fill="white"/>
</g>
<defs>
<clipPath id="clip0_737_22">
<rect width="24" height="24" fill="white"/>
</clipPath>
</defs>
</svg>
