<svg width="40" height="40" viewBox="0 0 40 40" fill="none" xmlns="http://www.w3.org/2000/svg">
<path d="M36.875 20H21.25C20.9185 20 20.6005 20.1317 20.3661 20.3661C20.1317 20.6005 20 20.9185 20 21.25V36.875C20 37.2065 20.1317 37.5245 20.3661 37.7589C20.6005 37.9933 20.9185 38.125 21.25 38.125H36.875C37.2065 38.125 37.5245 37.9933 37.7589 37.7589C37.9933 37.5245 38.125 37.2065 38.125 36.875V21.25C38.125 20.9185 37.9933 20.6005 37.7589 20.3661C37.5245 20.1317 37.2065 20 36.875 20Z" fill="#E47C5E"/>
<path d="M18.75 20H3.125C2.79348 20 2.47554 20.1317 2.24112 20.3661C2.0067 20.6005 1.875 20.9185 1.875 21.25V36.875C1.875 37.2065 2.0067 37.5245 2.24112 37.7589C2.47554 37.9933 2.79348 38.125 3.125 38.125H18.75C19.0815 38.125 19.3995 37.9933 19.6339 37.7589C19.8683 37.5245 20 37.2065 20 36.875V21.25C20 20.9185 19.8683 20.6005 19.6339 20.3661C19.3995 20.1317 19.0815 20 18.75 20Z" fill="#D15853"/>
<path d="M5 20H8.75V26.25H5V20Z" fill="#EFE2D0"/>
<path d="M36.875 1.875H21.25C20.9185 1.875 20.6005 2.0067 20.3661 2.24112C20.1317 2.47554 20 2.79348 20 3.125V18.75C20 19.0815 20.1317 19.3995 20.3661 19.6339C20.6005 19.8683 20.9185 20 21.25 20H36.875C37.2065 20 37.5245 19.8683 37.7589 19.6339C37.9933 19.3995 38.125 19.0815 38.125 18.75V3.125C38.125 2.79348 37.9933 2.47554 37.7589 2.24112C37.5245 2.0067 37.2065 1.875 36.875 1.875Z" fill="#D15853"/>
<path d="M23.125 1.875H26.875V8.125H23.125V1.875Z" fill="#EFE2D0"/>
<path d="M18.75 1.875H3.125C2.79348 1.875 2.47554 2.0067 2.24112 2.24112C2.0067 2.47554 1.875 2.79348 1.875 3.125V18.75C1.875 19.0815 2.0067 19.3995 2.24112 19.6339C2.47554 19.8683 2.79348 20 3.125 20H18.75C19.0815 20 19.3995 19.8683 19.6339 19.6339C19.8683 19.3995 20 19.0815 20 18.75V3.125C20 2.79348 19.8683 2.47554 19.6339 2.24112C19.3995 2.0067 19.0815 1.875 18.75 1.875Z" fill="#E47C5E"/>
<path d="M5 1.875H8.75V8.125H5V1.875Z" fill="#EFE2D0"/>
</svg>
