<svg width="22" height="22" viewBox="0 0 22 22" fill="none" xmlns="http://www.w3.org/2000/svg">
<path d="M10.9998 21.2304C12.2501 21.2304 13.3022 20.2941 13.4474 19.0523L14.1512 13.0318L15.6253 13.4994C17.8541 14.2065 19.7224 11.7023 18.4097 9.76727L13.0392 1.85049C12.0616 0.409403 9.93831 0.40936 8.96072 1.85045L3.5901 9.7671C2.27741 11.7021 4.14569 14.2064 6.37448 13.4994L7.84856 13.0317L8.5523 19.0523C8.69745 20.2941 9.74959 21.2304 10.9998 21.2304Z" fill="#FFB612"/>
<path d="M13.4624 1.5632C13.1899 1.16094 12.823 0.831606 12.3938 0.60405C11.9645 0.376494 11.486 0.257654 11.0002 0.257935C10.5142 0.257591 10.0357 0.376402 9.60632 0.603959C9.17698 0.831517 8.80999 1.16088 8.53749 1.5632L3.16704 9.47972C2.44474 10.5442 2.4752 11.8984 3.24396 12.93C4.01323 13.961 5.30251 14.3761 6.52935 13.987L7.41253 13.7067L8.04443 19.1116C8.21927 20.6112 9.49007 21.7421 10.9996 21.7421C12.5092 21.7421 13.78 20.6112 13.9554 19.1116L14.5873 13.7067L15.4705 13.987C16.6988 14.3761 17.9866 13.961 18.7554 12.93C19.5252 11.8989 19.5551 10.5447 18.8328 9.48023L13.4624 1.5632ZM17.9357 12.3185C17.534 12.857 16.7538 13.3216 15.7802 13.0119L14.306 12.5443C14.1592 12.4984 14.0018 12.5194 13.8734 12.6023C13.8102 12.6433 13.7568 12.6977 13.717 12.7616C13.6772 12.8256 13.652 12.8976 13.6432 12.9724L12.9393 18.9927C12.824 19.9768 11.9902 20.7191 10.9997 20.7191C10.0091 20.7191 9.17541 19.9768 9.06051 18.9927L8.35668 12.9724C8.3479 12.8976 8.32271 12.8256 8.2829 12.7616C8.2431 12.6977 8.18966 12.6432 8.12641 12.6023C8.06303 12.5613 7.99138 12.5349 7.91659 12.5249C7.84181 12.5149 7.76573 12.5215 7.6938 12.5443L6.21967 13.0119C5.24458 13.3221 4.46582 12.856 4.06419 12.318C3.66256 11.7795 3.43826 10.9019 4.01323 10.0542L9.38372 2.13765C9.75338 1.59315 10.3423 1.28094 11.0002 1.28094C11.6576 1.28094 12.2465 1.59315 12.6162 2.13765L17.9866 10.0547C18.5615 10.9024 18.3372 11.78 17.9357 12.3185Z" fill="#E7A000"/>
</svg>
