<svg width="40" height="40" viewBox="0 0 40 40" fill="none" xmlns="http://www.w3.org/2000/svg">
<path d="M30.8337 30.2878C30.8332 29.0937 31.713 28.0819 32.8956 27.9165C32.5091 26.5874 31.8064 25.3717 30.8478 24.3732C30.036 25.4162 28.5326 25.6035 27.4897 24.7918C27.079 24.4721 26.7837 24.0272 26.6486 23.5246C26.5135 23.022 26.546 22.489 26.7411 22.0065C25.3979 21.6731 23.9937 21.6731 22.6505 22.0065C23.1394 23.2342 22.5405 24.6259 21.3127 25.1149C20.8336 25.3056 20.3056 25.3365 19.8075 25.2029C19.3094 25.0693 18.8677 24.7783 18.5484 24.3734C17.5895 25.3716 16.8868 26.5874 16.5006 27.9166C17.8081 28.0976 18.7211 29.3043 18.5401 30.6117C18.4684 31.1297 18.2287 31.61 17.8579 31.9787C17.4935 32.3499 17.0161 32.5895 16.5007 32.6598C16.6945 33.3216 16.9664 33.9579 17.3105 34.5554C17.6567 35.1504 18.0706 35.7033 18.544 36.2031C19.359 35.1607 20.8647 34.9762 21.9071 35.7912C22.3166 36.1114 22.6109 36.556 22.7455 37.058C22.8802 37.5601 22.8479 38.0923 22.6536 38.5744C23.9968 38.9077 25.4011 38.9077 26.7442 38.5744C26.2471 37.3493 26.8372 35.9532 28.0622 35.456C28.545 35.2601 29.0785 35.227 29.5818 35.3619C30.0851 35.4967 30.5306 35.792 30.8508 36.2031C31.8097 35.2049 32.5124 33.9891 32.8986 32.6598C31.7147 32.4954 30.8333 31.483 30.8337 30.2878Z" fill="#F9C47A"/>
<path d="M36.953 14.0155H29.6763C29.6139 17.4636 28.5878 20.8255 26.714 23.7207C26.5093 23.1658 26.5195 22.5543 26.7426 22.0065C25.3994 21.6731 23.9952 21.6731 22.652 22.0065C23.1431 23.2334 22.5465 24.6261 21.3196 25.1172C20.8394 25.3094 20.3098 25.3408 19.8102 25.2067C19.3106 25.0726 18.8679 24.7802 18.5485 24.3733C17.5895 25.3716 16.8868 26.5874 16.5007 27.9166C17.8081 28.0976 18.7212 29.3042 18.5402 30.6117C18.4685 31.1297 18.2288 31.61 17.8579 31.9787C17.4152 32.2216 16.963 32.4455 16.5008 32.6598C12.2853 34.6244 7.53764 35.1368 3 34.1172C11.9655 31.5433 18.1425 23.3433 18.1425 14.0157H10.918L23.933 1L36.953 14.0155Z" fill="#A164DD"/>
</svg>
