<svg width="40" height="40" viewBox="0 0 40 40" fill="none" xmlns="http://www.w3.org/2000/svg">
<path d="M29.125 6H11.875C10.2894 6 9 7.28944 9 8.875V31.875C9 33.4606 10.2894 34.75 11.875 34.75H29.125C30.7106 34.75 32 33.4606 32 31.875V8.875C32 7.28944 30.7106 6 29.125 6Z" fill="#BBDEFB"/>
<path d="M16.1876 14.6251H20.5001C20.8813 14.6251 21.2469 14.4736 21.5165 14.204C21.7861 13.9344 21.9376 13.5688 21.9376 13.1876C21.9376 12.8063 21.7861 12.4407 21.5165 12.1711C21.2469 11.9015 20.8813 11.7501 20.5001 11.7501H16.1876C15.8063 11.7501 15.4407 11.9015 15.1711 12.1711C14.9015 12.4407 14.7501 12.8063 14.7501 13.1876C14.7501 13.5688 14.9015 13.9344 15.1711 14.204C15.4407 14.4736 15.8063 14.6251 16.1876 14.6251ZM16.1876 24.6876H24.8126C25.1938 24.6876 25.5594 24.5361 25.829 24.2665C26.0986 23.9969 26.2501 23.6313 26.2501 23.2501C26.2501 22.8688 26.0986 22.5032 25.829 22.2336C25.5594 21.964 25.1938 21.8126 24.8126 21.8126H16.1876C15.8063 21.8126 15.4407 21.964 15.1711 22.2336C14.9015 22.5032 14.7501 22.8688 14.7501 23.2501C14.7501 23.6313 14.9015 23.9969 15.1711 24.2665C15.4407 24.5361 15.8063 24.6876 16.1876 24.6876ZM16.1876 20.3751H24.8126C25.1938 20.3751 25.5594 20.2236 25.829 19.954C26.0986 19.6844 26.2501 19.3188 26.2501 18.9376C26.2501 18.5563 26.0986 18.1907 25.829 17.9211C25.5594 17.6515 25.1938 17.5001 24.8126 17.5001H16.1876C15.8063 17.5001 15.4407 17.6515 15.1711 17.9211C14.9015 18.1907 14.7501 18.5563 14.7501 18.9376C14.7501 19.3188 14.9015 19.6844 15.1711 19.954C15.4407 20.2236 15.8063 20.3751 16.1876 20.3751ZM16.1876 29.0001H24.8126C25.1938 29.0001 25.5594 28.8486 25.829 28.579C26.0986 28.3094 26.2501 27.9438 26.2501 27.5626C26.2501 27.1813 26.0986 26.8157 25.829 26.5461C25.5594 26.2765 25.1938 26.1251 24.8126 26.1251H16.1876C15.8063 26.1251 15.4407 26.2765 15.1711 26.5461C14.9015 26.8157 14.7501 27.1813 14.7501 27.5626C14.7501 27.9438 14.9015 28.3094 15.1711 28.579C15.4407 28.8486 15.8063 29.0001 16.1876 29.0001Z" fill="#64B5F6"/>
</svg>
