<svg width="44" height="44" viewBox="0 0 44 44" fill="none" xmlns="http://www.w3.org/2000/svg">
<path d="M5.41379 22.0255C5.41379 21.819 5.39052 21.618 5.34586 21.4253L5.36726 21.4207L10.9506 22.3512L16.319 31.3765L22.1172 31.3765L22.1172 38.1706L22.1117 38.3596C22.0827 38.3578 22.0529 38.3567 22.0242 38.3567C20.5531 38.3567 19.3583 39.5337 19.3274 40.9968C16.0017 40.5788 12.9418 39.308 10.3719 37.4102C11.3897 36.3542 11.3787 34.6727 10.3362 33.6317C9.28284 32.5783 7.57621 32.5772 6.52319 33.6294C4.5734 31.0864 3.24736 28.0425 2.77185 24.7223C4.2357 24.6925 5.41379 23.497 5.41379 22.0255Z" fill="#37B1EB"/>
<path d="M40.7588 24.4281C40.3423 27.6999 39.0987 30.7131 37.2482 33.2546C36.1882 32.3843 34.62 32.444 33.6299 33.4342C32.6193 34.4447 32.5787 36.0565 33.5063 37.1164C31.0003 39.0665 27.9974 40.4075 24.7191 40.9186C24.6501 39.5209 23.5159 38.4032 22.1117 38.3596L22.1172 38.1705L22.1172 31.3764L27.1709 31.3764L32.5971 21.9789L38.3553 21.9975L38.3665 21.9967C38.4836 23.2715 39.4897 24.2914 40.7587 24.4282L40.7588 24.4281Z" fill="#37B1EB"/>
<path d="M33.433 10.1406C34.4053 11.1137 35.936 11.1875 36.9949 10.3638C38.897 12.8577 40.2028 15.8308 40.696 19.0718C39.3744 19.2476 38.3554 20.3774 38.3554 21.7464C38.3554 21.831 38.3592 21.9139 38.3667 21.9968L38.3554 21.9975L32.5973 21.979L27.171 12.5804L21.6407 12.5804L21.5691 5.40862C21.6269 5.41328 21.6854 5.41514 21.7451 5.41514C23.1409 5.41514 24.2881 4.35626 24.4288 2.99756C27.6828 3.45372 30.6755 4.7256 33.192 6.60085C32.3868 7.65861 32.4668 9.1743 33.433 10.1406Z" fill="#37B1EB"/>
<path d="M21.6407 12.5804L27.1709 12.5804L32.5972 21.979L27.1709 31.3765L16.3189 31.3765L10.9505 22.3512L5.36722 21.4207L5.34582 21.4253C5.0768 20.2371 4.02341 19.3483 2.75879 19.328C3.21569 16.0223 4.51595 12.986 6.43448 10.4431C7.49438 11.3903 9.12219 11.3558 10.1392 10.338C11.1552 9.32272 11.1916 7.69797 10.249 6.639C12.7753 4.74235 15.7858 3.45623 19.0613 2.99756C19.1961 4.29847 20.2543 5.32497 21.569 5.40862L21.6407 12.5804Z" fill="black"/>
<path d="M15.098 30.9529C14.9373 30.7928 14.8163 30.5972 14.7446 30.3819C14.6729 30.1665 14.6524 29.9373 14.6849 29.7125L15.3776 24.8905C15.4226 24.5774 15.5678 24.2873 15.7915 24.0636C16.0153 23.8398 16.3054 23.6946 16.6184 23.6496L21.4405 22.957C22.2394 22.8423 22.9791 23.3968 23.0926 24.1955C23.206 24.9943 22.6504 25.7349 21.8515 25.8496L18.1143 26.3864L17.5775 30.1235C17.4628 30.9225 16.7222 31.4781 15.9234 31.3647C15.6108 31.3207 15.321 31.1762 15.098 30.9529ZM19.2258 35.0807C19.0102 34.8652 18.8603 34.5804 18.8141 34.2553C18.7006 33.4565 19.2562 32.7159 20.0552 32.6012L23.7923 32.0644L24.3291 28.3272C24.4438 27.5283 25.1845 26.9727 25.9832 27.0861C26.7821 27.1996 27.3366 27.9392 27.2217 28.7382L26.5291 33.5603C26.4841 33.8733 26.3389 34.1634 26.1151 34.3872C25.8914 34.6109 25.6013 34.7562 25.2883 34.8011L20.4662 35.4938C20.2414 35.5262 20.0122 35.5058 19.7969 35.4341C19.5815 35.3624 19.386 35.2414 19.2258 35.0807Z" fill="#F9C47A"/>
<path d="M26.8061 31.6314L18.5472 23.3725C17.977 22.8024 17.9778 21.8772 18.5488 21.3061L20.339 19.516C22.5302 17.3248 25.432 15.9283 28.5096 15.5839C30.1839 15.3966 31.8267 15.9717 33.0168 17.1618C34.2069 18.3519 34.782 19.9947 34.5946 21.669C34.2503 24.7466 32.8538 27.6484 30.6626 29.8396L28.8724 31.6297C28.3014 32.2008 27.3762 32.2015 26.8061 31.6314Z" fill="#FF4E51"/>
</svg>
