<svg width="44" height="44" viewBox="0 0 44 44" fill="none" xmlns="http://www.w3.org/2000/svg">
<path d="M5.41379 22.0256C5.41379 21.8191 5.39052 21.6181 5.34586 21.4254L5.36726 21.4208L10.9506 22.3513L16.319 31.3766H22.1172V38.1707L22.1117 38.3597C22.0827 38.3579 22.0529 38.3569 22.0242 38.3569C20.5531 38.3569 19.3583 39.5338 19.3274 40.9969C16.0017 40.5789 12.9418 39.3082 10.3719 37.4103C11.3897 36.3543 11.3787 34.6728 10.3362 33.6318C9.28284 32.5784 7.57621 32.5773 6.52319 33.6295C4.5734 31.0865 3.24736 28.0426 2.77185 24.7224C4.2357 24.6926 5.41379 23.4971 5.41379 22.0256Z" fill="#46B3AC"/>
<path d="M40.7588 24.4282C40.3423 27.7 39.0987 30.7132 37.2482 33.2547C36.1882 32.3845 34.62 32.4441 33.6299 33.4343C32.6193 34.4448 32.5787 36.0566 33.5063 37.1165C31.0003 39.0667 27.9974 40.4076 24.7191 40.9188C24.6501 39.5211 23.5159 38.4033 22.1117 38.3597L22.1172 38.1706V31.3765H27.1709L32.5971 21.979L38.3553 21.9976L38.3665 21.9968C38.4836 23.2716 39.4897 24.2915 40.7587 24.4283L40.7588 24.4282Z" fill="#46B3AC"/>
<path d="M33.4329 10.1407C34.4052 11.1138 35.9359 11.1876 36.9948 10.3639C38.8969 12.8578 40.2027 15.8309 40.6959 19.0719C39.3743 19.2478 38.3553 20.3775 38.3553 21.7465C38.3553 21.8312 38.359 21.914 38.3666 21.9969L38.3553 21.9976L32.5971 21.9791L27.1709 12.5805H21.6406L21.569 5.40875C21.6268 5.4134 21.6853 5.41526 21.7449 5.41526C23.1408 5.41526 24.288 4.35638 24.4287 2.99768C27.6827 3.45384 30.6754 4.72572 33.1919 6.60097C32.3867 7.65873 32.4667 9.17442 33.4329 10.1407Z" fill="#46B3AC"/>
<path d="M21.6407 12.5805H27.1709L32.5972 21.9791L27.1709 31.3766H16.3189L10.9505 22.3513L5.36722 21.4208L5.34582 21.4254C5.0768 20.2372 4.02341 19.3484 2.75879 19.3282C3.21569 16.0225 4.51595 12.9861 6.43448 10.4432C7.49438 11.3904 9.12219 11.3559 10.1392 10.3381C11.1552 9.32284 11.1916 7.69809 10.249 6.63912C12.7753 4.74247 15.7858 3.45635 19.0613 2.99768C19.1961 4.29859 20.2543 5.32509 21.569 5.40875L21.6407 12.5805Z" fill="black"/>
<path d="M29.0262 30.7977L29.9129 27.902L22.461 34.2229L23.5796 30.0611L14 37L20.9388 27.4204L16.7772 28.5391L23.098 21.0871L20.2023 21.9738C20.2023 21.9738 27.9718 10.667 34.1524 16.8476C40.333 23.0281 29.0262 30.7977 29.0262 30.7977Z" fill="#F9C47A"/>
</svg>
