<svg width="40" height="40" viewBox="0 0 40 40" fill="none" xmlns="http://www.w3.org/2000/svg">
<path d="M37.9999 13.6366V6.72743C37.9999 4.71944 36.3715 3.09106 34.3636 3.09106H29.0194C25.3148 7.34709 24.3655 12.673 27.4653 17.2729H34.3636C36.3715 17.2729 37.9999 15.6445 37.9999 13.6366Z" fill="#EFEDFF"/>
<path d="M29.0193 3.09106H18.7272V17.2729H27.4654C26.76 12.8016 27.2964 7.47204 29.0193 3.09106Z" fill="#D8D6FF"/>
<path d="M32.3315 14.6829C34.4188 14.1701 35.818 13.2254 35.818 12.1454C35.818 11.2734 34.9053 10.4894 33.4551 9.95053L27.356 9.9364C25.3065 11.6944 25.5893 13.4038 27.2178 15.0237C28.8907 15.1743 30.7261 15.0765 32.3315 14.6829Z" fill="#5B5F66"/>
<path d="M27.3562 9.93638L24.0574 9.92871C22.5738 10.4684 21.6364 11.2611 21.6364 12.1455C21.6364 13.2255 23.0356 14.1702 25.1229 14.6829C25.7631 14.8399 26.4687 14.9561 27.218 15.0236C27.1157 13.4338 27.1508 11.7306 27.3562 9.93638Z" fill="#393E46"/>
<path d="M32.4815 11.5746C33.1578 11.4619 33.6139 10.8204 33.491 10.1455L33.2939 9.06115C32.8619 6.69105 30.6816 5.04714 28.2723 5.29886C26.7548 7.31121 26.2326 9.52578 27.2 11.8293C28.9113 11.9351 30.8087 11.8526 32.4815 11.5746Z" fill="#63DAFC"/>
<path d="M28.2722 5.29883C26.2543 5.5097 24.5853 7.02711 24.2151 9.06112L24.0581 9.92878H24.0574L24.0174 10.1513C23.8959 10.8189 24.3388 11.4612 25.0071 11.5768C25.6644 11.6907 26.3946 11.7795 27.1998 11.8293C27.3133 9.58094 27.68 7.35857 28.2722 5.29883Z" fill="#20CAFB"/>
<path d="M19.4543 21.7477C18.5394 21.7741 17.6277 21.8691 16.7271 22.032V3.36364C16.7271 2.61017 17.3373 2 18.0907 2C18.844 2 19.4543 2.61017 19.4543 3.36364V21.7477Z" fill="#E7896E"/>
<path d="M37.9482 35.395C37.9467 35.3862 37.9446 35.3775 37.9424 35.3688C37.312 32.5411 36.0231 29.9127 34.162 27.6706L20.3707 22.6039C15.9193 27.1621 14.611 32.7092 19.1003 38H35.8443C37.2159 38 38.2457 36.7331 37.9482 35.395Z" fill="#D1B5FF"/>
<path d="M20.3708 22.6039L16.7992 21.2917C15.0891 21.6027 13.4932 22.1013 11.8675 22.9027H11.8668L5.44277 28.1638C3.79741 30.2868 2.64137 32.7471 2.05728 35.3688C2.055 35.3775 2.05306 35.3862 2.05145 35.395C1.75409 36.7333 2.78389 38.0002 4.15555 38.0002H19.1004C18.1424 32.9249 18.6708 27.3302 20.3708 22.6039Z" fill="#C4A6F3"/>
<path d="M11.8668 22.9026C13.2276 24.5338 13.1424 26.9629 11.6115 28.4946C9.86499 30.2411 6.9859 30.0836 5.44275 28.1637C7.12224 25.9923 9.31199 24.1625 11.8668 22.9026Z" fill="#A883E4"/>
<path d="M21.2173 32.9586C22.058 33.3877 22.9671 34.1055 23.8798 34.2488C24.8013 34.3942 25.9395 34.312 26.8609 34.1666C27.773 34.0226 28.2682 32.5484 29.1082 32.1193C29.9198 31.7062 31.1649 31.9411 31.8442 31.2625C32.5227 30.5832 33.3453 29.8771 33.7591 29.0661C33.9729 28.6465 34.0856 28.1621 34.162 27.6705C30.9448 23.7893 26.2276 21.3192 20.9889 21.0397C17.9543 23.3488 17.2529 26.7034 18.6973 30.7281C18.8311 30.8458 18.9616 30.9647 19.0842 31.0873C19.7634 31.7666 20.4057 32.5455 21.2173 32.9586Z" fill="#BA99F0"/>
<path d="M20.9889 21.0398C19.6071 20.966 18.2174 21.0416 16.7991 21.2917C16.9104 22.0233 17.3555 22.859 17.2522 23.5077C17.1075 24.4298 15.6922 25.3833 15.8383 26.3055C15.9809 27.2182 16.6441 28.1847 17.0725 29.0262C17.4116 29.6907 18.09 30.1946 18.6972 30.7282C18.9231 27.3975 19.6784 24.0654 20.9889 21.0398Z" fill="#A883E4"/>
</svg>
