<svg width="40" height="40" viewBox="0 0 40 40" fill="none" xmlns="http://www.w3.org/2000/svg">
<path d="M39.8228 22.4291C40.0734 23.2442 40.1736 24.5251 39.3216 25.9225C37.7681 28.4261 33.809 29.9981 31.604 30.755C27.9456 31.9777 23.786 32.5599 19.8771 32.5017C16.0183 32.4435 11.8587 31.6283 8.20035 30.2892C5.99529 29.4741 2.13645 27.7274 0.63301 25.1656C0.53278 24.9327 0.432551 24.758 0.332321 24.5251C-0.168827 23.3607 -0.0184825 22.3126 0.232091 21.6722C0.933699 19.5761 3.03852 17.8294 6.49644 16.4903C8.90195 15.5587 11.0569 15.1512 11.1571 15.1512L20.1277 15.3259L29.0982 15.5005H29.1483C29.449 15.5587 31.5037 16.0828 33.7088 17.0143C37.1166 18.5281 39.1713 20.333 39.8228 22.4291Z" fill="#393E46"/>
<path d="M6.94751 24.1176C7.9439 24.1176 8.75164 23.1792 8.75164 22.0216C8.75164 20.864 7.9439 19.9255 6.94751 19.9255C5.95111 19.9255 5.14337 20.864 5.14337 22.0216C5.14337 23.1792 5.95111 24.1176 6.94751 24.1176Z" fill="#2A2E33"/>
<path d="M6.94747 23.6519C7.72244 23.6519 8.35068 22.922 8.35068 22.0217C8.35068 21.1213 7.72244 20.3914 6.94747 20.3914C6.17249 20.3914 5.54425 21.1213 5.54425 22.0217C5.54425 22.922 6.17249 23.6519 6.94747 23.6519Z" fill="#FFC536"/>
<path d="M8.30053 22.0215C8.30053 22.8949 7.64904 23.6518 6.89732 23.5935C6.14559 23.5935 5.4941 22.8366 5.54422 21.9633C5.79479 22.2544 6.1456 22.4291 6.4964 22.4291C7.24812 22.4291 7.89961 21.7304 7.89961 20.8571C8.15019 21.1482 8.35065 21.5557 8.30053 22.0215Z" fill="#FFB612"/>
<path d="M15.467 28.2515C16.4634 28.2515 17.2711 27.313 17.2711 26.1554C17.2711 24.9978 16.4634 24.0594 15.467 24.0594C14.4706 24.0594 13.6628 24.9978 13.6628 26.1554C13.6628 27.313 14.4706 28.2515 15.467 28.2515Z" fill="#2A2E33"/>
<path d="M15.467 27.7856C16.242 27.7856 16.8702 27.0558 16.8702 26.1554C16.8702 25.255 16.242 24.5251 15.467 24.5251C14.692 24.5251 14.0638 25.255 14.0638 26.1554C14.0638 27.0558 14.692 27.7856 15.467 27.7856Z" fill="#FFC536"/>
<path d="M16.8702 26.2135C16.8702 27.0869 16.2187 27.8438 15.467 27.7856C14.7153 27.7856 14.0638 27.0287 14.1139 26.1553C14.3645 26.4464 14.7153 26.6211 15.0661 26.6211C15.8178 26.6211 16.4693 25.9224 16.4693 25.0491C16.7199 25.3402 16.8702 25.7478 16.8702 26.2135Z" fill="#FFB612"/>
<path d="M26.4421 29.2411C27.4385 29.2411 28.2463 28.3027 28.2463 27.1451C28.2463 25.9875 27.4385 25.0491 26.4421 25.0491C25.4457 25.0491 24.638 25.9875 24.638 27.1451C24.638 28.3027 25.4457 29.2411 26.4421 29.2411Z" fill="#2A2E33"/>
<path d="M26.4421 28.7754C27.2171 28.7754 27.8453 28.0455 27.8453 27.1451C27.8453 26.2448 27.2171 25.5149 26.4421 25.5149C25.6671 25.5149 25.0389 26.2448 25.0389 27.1451C25.0389 28.0455 25.6671 28.7754 26.4421 28.7754Z" fill="#FFC536"/>
<path d="M27.8454 27.1452C27.8454 28.0186 27.1939 28.7755 26.4422 28.7173C25.6905 28.7173 25.039 27.9604 25.0891 27.087C25.3397 27.3781 25.6905 27.5528 26.0413 27.5528C26.793 27.5528 27.4445 26.8541 27.4445 25.9808C27.695 26.2719 27.8454 26.6795 27.8454 27.1452Z" fill="#FFB612"/>
<path d="M35.0118 25.282C36.0082 25.282 36.8159 24.3436 36.8159 23.186C36.8159 22.0284 36.0082 21.09 35.0118 21.09C34.0154 21.09 33.2076 22.0284 33.2076 23.186C33.2076 24.3436 34.0154 25.282 35.0118 25.282Z" fill="#2A2E33"/>
<path d="M35.0117 24.8163C35.7867 24.8163 36.4149 24.0864 36.4149 23.186C36.4149 22.2857 35.7867 21.5558 35.0117 21.5558C34.2368 21.5558 33.6085 22.2857 33.6085 23.186C33.6085 24.0864 34.2368 24.8163 35.0117 24.8163Z" fill="#FFC536"/>
<path d="M36.415 23.1861C36.415 24.0595 35.7635 24.8164 35.0118 24.7582C34.2601 24.7582 33.6086 24.0013 33.6587 23.1279C33.9093 23.419 34.2601 23.5937 34.6109 23.5937C35.3626 23.5937 36.0141 22.895 36.0141 22.0217C36.2647 22.3128 36.415 22.7203 36.415 23.1861Z" fill="#FFB612"/>
<path d="M30.5014 15.9081L30.2509 16.4903C30.1506 16.7232 29.5994 17.8877 27.9957 19.0521C26.4922 20.1002 24.5879 20.7988 22.3828 21.0317C21.8316 21.0899 21.2302 21.0899 20.6288 21.1482H20.1277C19.7769 21.1482 19.4762 21.1482 19.1755 21.09C16.3189 20.9153 14.0137 20.1584 12.2596 18.8192C12.1093 18.7028 11.9589 18.5864 11.8587 18.4699C10.656 17.4219 10.2049 16.3739 10.1047 16.1992L9.85413 15.617L10.0546 14.9765C10.8564 12.6476 12.2596 10.6098 14.0638 9.21242C15.8679 7.81507 17.9727 7.05817 20.1277 7.05817H20.3782C22.5833 7.11639 24.7382 7.93151 26.5424 9.44532C26.843 9.67821 27.0936 9.9111 27.3442 10.2022C27.6449 10.4933 27.8955 10.8427 28.1961 11.1338C28.4968 11.4831 28.7474 11.8907 28.998 12.2983C29.5492 13.2298 30.0504 14.2778 30.3511 15.3259L30.5014 15.9081Z" fill="#20CAFB"/>
<path d="M27.244 10.0858L19.0752 21.0318C16.2187 20.8571 13.9134 20.1002 12.1594 18.7611C12.0091 18.6446 11.8587 18.5282 11.7585 18.4117L20.3281 7C22.5332 7.05822 24.6881 7.87335 26.4922 9.38715C26.7428 9.56182 26.9934 9.85293 27.244 10.0858ZM28.8977 12.2401L22.3828 20.9736C21.8316 21.0318 21.2302 21.0318 20.6288 21.09L28.146 11.0756C28.3966 11.425 28.6472 11.8325 28.8977 12.2401Z" fill="#63DAFC"/>
<path d="M30.5014 15.9082L30.2509 16.4904C30.1506 16.7233 29.5994 17.8878 27.9957 19.0522C26.0913 20.3913 23.5856 21.09 20.4785 21.09H20.0775C16.8201 21.0318 14.164 20.2167 12.2095 18.7611C10.656 17.5966 10.1548 16.3739 10.0546 16.1411L9.80402 15.5588L10.0045 14.9184L10.1548 14.569C10.4054 15.0348 10.9567 16.0246 12.2095 16.9562C14.164 18.47 16.8201 19.2269 20.0775 19.2851H20.4785C23.5856 19.2851 26.0913 18.5864 27.9957 17.2473C29.3488 16.3157 29.9502 15.2677 30.1506 14.8601C30.2007 14.9766 30.2509 15.1513 30.301 15.2677L30.5014 15.9082Z" fill="#2A2E33"/>
</svg>
