<svg width="93" height="93" viewBox="0 0 93 93" fill="none" xmlns="http://www.w3.org/2000/svg">
<g clip-path="url(#clip0_920_2)">
<path fill-rule="evenodd" clip-rule="evenodd" d="M2 46.4999C2 71.0765 21.9232 90.9998 46.4999 90.9999C71.0766 90.9999 90.9999 71.0768 91 46.5001C91 21.9233 71.0768 2.00006 46.5001 2C21.9234 1.99994 2.00012 21.9232 2 46.4999Z" fill={props.fill} fill-opacity="0.898039" stroke="#393E46" stroke-width="3" stroke-linecap="round" stroke-linejoin="round"/>
<path fill-rule="evenodd" clip-rule="evenodd" d="M10.8999 46.4998C10.8999 66.1611 26.8385 82.0997 46.4998 82.0998C66.1611 82.0999 82.0998 66.1613 82.0999 46.5C82.0999 26.8386 66.1613 10.9 46.5 10.8999C26.8387 10.8998 10.9 26.8385 10.8999 46.4998Z" fill={props.fill} fill-opacity="0.898039"/>
<path fill-rule="evenodd" clip-rule="evenodd" d="M25.7336 46.5002C25.7336 57.9693 35.0312 67.2669 46.5002 67.2669C57.9693 67.267 67.2669 57.9694 67.267 46.5004C67.267 35.0312 57.9694 25.7336 46.5004 25.7336C35.0313 25.7336 25.7337 35.0311 25.7336 46.5002Z" fill="#63DAFC" fill-opacity="0.898039" stroke="#2A2E33" stroke-opacity="0.898039" stroke-width="2" stroke-linecap="round" stroke-linejoin="round"/>
<rect x="62.3097" y="7" width="14" height="10" rx="5" transform="rotate(39.1221 62.3097 7)" fill="#FFC536"/>
<rect x="20" y="14.77" width="14" height="10" rx="5" transform="rotate(-33.711 20 14.77)" fill="#FFC536"/>
<rect x="77" y="54" width="14" height="10" rx="5" transform="rotate(-90 77 54)" fill="#FFC536"/>
<rect x="6" y="54" width="14" height="10" rx="5" transform="rotate(-90 6 54)" fill="#FFC536"/>
<rect x="33.1497" y="86.2152" width="14" height="10" rx="5" transform="rotate(-150.311 33.1497 86.2152)" fill="#FFC536"/>
<rect x="56.9224" y="77.1747" width="14" height="10" rx="5" transform="rotate(-33.7443 56.9224 77.1747)" fill="#FFC536"/>
</g>
<defs>
<clipPath id="clip0_920_2">
<rect width="93" height="93" fill="white"/>
</clipPath>
</defs>
</svg>
