<svg width="40" height="40" viewBox="0 0 40 40" fill="none" xmlns="http://www.w3.org/2000/svg">
<path d="M18.5817 22.8006C18.5817 27.6415 14.6438 31.5795 9.80286 31.5795V14.0217C14.6438 14.0217 18.5817 17.9597 18.5817 22.8006Z" fill="#353D4D"/>
<path d="M10.2014 18.6351L7.85362 12.6989L1.63935 16.1943C1.44538 16.3033 1.28392 16.462 1.17156 16.6541C1.05921 16.8462 0.999991 17.0647 1 17.2873V33.5915L15.1248 31.0832L10.2014 18.6351Z" fill="#5AB35A"/>
<path d="M1 33.5915L15.1248 31.0832L10.2014 18.6351L1 21.7802V33.5915Z" fill="#3D994D"/>
<path d="M27.0631 12.8716L26.6564 11.6774L19.5321 14.0998L19.9427 15.3055L20.3404 16.4734L27.4647 14.0508L27.0631 12.8716Z" fill="#353D4D"/>
<path d="M27.4647 14.0509L27.0632 12.8717L19.9427 15.3055L20.3405 16.4735L27.4647 14.0509Z" fill="#1E2533"/>
<path d="M38.5559 11.5941L37.7433 9.22125L36.9307 6.84836C36.7077 6.19864 35.9981 5.8418 35.3398 6.06821L25.8432 9.30385C25.1956 9.52215 24.8337 10.2349 25.0606 10.8973L25.8758 13.2775L26.6858 15.643C26.915 16.3104 27.6409 16.6448 28.2767 16.4232L37.7732 13.1875C38.4207 12.969 38.7826 12.2564 38.5559 11.5941Z" fill="#88CC7A"/>
<path d="M28.2767 16.4232L37.7733 13.1875C38.4207 12.969 38.7826 12.2564 38.5558 11.5941L37.7433 9.22119L25.8757 13.2775L26.6857 15.6431C26.9149 16.3104 27.6409 16.6449 28.2767 16.4232Z" fill="#5AB35A"/>
<path d="M21.9363 17.2536L21.1297 14.8999L20.3099 12.5078C20.0846 11.8526 19.368 11.5048 18.7165 11.7277L8.87378 14.9781L10.1348 18.658L11.3134 22.0974L21.1561 18.847C21.8085 18.6234 22.1611 17.9102 21.9363 17.2536Z" fill="#88CC7A"/>
<path d="M21.1562 18.8469C21.8085 18.6234 22.1611 17.9102 21.9363 17.2535L21.1297 14.8998L10.1348 18.6579L11.3134 22.0974L21.1562 18.8469Z" fill="#5AB35A"/>
<path d="M13.5658 24.8041L11.3215 18.2523L8.02872 8.64015C7.8034 7.98491 7.08813 7.6371 6.43532 7.86C5.78008 8.08533 5.43101 8.79817 5.65517 9.45341L8.94724 19.0638L11.1922 25.6174C11.4142 26.2636 12.117 26.6224 12.7856 26.3975C13.4409 26.1721 13.7899 25.4594 13.5658 24.8041Z" fill="#353D4D"/>
<path d="M15.5317 34.7567C16.187 34.5314 16.536 33.8186 16.3119 33.1633L11.3214 18.2521L8.94727 19.0636L13.9384 33.9765C14.1603 34.6228 14.8632 34.9816 15.5317 34.7567Z" fill="#1E2533"/>
</svg>
