<svg width="40" height="40" viewBox="0 0 40 40" fill="none" xmlns="http://www.w3.org/2000/svg">
<path d="M38.856 22.6671C39.0942 23.442 39.1894 24.6596 38.3796 25.988C36.9027 28.3679 33.1392 29.8623 31.043 30.5818C27.5654 31.7441 23.6113 32.2976 19.8954 32.2422C16.2271 32.1869 12.273 31.412 8.79533 30.139C6.69919 29.3642 3.03093 27.7037 1.60175 25.2684C1.50647 25.047 1.41119 24.881 1.31591 24.6596C0.839512 23.5527 0.98243 22.5564 1.22063 21.9476C1.88758 19.9551 3.88845 18.2946 7.17558 17.0217C9.46229 16.1361 11.5108 15.7487 11.6061 15.7487L20.1336 15.9147L28.6611 16.0807H28.7087C28.9945 16.1361 30.9478 16.6342 33.0439 17.5198C36.2834 18.9588 38.2366 20.6746 38.856 22.6671Z" fill="#393E46"/>
<path d="M7.60437 24.2721C8.55156 24.2721 9.3194 23.3801 9.3194 22.2796C9.3194 21.1792 8.55156 20.2871 7.60437 20.2871C6.65719 20.2871 5.88934 21.1792 5.88934 22.2796C5.88934 23.3801 6.65719 24.2721 7.60437 24.2721Z" fill="#2A2E33"/>
<path d="M7.60436 23.8294C8.34106 23.8294 8.93827 23.1356 8.93827 22.2797C8.93827 21.4238 8.34106 20.73 7.60436 20.73C6.86766 20.73 6.27045 21.4238 6.27045 22.2797C6.27045 23.1356 6.86766 23.8294 7.60436 23.8294Z" fill="#FFC536"/>
<path d="M8.89058 22.2797C8.89058 23.1099 8.27127 23.8294 7.55667 23.7741C6.84208 23.7741 6.22276 23.0545 6.2704 22.2243C6.5086 22.5011 6.84208 22.6671 7.17556 22.6671C7.89015 22.6671 8.50946 22.0029 8.50946 21.1727C8.74766 21.4495 8.93822 21.8369 8.89058 22.2797Z" fill="#FFB612"/>
<path d="M15.7031 28.2019C16.6502 28.2019 17.4181 27.3099 17.4181 26.2094C17.4181 25.109 16.6502 24.2169 15.7031 24.2169C14.7559 24.2169 13.988 25.109 13.988 26.2094C13.988 27.3099 14.7559 28.2019 15.7031 28.2019Z" fill="#2A2E33"/>
<path d="M15.7031 27.759C16.4398 27.759 17.037 27.0652 17.037 26.2093C17.037 25.3534 16.4398 24.6595 15.7031 24.6595C14.9664 24.6595 14.3692 25.3534 14.3692 26.2093C14.3692 27.0652 14.9664 27.759 15.7031 27.759Z" fill="#FFC536"/>
<path d="M17.037 26.2645C17.037 27.0948 16.4177 27.8143 15.7031 27.7589C14.9885 27.7589 14.3692 27.0394 14.4168 26.2092C14.655 26.4859 14.9885 26.652 15.322 26.652C16.0366 26.652 16.6559 25.9878 16.6559 25.1576C16.8941 25.4343 17.037 25.8218 17.037 26.2645Z" fill="#FFB612"/>
<path d="M26.1362 29.1426C27.0834 29.1426 27.8512 28.2505 27.8512 27.1501C27.8512 26.0497 27.0834 25.1576 26.1362 25.1576C25.189 25.1576 24.4211 26.0497 24.4211 27.1501C24.4211 28.2505 25.189 29.1426 26.1362 29.1426Z" fill="#2A2E33"/>
<path d="M26.1362 28.6999C26.8729 28.6999 27.4701 28.0061 27.4701 27.1502C27.4701 26.2943 26.8729 25.6005 26.1362 25.6005C25.3995 25.6005 24.8022 26.2943 24.8022 27.1502C24.8022 28.0061 25.3995 28.6999 26.1362 28.6999Z" fill="#FFC536"/>
<path d="M27.4701 27.1503C27.4701 27.9805 26.8508 28.7 26.1362 28.6447C25.4216 28.6447 24.8023 27.9252 24.8499 27.0949C25.0881 27.3717 25.4216 27.5377 25.7551 27.5377C26.4697 27.5377 27.089 26.8735 27.089 26.0433C27.3272 26.3201 27.4701 26.7075 27.4701 27.1503Z" fill="#FFB612"/>
<path d="M34.2826 25.3791C35.2298 25.3791 35.9976 24.487 35.9976 23.3866C35.9976 22.2861 35.2298 21.394 34.2826 21.394C33.3354 21.394 32.5676 22.2861 32.5676 23.3866C32.5676 24.487 33.3354 25.3791 34.2826 25.3791Z" fill="#2A2E33"/>
<path d="M34.2825 24.9363C35.0192 24.9363 35.6164 24.2424 35.6164 23.3865C35.6164 22.5306 35.0192 21.8368 34.2825 21.8368C33.5458 21.8368 32.9486 22.5306 32.9486 23.3865C32.9486 24.2424 33.5458 24.9363 34.2825 24.9363Z" fill="#FFC536"/>
<path d="M35.6165 23.3867C35.6165 24.2169 34.9972 24.9365 34.2826 24.8811C33.568 24.8811 32.9487 24.1616 32.9963 23.3314C33.2345 23.6081 33.568 23.7742 33.9014 23.7742C34.616 23.7742 35.2354 23.11 35.2354 22.2798C35.4736 22.5565 35.6165 22.944 35.6165 23.3867Z" fill="#FFB612"/>
<path d="M29.995 16.4681L29.7568 17.0216C29.6615 17.243 29.1375 18.3499 27.613 19.4569C26.1838 20.4531 24.3735 21.1173 22.2773 21.3387C21.7533 21.3941 21.1816 21.3941 20.61 21.4494H20.1336C19.8001 21.4494 19.5142 21.4494 19.2284 21.3941C16.5129 21.228 14.3215 20.5085 12.6541 19.2355C12.5112 19.1248 12.3683 19.0141 12.273 18.9034C11.1297 17.9072 10.7009 16.9109 10.6056 16.7449L10.3674 16.1914L10.558 15.5826C11.3202 13.3687 12.6541 11.4315 14.3692 10.1032C16.0842 8.77482 18.0851 8.0553 20.1336 8.0553H20.3718C22.4679 8.11065 24.5164 8.88551 26.2314 10.3245C26.5173 10.5459 26.7555 10.7673 26.9937 11.0441C27.2795 11.3208 27.5177 11.6529 27.8035 11.9296C28.0894 12.2617 28.3276 12.6491 28.5658 13.0366C29.0898 13.9221 29.5662 14.9184 29.852 15.9146L29.995 16.4681Z" fill="#20CAFB"/>
<path d="M26.8984 10.9334L19.1331 21.3388C16.4177 21.1727 14.2262 20.4532 12.5589 19.1802C12.4159 19.0695 12.273 18.9588 12.1777 18.8481L20.3241 8C22.4203 8.05535 24.4688 8.83021 26.1838 10.2692C26.422 10.4353 26.6602 10.712 26.8984 10.9334ZM28.4705 12.9813L22.2773 21.2834C21.7533 21.3388 21.1816 21.3388 20.6099 21.3941L27.7559 11.8743C27.9941 12.2064 28.2323 12.5938 28.4705 12.9813Z" fill="#63DAFC"/>
<path d="M29.995 16.4682L29.7568 17.0217C29.6615 17.243 29.1375 18.35 27.613 19.457C25.8027 20.7299 23.4207 21.3941 20.4671 21.3941H20.086C16.9894 21.3388 14.4645 20.5639 12.6065 19.1802C11.1297 18.0733 10.6533 16.911 10.558 16.6896L10.3198 16.1361L10.5104 15.5273L10.6533 15.1952C10.8915 15.638 11.4155 16.5789 12.6065 17.4644C14.4645 18.9035 16.9894 19.623 20.086 19.6783H20.4671C23.4207 19.6783 25.8027 19.0142 27.613 17.7412C28.8993 16.8556 29.471 15.8594 29.6615 15.4719C29.7092 15.5826 29.7568 15.7487 29.8044 15.8594L29.995 16.4682Z" fill="#2A2E33"/>
</svg>
