<svg width="28" height="28" viewBox="0 0 28 28" fill="none" xmlns="http://www.w3.org/2000/svg">
<g clip-path="url(#clip0_648_770)">
<path d="M24.3409 26.434L24.3313 26.4847C24.1993 27.0209 23.6001 27.5001 22.7833 27.5001L5.21699 27.5001H5.21682C4.82011 27.5002 4.446 27.3807 4.16116 27.1762C3.87752 26.9725 3.70939 26.7056 3.6582 26.4351L0.517485 9.83105C0.517476 9.831 0.517467 9.83095 0.517458 9.8309C0.517449 9.83085 0.51744 9.83081 0.517431 9.83076C0.394143 9.17572 1.00494 8.40198 2.07621 8.40198L25.9241 8.40198L25.9243 8.40198C26.1642 8.4019 26.3993 8.44574 26.6127 8.52853C26.826 8.61132 27.0091 8.72965 27.1521 8.87069C27.2948 9.01147 27.3935 9.17049 27.4482 9.33417C27.5027 9.49728 27.5141 9.66594 27.4829 9.83072L24.3409 26.434Z" fill="#C163E0" stroke="black"/>
<path d="M14 23.4912L19 20.5935V14.798L14 11.9003V23.4912Z" fill="#FF9A38"/>
<path d="M14 23.4912L9 20.5935V14.798L14 11.9003V23.4912Z" fill="#FFBE3D"/>
<path d="M8.69036 11.5503V11.5602L8.69075 11.5701C8.69237 11.6111 8.68476 11.6537 8.66627 11.696C8.64766 11.7386 8.61743 11.7821 8.57354 11.8221C8.52951 11.8621 8.47324 11.8971 8.40652 11.922C8.33978 11.9469 8.2661 11.9604 8.19036 11.9604C8.11462 11.9604 8.04094 11.9469 7.9742 11.922C7.90748 11.8971 7.85121 11.8621 7.80718 11.8221C7.76329 11.7821 7.73306 11.7386 7.71445 11.696C7.69596 11.6537 7.68835 11.6111 7.68997 11.5701L7.69036 11.5602V11.5503V6.4195C7.69036 3.21505 10.6806 0.500122 14.4935 0.500122C18.3065 0.500122 21.2967 3.21505 21.2967 6.4195V11.5503C21.2967 11.6286 21.2619 11.7191 21.1736 11.7967C21.0832 11.8762 20.9482 11.9298 20.7961 11.9298C20.644 11.9298 20.5091 11.8762 20.4187 11.7967C20.3304 11.7191 20.2955 11.6286 20.2955 11.5503V6.4195C20.2955 3.51406 17.6307 1.25809 14.4935 1.25809C11.3566 1.25809 8.69036 3.51392 8.69036 6.4195V11.5503Z" fill="#2C3642" stroke="black"/>
</g>
<defs>
<clipPath id="clip0_648_770">
<rect width="28" height="28" fill="white"/>
</clipPath>
</defs>
</svg>
