<svg width="40" height="40" viewBox="0 0 40 40" fill="none" xmlns="http://www.w3.org/2000/svg">
<path d="M31.6059 32.4217L34.9723 14.6324C35.0229 14.365 35.004 14.0916 34.9169 13.831C34.8297 13.5703 34.6765 13.3287 34.4677 13.1228C34.2589 12.9169 33.9994 12.7515 33.7074 12.6382C33.4153 12.5248 33.0974 12.4662 32.7758 12.4663L7.22451 12.4663C5.85756 12.4663 4.81359 13.4952 5.02801 14.6324L8.39313 32.4228C8.47638 32.8628 8.7433 33.2633 9.14592 33.5524C9.54854 33.8415 10.0604 34.0002 10.5896 34H29.4107C30.5043 34 31.4343 33.331 31.6072 32.4228L31.6059 32.4217Z" fill="#C163E0"/>
<path d="M20 29.169L25.3571 26.0643V19.8548L20 16.7501V29.169Z" fill="#FF9A38"/>
<path d="M20 29.169L14.6429 26.0643V19.8548L20 16.7501V29.169Z" fill="#FFBE3D"/>
<path d="M27.2816 17.3176C26.9972 17.3176 26.7246 17.2183 26.5235 17.0416C26.3224 16.8648 26.2095 16.6251 26.2095 16.3752V10.8779C26.2095 8.12356 23.6611 5.88353 20.5288 5.88353C17.3965 5.88353 14.8468 8.12356 14.8468 10.8779V16.3752C14.8518 16.5017 14.8278 16.6277 14.7762 16.7458C14.7246 16.8639 14.6465 16.9716 14.5465 17.0626C14.4465 17.1536 14.3267 17.2259 14.1942 17.2754C14.0617 17.3248 13.9193 17.3503 13.7754 17.3503C13.6315 17.3503 13.489 17.3248 13.3565 17.2754C13.2241 17.2259 13.1043 17.1536 13.0043 17.0626C12.9043 16.9716 12.8262 16.8639 12.7746 16.7458C12.723 16.6277 12.699 16.5017 12.704 16.3752V10.8779C12.704 7.08586 16.2147 4 20.5288 4C24.8429 4 28.3536 7.08586 28.3536 10.8779V16.3752C28.3536 16.6251 28.2407 16.8648 28.0396 17.0416C27.8386 17.2183 27.5659 17.3176 27.2816 17.3176Z" fill="#2C3642"/>
</svg>
