<svg width="40" height="40" viewBox="0 0 40 40" fill="none" xmlns="http://www.w3.org/2000/svg">
<path d="M26.3594 28.9687H24.1358C23.9886 28.4774 23.7749 27.8547 23.4949 27.2643C22.8702 25.9465 21.5638 25.0644 20.1094 25.0631C18.655 25.0644 17.3486 25.9465 16.7238 27.2643C16.4439 27.8547 16.2302 28.4774 16.083 28.9687H13.8594C10.6252 28.9687 7.99462 31.6026 8.00001 34.838C8.0011 35.4812 8.52868 36 9.17188 36H31.0469C31.6901 36 32.2177 35.4812 32.2188 34.838C32.2242 31.6026 29.5936 28.9687 26.3594 28.9687Z" fill="#506473"/>
<path d="M32.2022 22.9688C31.9575 22.9688 31.7108 22.8924 31.5 22.7343C30.9823 22.346 30.8773 21.6114 31.2656 21.0937L33.082 18.6718L31.2656 16.2499C30.8773 15.7322 30.9823 14.9977 31.5 14.6093C32.0177 14.221 32.7523 14.3259 33.1406 14.8437L35.4844 17.9687C35.6365 18.1715 35.7188 18.4183 35.7188 18.6718C35.7188 18.9254 35.6365 19.1721 35.4844 19.3749L33.1406 22.4999C33.0315 22.6457 32.8898 22.764 32.7269 22.8454C32.564 22.9268 32.3843 22.969 32.2022 22.9688ZM27.5166 22.9688C27.3344 22.969 27.1548 22.9268 26.9919 22.8454C26.8289 22.764 26.6873 22.6457 26.5781 22.4999L24.2344 19.3749C24.0822 19.1721 24 18.9254 24 18.6718C24 18.4183 24.0822 18.1715 24.2344 17.9687L26.5781 14.8437C26.9665 14.326 27.701 14.2211 28.2188 14.6093C28.7365 14.9977 28.8415 15.7322 28.4531 16.2499L26.6367 18.6718L28.4531 21.0937C28.8415 21.6114 28.7365 22.346 28.2188 22.7343C28.0163 22.8866 27.7699 22.9689 27.5166 22.9688Z" fill="#3C505A"/>
<path d="M34.5469 16.7188H25.1719C24.5247 16.7188 24 16.1941 24 15.5469V13.518C24 11.0346 24.8544 8.59898 26.4057 6.65992C27.2497 5.605 28.5085 5 29.8594 5C31.2102 5 32.4691 5.605 33.313 6.65984C34.8644 8.59891 35.7188 11.0346 35.7188 13.518V15.5469C35.7188 16.1941 35.1941 16.7188 34.5469 16.7188Z" fill="#FA3226"/>
<path d="M13.2022 22.9688C12.9575 22.9688 12.7108 22.8924 12.5 22.7343C11.9823 22.346 11.8773 21.6114 12.2656 21.0937L14.082 18.6718L12.2656 16.2499C11.8773 15.7322 11.9823 14.9977 12.5 14.6093C13.0177 14.221 13.7523 14.3259 14.1406 14.8437L16.4844 17.9687C16.6365 18.1715 16.7188 18.4183 16.7188 18.6718C16.7188 18.9254 16.6365 19.1721 16.4844 19.3749L14.1406 22.4999C14.0315 22.6457 13.8898 22.764 13.7269 22.8454C13.564 22.9268 13.3843 22.969 13.2022 22.9688ZM8.51656 22.9688C8.33444 22.969 8.15478 22.9268 7.99186 22.8454C7.82894 22.764 7.68727 22.6457 7.57812 22.4999L5.23438 19.3749C5.08224 19.1721 5 18.9254 5 18.6718C5 18.4183 5.08224 18.1715 5.23438 17.9687L7.57812 14.8437C7.96648 14.326 8.70102 14.2211 9.21875 14.6093C9.73648 14.9977 9.84148 15.7322 9.45312 16.2499L7.63672 18.6718L9.45312 21.0937C9.84148 21.6114 9.73648 22.346 9.21875 22.7343C9.01634 22.8866 8.76987 22.9689 8.51656 22.9688Z" fill="#3C505A"/>
<path d="M15.5469 16.7188H6.17188C5.52469 16.7188 5 16.1941 5 15.5469V13.518C5 11.0346 5.85437 8.59898 7.4057 6.65992C8.24969 5.605 9.50852 5 10.8594 5C12.2102 5 13.4691 5.605 14.313 6.65984C15.8644 8.59891 16.7188 11.0346 16.7188 13.518V15.5469C16.7188 16.1941 16.1941 16.7188 15.5469 16.7188Z" fill="#FA3226"/>
</svg>
