<svg width="40" height="40" viewBox="0 0 40 40" fill="none" xmlns="http://www.w3.org/2000/svg">
<g clip-path="url(#clip0_734_2)">
<path d="M26.25 32.9687H24.0264C23.8792 32.4774 23.6655 31.8547 23.3856 31.2643C22.7608 29.9465 21.4544 29.0644 20 29.0631C18.5456 29.0644 17.2392 29.9465 16.6145 31.2643C16.3345 31.8547 16.1208 32.4774 15.9736 32.9687H13.75C10.5158 32.9687 7.88524 35.6026 7.89063 38.838C7.89173 39.4812 8.41931 40 9.06251 40H30.9375C31.5807 40 32.1083 39.4812 32.1094 38.838C32.1148 35.6026 29.4842 32.9687 26.25 32.9687Z" fill="#506473"/>
<path d="M30.9375 40C31.5807 40 32.1083 39.4812 32.1094 38.838C32.1148 35.6025 29.4842 32.9687 26.25 32.9687H24.0264C23.8792 32.4774 23.6655 31.8547 23.3855 31.2643C22.7608 29.9465 21.4544 29.0644 20 29.0631V40H30.9375ZM36.4834 25.9375C36.2388 25.9375 35.992 25.8611 35.7812 25.7031C35.2635 25.3147 35.1585 24.5802 35.5469 24.0625L37.3633 21.6406L35.5469 19.2187C35.1585 18.701 35.2635 17.9664 35.7812 17.5781C36.299 17.1898 37.0335 17.2947 37.4219 17.8125L39.7656 20.9375C39.9178 21.1403 40 21.387 40 21.6406C40 21.8941 39.9178 22.1409 39.7656 22.3437L37.4219 25.4687C37.3127 25.6145 37.1711 25.7328 37.0081 25.8142C36.8452 25.8956 36.6656 25.9378 36.4834 25.9375ZM31.7978 25.9375C31.6157 25.9378 31.436 25.8956 31.2731 25.8142C31.1102 25.7328 30.9685 25.6145 30.8594 25.4687L28.5156 22.3437C28.3635 22.1409 28.2812 21.8941 28.2812 21.6406C28.2812 21.387 28.3635 21.1403 28.5156 20.9375L30.8594 17.8125C31.2477 17.2948 31.9823 17.1899 32.5 17.5781C33.0177 17.9664 33.1227 18.701 32.7344 19.2187L30.918 21.6406L32.7344 24.0625C33.1227 24.5802 33.0177 25.3147 32.5 25.7031C32.2976 25.8554 32.0511 25.9377 31.7978 25.9375ZM22.3428 17.9688C22.0981 17.9688 21.8514 17.8924 21.6406 17.7343C21.1229 17.346 21.0179 16.6114 21.4062 16.0937L23.2227 13.6718L21.4062 11.25C21.0179 10.7322 21.1229 9.9977 21.6406 9.60934C22.1584 9.22106 22.8928 9.32582 23.2812 9.84371L25.625 12.9687C25.7771 13.1716 25.8594 13.4183 25.8594 13.6718C25.8594 13.9254 25.7771 14.1721 25.625 14.375L23.2812 17.5C23.1721 17.6458 23.0304 17.764 22.8675 17.8454C22.7046 17.9268 22.5249 17.9691 22.3428 17.9688Z" fill="#3C505A"/>
<path d="M17.6572 17.9688C17.4751 17.9691 17.2954 17.9269 17.1325 17.8455C16.9696 17.7641 16.8279 17.6458 16.7188 17.5L14.375 14.375C14.2229 14.1722 14.1406 13.9255 14.1406 13.6719C14.1406 13.4183 14.2229 13.1716 14.375 12.9688L16.7188 9.84377C17.1071 9.32611 17.8416 9.22111 18.3594 9.60939C18.8771 9.99775 18.9821 10.7323 18.5938 11.25L16.7773 13.6719L18.5938 16.0938C18.9821 16.6115 18.8771 17.346 18.3594 17.7344C18.157 17.8867 17.9105 17.969 17.6572 17.9688Z" fill="#506473"/>
<path d="M38.8281 19.6875H29.4531C28.8059 19.6875 28.2812 19.1628 28.2812 18.5156V16.4868C28.2812 14.0034 29.1356 11.5677 30.687 9.62867C31.5309 8.57375 32.7898 7.96875 34.1406 7.96875C35.4915 7.96875 36.7503 8.57375 37.5943 9.62859C39.1456 11.5677 40 14.0034 40 16.4868V18.5156C40 19.1628 39.4753 19.6875 38.8281 19.6875Z" fill="#FA3226"/>
<path d="M3.51656 25.9376C3.33444 25.9378 3.15477 25.8956 2.99185 25.8142C2.82893 25.7328 2.68726 25.6145 2.57812 25.4687L0.234375 22.3437C0.0822397 22.1409 0 21.8942 0 21.6406C0 21.387 0.0822397 21.1403 0.234375 20.9375L2.57812 17.8125C2.96648 17.2948 3.70102 17.1899 4.21875 17.5781C4.73648 17.9665 4.84148 18.701 4.45312 19.2187L2.63672 21.6406L4.45312 24.0625C4.84148 24.5802 4.73648 25.3147 4.21875 25.7031C4.01633 25.8554 3.76987 25.9377 3.51656 25.9376ZM8.20219 25.9376C7.9575 25.9376 7.71078 25.8611 7.5 25.7031C6.98227 25.3147 6.87727 24.5802 7.26562 24.0625L9.08203 21.6406L7.26562 19.2187C6.87727 18.701 6.98227 17.9665 7.5 17.5781C8.01781 17.1897 8.75234 17.2947 9.14062 17.8125L11.4844 20.9375C11.6365 21.1403 11.7188 21.387 11.7188 21.6406C11.7188 21.8942 11.6365 22.1409 11.4844 22.3437L9.14062 25.4687C9.03147 25.6145 8.8898 25.7328 8.72689 25.8142C8.56397 25.8956 8.3843 25.9378 8.20219 25.9376Z" fill="#506473"/>
<path d="M20 26.1719C19.3528 26.1719 18.8281 25.6472 18.8281 25V21.0938C18.8281 20.4466 19.3528 19.9219 20 19.9219C20.6472 19.9219 21.1719 20.4466 21.1719 21.0938V25C21.1719 25.6472 20.6472 26.1719 20 26.1719ZM15.2344 28.5156C14.5872 28.5156 14.0625 27.9909 14.0625 27.3438V23.4375C14.0625 22.7903 14.5872 22.2656 15.2344 22.2656C15.8816 22.2656 16.4062 22.7903 16.4062 23.4375V27.3438C16.4062 27.9909 15.8816 28.5156 15.2344 28.5156Z" fill="#5AE1EA"/>
<path d="M10.5469 19.6875H1.17188C0.524687 19.6875 0 19.1628 0 18.5156V16.4868C0 14.0034 0.854375 11.5678 2.4057 9.62867C3.24961 8.57375 4.50844 7.96875 5.85938 7.96875C7.21031 7.96875 8.46914 8.57375 9.31305 9.62867C10.8644 11.5678 11.7188 14.0034 11.7188 16.4868V18.5156C11.7188 19.1628 11.1941 19.6875 10.5469 19.6875ZM24.6875 11.7188H15.3125C14.6653 11.7188 14.1406 11.1941 14.1406 10.5469V8.51805C14.1406 6.03469 14.995 3.59906 16.5463 1.65992C17.3902 0.605 18.6491 0 20 0C21.3509 0 22.6097 0.605 23.4537 1.65984C25.005 3.59891 25.8594 6.03461 25.8594 8.51805V10.5469C25.8594 11.1941 25.3347 11.7188 24.6875 11.7188Z" fill="#FF6455"/>
<path d="M24.6875 11.7188C25.3347 11.7188 25.8594 11.1941 25.8594 10.5469V8.51805C25.8594 6.03461 25.005 3.59898 23.4537 1.65992C22.6097 0.605078 21.3509 0 20 0V11.7188H24.6875Z" fill="#FA3226"/>
<path d="M24.7656 28.5156C24.1184 28.5156 23.5938 27.9909 23.5938 27.3438V23.4375C23.5938 22.7903 24.1184 22.2656 24.7656 22.2656C25.4128 22.2656 25.9375 22.7903 25.9375 23.4375V27.3438C25.9375 27.9909 25.4128 28.5156 24.7656 28.5156ZM21.1719 25V21.0938C21.1719 20.4466 20.6472 19.9219 20 19.9219V26.1719C20.6472 26.1719 21.1719 25.6472 21.1719 25Z" fill="#19C8D2"/>
</g>
<defs>
<clipPath id="clip0_734_2">
<rect width="40" height="40" fill="white"/>
</clipPath>
</defs>
</svg>
