<svg width={props.width} height={props.height} viewBox="0 0 12 12" fill="none" xmlns="http://www.w3.org/2000/svg">
<path d="M10.5455 5.54545H10.0682C9.96157 4.62389 9.54657 3.76541 8.89058 3.10942C8.23459 2.45343 7.37611 2.03843 6.45455 1.93182V1.45455C6.45455 1.33399 6.40666 1.21838 6.32141 1.13313C6.23617 1.04789 6.12055 1 6 1C5.87945 1 5.76383 1.04789 5.67859 1.13313C5.59334 1.21838 5.54545 1.33399 5.54545 1.45455V1.93182C4.62389 2.03843 3.76541 2.45343 3.10942 3.10942C2.45343 3.76541 2.03843 4.62389 1.93182 5.54545H1.45455C1.33399 5.54545 1.21838 5.59334 1.13313 5.67859C1.04789 5.76383 1 5.87945 1 6C1 6.12055 1.04789 6.23617 1.13313 6.32141C1.21838 6.40666 1.33399 6.45455 1.45455 6.45455H1.93182C2.03843 7.37611 2.45343 8.23459 3.10942 8.89058C3.76541 9.54657 4.62389 9.96157 5.54545 10.0682V10.5455C5.54545 10.666 5.59334 10.7816 5.67859 10.8669C5.76383 10.9521 5.87945 11 6 11C6.12055 11 6.23617 10.9521 6.32141 10.8669C6.40666 10.7816 6.45455 10.666 6.45455 10.5455V10.0682C7.37611 9.96157 8.23459 9.54657 8.89058 8.89058C9.54657 8.23459 9.96157 7.37611 10.0682 6.45455H10.5455C10.666 6.45455 10.7816 6.40666 10.8669 6.32141C10.9521 6.23617 11 6.12055 11 6C11 5.87945 10.9521 5.76383 10.8669 5.67859C10.7816 5.59334 10.666 5.54545 10.5455 5.54545ZM6.45455 9.13636V8.27273C6.45455 8.15217 6.40666 8.03656 6.32141 7.95131C6.23617 7.86607 6.12055 7.81818 6 7.81818C5.87945 7.81818 5.76383 7.86607 5.67859 7.95131C5.59334 8.03656 5.54545 8.15217 5.54545 8.27273V9.13636C4.86695 9.04344 4.23751 8.731 3.75325 8.24675C3.269 7.76249 2.95656 7.13305 2.86364 6.45455H3.72727C3.84783 6.45455 3.96344 6.40666 4.04868 6.32141C4.13393 6.23617 4.18182 6.12055 4.18182 6C4.18182 5.87945 4.13393 5.76383 4.04868 5.67859C3.96344 5.59334 3.84783 5.54545 3.72727 5.54545H2.86364C2.95656 4.86695 3.269 4.23751 3.75325 3.75325C4.23751 3.269 4.86695 2.95656 5.54545 2.86364V3.72727C5.54545 3.84783 5.59334 3.96344 5.67859 4.04868C5.76383 4.13393 5.87945 4.18182 6 4.18182C6.12055 4.18182 6.23617 4.13393 6.32141 4.04868C6.40666 3.96344 6.45455 3.84783 6.45455 3.72727V2.86364C7.13305 2.95656 7.76249 3.269 8.24675 3.75325C8.731 4.23751 9.04344 4.86695 9.13636 5.54545H8.27273C8.15217 5.54545 8.03656 5.59334 7.95131 5.67859C7.86607 5.76383 7.81818 5.87945 7.81818 6C7.81818 6.12055 7.86607 6.23617 7.95131 6.32141C8.03656 6.40666 8.15217 6.45455 8.27273 6.45455H9.13636C9.04344 7.13305 8.731 7.76249 8.24675 8.24675C7.76249 8.731 7.13305 9.04344 6.45455 9.13636Z" fill="white" stroke="white"/>
</svg>
