<svg width="145" height="144" viewBox="0 0 145 144" fill="none" xmlns="http://www.w3.org/2000/svg">
<g clip-path="url(#clip0_473_656)">
<path d="M114.119 46.3328C117.248 49.8033 118.639 54.5851 117.986 59.6291C117.334 64.6731 114.691 69.5674 110.638 73.2381L106.699 68.8799C109.404 66.4345 111.168 63.1709 111.603 59.8071C112.038 56.4433 111.109 53.2548 109.019 50.9431C106.929 48.6313 103.85 47.3857 100.46 47.4802C97.0692 47.5748 93.6447 49.0017 90.9396 51.4471L86.9999 47.0889C91.0597 43.4259 96.1949 41.2891 101.279 41.1474C106.363 41.0057 110.981 42.8705 114.119 46.3328Z" fill="#565660"/>
<path d="M26.9617 93.443L35.7068 103.117C37.6834 105.304 40.5497 106.541 43.737 106.584L83.4494 107.117C84.3734 107.133 85.3213 106.946 86.2272 106.572C87.1331 106.197 87.9751 105.643 88.6945 104.948C89.4139 104.253 89.9934 103.434 90.3926 102.547C90.7918 101.661 91.0012 100.729 91.0061 99.8159C90.9659 98.2966 90.3753 96.9237 89.3375 95.9377C88.2998 94.9517 86.8811 94.4153 85.3299 94.4226L69.9747 94.1582L102.759 64.5217C104.111 63.299 104.993 61.6672 105.211 59.9853C105.429 58.3034 104.964 56.7091 103.919 55.5533C102.874 54.3974 101.335 53.7746 99.6394 53.8219C97.9441 53.8691 96.2319 54.5826 94.8793 55.8053L77.0298 71.941C78.3824 70.7183 79.2645 69.0865 79.482 67.4046C79.6996 65.7227 79.2348 64.1285 78.1899 62.9726C77.145 61.8167 75.6056 61.1939 73.9104 61.2412C72.2151 61.2885 70.5029 62.0019 69.1503 63.2246L66.6004 65.5297C67.953 64.307 68.835 62.6752 69.0526 60.9933C69.2702 59.3114 68.8054 57.7172 67.7605 56.5613C66.7156 55.4055 65.1762 54.7826 63.4809 54.8299C61.7857 54.8772 60.0734 55.5906 58.7209 56.8133L56.1709 59.1184C57.5235 57.8957 58.4056 56.2639 58.6231 54.582C58.8407 52.9001 58.3759 51.3059 57.331 50.15C56.2861 48.9942 54.7467 48.3714 53.0515 48.4186C51.3562 48.4659 49.644 49.1793 48.2914 50.402L30.4419 66.5378C26.3842 70.2059 23.738 75.1013 23.0853 80.147C22.4326 85.1927 23.827 89.9754 26.9617 93.443Z" fill="#565660"/>
</g>
<defs>
<clipPath id="clip0_473_656">
<rect width="94" height="109.996" fill="white" transform="matrix(-0.670598 -0.741821 -0.741821 0.670598 144.827 70.0509)"/>
</clipPath>
</defs>
</svg>
