<svg width="44" height="44" viewBox="0 0 44 44" fill="none" xmlns="http://www.w3.org/2000/svg">
<g clip-path="url(#clip0_949_2)">
<path d="M22.5001 31.7019L19.6813 33.4467V43.8716H25.3189V33.4467L22.5001 31.7019Z" fill="#696979"/>
<path d="M40.6598 33.4467C41.0691 33.4467 41.4711 33.3394 41.8259 33.1355C42.1807 32.9316 42.4758 32.6382 42.6818 32.2846C42.8879 31.9311 42.9975 31.5296 43 31.1204C43.0024 30.7112 42.8975 30.3085 42.6956 29.9525L24.2857 1.04036C24.1066 0.724521 23.847 0.461823 23.5333 0.279058C23.2196 0.0962932 22.863 0 22.4999 0C22.1369 0 21.7803 0.0962932 21.4666 0.279058C21.1529 0.461823 20.8933 0.724521 20.7142 1.04036L2.30436 29.9525C2.10255 30.3085 1.99762 30.7112 2.00004 31.1204C2.00246 31.5296 2.11215 31.9311 2.31815 32.2846C2.52416 32.6382 2.81928 32.9316 3.17408 33.1355C3.52888 33.3394 3.93094 33.4467 4.34016 33.4467H40.6598Z" fill="#C3A6FF"/>
<path d="M26.8078 20.4116C30.6742 20.9568 33.3504 22.1351 33.3504 23.5014C33.3504 25.3863 28.2561 26.9141 21.9724 26.9141C15.5287 26.9141 10.5944 25.3499 10.5944 23.5014C10.5944 22.1351 13.2705 20.9567 17.1361 20.4116H26.8078Z" fill="#41415F"/>
<path d="M24.0728 22.5933C25.4129 23.283 26.0717 23.622 28.7038 26.2638C29.0521 26.1957 29.3868 26.1222 29.7078 26.0434C26.6524 22.9445 25.9585 22.587 24.4701 21.821L24.0728 22.5933Z" fill="#9E9EBF"/>
<path d="M20.9269 22.5933C19.5868 23.283 18.928 23.622 16.2959 26.2638C15.9476 26.1957 15.6129 26.1222 15.2919 26.0434C18.3473 22.9445 19.0412 22.587 20.5296 21.821L20.9269 22.5933Z" fill="#9E9EBF"/>
<path d="M22.4998 16.999C18.9636 16.999 17.616 20.0378 17.616 20.9688C17.616 23.0466 20.4147 23.5193 22.4998 23.5193C26.0612 23.5193 27.3836 22.3293 27.3836 20.9688C27.3836 19.7369 25.7524 16.999 22.4998 16.999Z" fill="#0098EE"/>
<path d="M20.6033 20.0921C21.0133 19.6821 21.1433 19.1473 20.8936 18.8976C20.6438 18.6479 20.109 18.7778 19.699 19.1878C19.289 19.5978 19.1591 20.1326 19.4088 20.3823C19.6585 20.632 20.1933 20.5021 20.6033 20.0921Z" fill="#E6E5FA"/>
</g>
<defs>
<clipPath id="clip0_949_2">
<rect width="44" height="44" fill="white"/>
</clipPath>
</defs>
</svg>
