<svg width="44" height="44" viewBox="0 0 44 44" fill="none" xmlns="http://www.w3.org/2000/svg">
<path fill-rule="evenodd" clip-rule="evenodd" d="M37.8683 27.3822C39.3278 28.8072 40.8683 30.1479 42.1773 31.7166C42.7556 32.4137 43.3031 33.133 43.7219 33.942C44.3153 35.0921 43.7778 36.3576 42.7466 36.4262L36.3366 36.4234C34.6833 36.5606 33.3645 35.895 32.2555 34.7646C31.368 33.8606 30.5462 32.8986 29.6928 31.9641C29.3429 31.5821 28.9768 31.2228 28.5393 30.9387C27.6642 30.3707 26.9047 30.5446 26.4046 31.4572C25.8953 32.3855 25.7798 33.4134 25.7298 34.4479C25.6611 35.9573 25.2049 36.3541 23.6887 36.4232C20.4484 36.576 17.3732 36.0858 14.5164 34.4512C11.9978 33.0102 10.0447 30.9758 8.34478 28.6728C5.03495 24.1882 2.50028 19.2604 0.222215 14.1945C-0.290559 13.0532 0.0844438 12.4405 1.34376 12.4188C3.4349 12.3782 5.52575 12.3811 7.61935 12.4159C8.46925 12.4284 9.0319 12.9158 9.36007 13.7187C10.4914 16.5006 11.8758 19.1473 13.6135 21.6006C14.0762 22.2538 14.5481 22.9069 15.22 23.3666C15.9634 23.8756 16.5294 23.7069 16.8791 22.8789C17.101 22.3538 17.1981 21.7883 17.2481 21.2259C17.4138 19.2912 17.4356 17.3598 17.1451 15.4318C16.9667 14.2286 16.289 13.4497 15.0883 13.222C14.4757 13.1059 14.5669 12.878 14.8635 12.5282C15.3788 11.9251 15.8634 11.5497 16.8293 11.5497H24.0737C25.2141 11.7748 25.4674 12.2871 25.6236 13.4347L25.6298 21.4816C25.6173 21.9259 25.8517 23.2442 26.6519 23.5382C27.2923 23.7476 27.7144 23.2352 28.0987 22.8291C29.8332 20.9882 31.0711 18.8127 32.177 16.5599C32.6678 15.5693 33.0898 14.5406 33.4988 13.5127C33.8018 12.75 34.2773 12.3747 35.1364 12.3913L42.1087 12.3976C42.3154 12.3976 42.5246 12.4006 42.7248 12.4349C43.8997 12.6351 44.2216 13.1405 43.8588 14.2878C43.287 16.0877 42.1746 17.5878 41.0869 19.0947C39.9241 20.7036 38.6806 22.2574 37.5275 23.8758C36.4682 25.3537 36.5523 26.0986 37.8683 27.3822Z" fill="white"/>
</svg>
