<svg width="34" height="34" viewBox="0 0 34 34" fill="none" xmlns="http://www.w3.org/2000/svg">
<path d="M25.5 3.1875H8.5C4.98419 3.1875 2.125 6.04669 2.125 9.5625V20.6699C2.12669 22.0868 2.6903 23.4452 3.69219 24.4471C4.69409 25.449 6.05248 26.0126 7.46938 26.0142H15.8397C17.9828 26.0142 20.0887 26.7463 21.7696 28.0755L24.7541 30.4342C25.0121 30.6392 25.3228 30.767 25.6504 30.8027C25.9779 30.8385 26.3089 30.7807 26.605 30.6361C27.2149 30.3407 27.5942 29.7362 27.5942 29.0594V25.9091C28.8018 25.6623 29.8873 25.0063 30.6673 24.052C31.4474 23.0977 31.8744 21.9035 31.8761 20.6709V9.5625C31.8738 7.87225 31.2013 6.25189 30.006 5.0568C28.8107 3.86172 27.1902 3.18947 25.5 3.1875ZM19.5011 15.3627C19.4659 15.7363 19.2922 16.0832 19.0142 16.3352C18.7362 16.5872 18.374 16.7262 17.9988 16.7248H16.0013C15.626 16.7262 15.2638 16.5872 14.9858 16.3352C14.7078 16.0832 14.5341 15.7363 14.4989 15.3627L13.804 8.25562C13.7773 7.984 13.8078 7.70979 13.8935 7.45065C13.9791 7.19151 14.1181 6.95319 14.3015 6.75101C14.4848 6.54884 14.7085 6.3873 14.9581 6.27679C15.2076 6.16628 15.4776 6.10925 15.7505 6.10938H18.2495C18.5223 6.10974 18.792 6.1671 19.0413 6.27777C19.2907 6.38845 19.5141 6.54999 19.6974 6.75206C19.8806 6.95412 20.0196 7.19225 20.1055 7.45117C20.1914 7.71009 20.2222 7.9841 20.196 8.25562L19.5011 15.3627ZM19.8507 20.2587C19.8507 21.8301 18.5714 23.1094 17 23.1094C15.4286 23.1094 14.1493 21.8301 14.1493 20.2587C14.1493 18.6872 15.4286 17.4091 17 17.4091C18.5714 17.4091 19.8507 18.6872 19.8507 20.2587Z" fill="#A67EFC"/>
<path d="M19.6977 6.75113C19.5143 6.54919 19.2907 6.38779 19.0414 6.27728C18.792 6.16677 18.5222 6.10958 18.2495 6.10938H15.7505C15.4777 6.10974 15.208 6.1671 14.9587 6.27777C14.7093 6.38845 14.4859 6.54999 14.3026 6.75206C14.1194 6.95412 13.9803 7.19225 13.8945 7.45117C13.8086 7.71009 13.7778 7.9841 13.804 8.25562L14.4988 15.3627C14.5341 15.7363 14.7078 16.0832 14.9858 16.3352C15.2638 16.5872 15.626 16.7262 16.0012 16.7248H17.9998C18.7807 16.7248 19.4257 16.1394 19.5022 15.3627L20.197 8.25562C20.2232 7.9839 20.1923 7.7097 20.1063 7.45061C20.0203 7.19153 19.8811 6.95327 19.6977 6.75113ZM17 17.4091C15.4285 17.4091 14.1493 18.6872 14.1493 20.2587C14.1493 21.8301 15.4285 23.1094 17 23.1094C18.5714 23.1094 19.8507 21.8301 19.8507 20.2587C19.8507 18.6872 18.5714 17.4091 17 17.4091Z" fill="#FBC34E"/>
</svg>
