<svg width="34" height="34" viewBox="0 0 34 34" fill="none" xmlns="http://www.w3.org/2000/svg">
<g clip-path="url(#clip0_960_22)">
<path d="M16.7525 33.331L17 33.4719L17.2475 33.331L31.2475 25.3568L31.5 25.213L31.5 24.9223L31.5 8.97407L31.5 8.68344L31.2475 8.5396L17.2475 0.565465L17 0.424512L16.7525 0.565465L2.75253 8.5396L2.5 8.68344L2.5 8.97407L2.5 24.9223L2.5 25.213L2.75254 25.3568L16.7525 33.331Z" fill="#B342D8" stroke="black"/>
<path d="M16.9834 32.8966L3.00005 24.9224V8.9741L16.9834 1V32.8966Z" fill="#C163E0"/>
<path d="M24.9434 13.9887C24.8802 13.7976 24.7655 13.6278 24.612 13.4982C24.4584 13.3686 24.2721 13.2843 24.0736 13.2546L19.8747 12.611L17.9869 8.57574C17.6291 7.80809 16.371 7.80809 16.0132 8.57574L14.1254 12.611L9.92645 13.2546C9.72821 13.2849 9.54213 13.3695 9.38866 13.499C9.23519 13.6285 9.12028 13.798 9.05655 13.9888C8.99282 14.1796 8.98274 14.3843 9.02741 14.5805C9.07208 14.7766 9.16978 14.9567 9.30978 15.1007L12.3801 18.2574L11.6529 22.7276C11.6197 22.9305 11.6443 23.1387 11.7236 23.3283C11.803 23.5178 11.9339 23.6812 12.1015 23.7995C12.2691 23.9179 12.4665 23.9864 12.6711 23.9974C12.8758 24.0084 13.0793 23.9613 13.2585 23.8615L17.0008 21.7863L20.7415 23.8615C20.9204 23.9621 21.124 24.0095 21.3288 23.9984C21.5335 23.9873 21.7308 23.9181 21.8978 23.7988C22.0649 23.6801 22.1955 23.5169 22.275 23.3276C22.3544 23.1383 22.3794 22.9304 22.3472 22.7276L21.62 18.2574L24.6903 15.1007C24.8303 14.9566 24.928 14.7766 24.9726 14.5804C25.0173 14.3842 25.0072 14.1795 24.9434 13.9887Z" fill="#FFBF56"/>
</g>
<defs>
<clipPath id="clip0_960_22">
<rect width="34" height="34" fill="white"/>
</clipPath>
</defs>
</svg>
