<svg width="40" height="40" viewBox="0 0 40 40" fill="none" xmlns="http://www.w3.org/2000/svg">
<g clip-path="url(#clip0_844_16)">
<path d="M38.8281 26.25H31.25C30.6028 26.25 30.0781 25.7253 30.0781 25.0781V14.4531C30.0781 13.8059 30.6028 13.2813 31.25 13.2813H38.8281C39.0035 13.2812 39.1766 13.3206 39.3347 13.3964C39.4928 13.4722 39.6318 13.5825 39.7417 13.7191C39.8515 13.8558 39.9292 14.0154 39.9692 14.1861C40.0091 14.3568 40.0103 14.5343 39.9725 14.7055L38.8563 19.7656L39.9726 24.8257C40.0103 24.9969 40.0092 25.1744 39.9692 25.3451C39.9293 25.5159 39.8515 25.6754 39.7417 25.8121C39.6319 25.9488 39.4928 26.0591 39.3347 26.1349C39.1766 26.2107 39.0035 26.25 38.8281 26.25Z" fill="#BA99F0"/>
<path d="M8.75002 26.25H1.1719C0.996565 26.25 0.823468 26.2107 0.665362 26.1349C0.507256 26.0591 0.368169 25.9488 0.258353 25.8121C0.148536 25.6754 0.0707876 25.5159 0.0308375 25.3451C-0.00911251 25.1744 -0.0102462 24.9969 0.02752 24.8257L1.14377 19.7656L0.02752 14.7056C-0.0102581 14.5344 -0.00912777 14.3569 0.0308276 14.1862C0.0707829 14.0155 0.148544 13.8559 0.258379 13.7192C0.368181 13.5825 0.507258 13.4722 0.665361 13.3964C0.823464 13.3206 0.996561 13.2813 1.1719 13.2812H8.75002C9.39721 13.2812 9.9219 13.8059 9.9219 14.4531V25.0781C9.9219 25.7253 9.39721 26.25 8.75002 26.25Z" fill="#BA99F0"/>
<path d="M20 36.4176C19.7977 36.4176 19.5953 36.3652 19.4141 36.2606L6.21094 28.6377C6.03279 28.5349 5.88486 28.387 5.78201 28.2088C5.67916 28.0307 5.62501 27.8286 5.625 27.6229V12.3772C5.625 12.1715 5.67914 11.9694 5.782 11.7913C5.88485 11.6131 6.03279 11.4652 6.21094 11.3624L19.4141 3.73955C19.5922 3.63668 19.7943 3.58252 20 3.58252C20.2057 3.58252 20.4078 3.63668 20.5859 3.73955L33.7891 11.3624C33.9672 11.4652 34.1151 11.6131 34.218 11.7913C34.3208 11.9694 34.375 12.1715 34.375 12.3772V27.6229C34.375 27.8286 34.3209 28.0307 34.218 28.2088C34.1151 28.387 33.9672 28.5349 33.7891 28.6377L20.5859 36.2606C20.4078 36.3635 20.2057 36.4176 20 36.4176Z" fill="#FDBF00"/>
<path fill-rule="evenodd" clip-rule="evenodd" d="M10 14V26L20 32L30 26V14L20 8L10 14Z" fill="#393E46"/>
</g>
<defs>
<clipPath id="clip0_844_16">
<rect width="40" height="40" fill="white"/>
</clipPath>
</defs>
</svg>
