<svg width="62" height="62" viewBox="0 0 62 62" fill="none" xmlns="http://www.w3.org/2000/svg">
<path fill-rule="evenodd" clip-rule="evenodd" d="M10 32C10 45.2548 20.7451 55.9999 33.9999 56C47.2548 56 57.9999 45.2549 58 32.0001C58 18.7452 47.2548 8.00004 34 8C20.7452 8 10.0001 18.7452 10 32Z" fill="#FA3226" fill-opacity="0.698039"/>
<path d="M33.4668 3.6C28.5335 6.93334 30.2668 12.1333 37.3335 15.6C44.8002 19.3333 48.8001 19.4667 50.6668 16.1333C54.0001 9.73334 51.7335 6.26667 42.2668 3.33334C37.0668 1.73334 35.8668 1.86667 33.4668 3.6Z" fill="black"/>
<path d="M5.20003 26.8C2.93336 29.0667 2.53336 30.6667 3.20003 34.8C4.40003 42 6.2667 46.6667 8.6667 47.4667C11.6 48.6667 16.9334 47.0667 17.7334 44.8C18.6667 42.6667 16 28.2667 14.2667 25.6C12.6667 23.0667 8.2667 23.7333 5.20003 26.8Z" fill="black"/>
<path d="M43.3334 45.8667C38.0001 51.0667 37.3334 52.2667 38.6667 54.5333C41.0668 59.2 44.4001 60.1333 49.4668 57.4667C56.2668 53.8667 59.4668 48.8 57.8668 44.4C55.7334 38.1333 50.5334 38.6667 43.3334 45.8667Z" fill="black"/>
</svg>
