<svg width="20" height="20" viewBox="0 0 20 20" fill="none" xmlns="http://www.w3.org/2000/svg">
<path fill-rule="evenodd" clip-rule="evenodd" d="M3.22583 10.3226C3.22583 14.5984 6.69199 18.0645 10.9677 18.0646C15.2435 18.0646 18.7097 14.5984 18.7097 10.3227C18.7097 6.04688 15.2435 2.5807 10.9678 2.58069C6.69202 2.58069 3.22586 6.04688 3.22583 10.3226Z" fill="#FA3226" fill-opacity="0.698039"/>
<path d="M10.7957 1.16131C9.20433 2.23658 9.76346 3.91399 12.043 5.03228C14.4517 6.23657 15.7419 6.2796 16.3441 5.20431C17.4194 3.13981 16.6882 2.02152 13.6344 1.07529C11.957 0.55916 11.5699 0.60217 10.7957 1.16131Z" fill="#3C505A"/>
<path d="M1.67745 8.64513C0.94627 9.37632 0.817238 9.89245 1.03229 11.2258C1.41939 13.5484 2.02154 15.0537 2.79573 15.3118C3.74196 15.6989 5.46241 15.1828 5.72048 14.4516C6.02154 13.7634 5.16131 9.11826 4.60219 8.25803C4.08606 7.44084 2.6667 7.65587 1.67745 8.64513Z" fill="#3C505A"/>
<path d="M13.9785 14.7957C12.2581 16.4731 12.043 16.8602 12.4731 17.5914C13.2474 19.0968 14.3226 19.3979 15.957 18.5377C18.1506 17.3764 19.1828 15.742 18.6667 14.3226C17.9785 12.3011 16.3011 12.4731 13.9785 14.7957Z" fill="#3C505A"/>
</svg>
