<?xml version="1.0" encoding="utf-8"?>
<svg width="93px" height="93px" viewBox="0 0 93 93" version="1.1" xmlns:xlink="http://www.w3.org/1999/xlink" xmlns="http://www.w3.org/2000/svg">
  <g id="ship" transform="translate(1.5 1.5)">
    <path d="M0 44.9999C0 69.8526 20.1471 89.9998 44.9999 89.9999C69.8527 89.9999 89.9999 69.8529 90 45.0001C90 20.1472 69.8529 6.10352e-05 45.0001 0C20.1473 -6.10352e-05 0.00012207 20.147 0 44.9998" id="Фигура" fill="#393E46" fill-opacity="0.8980392" fill-rule="evenodd" stroke="#393E46" stroke-width="3" stroke-linecap="round" stroke-linejoin="round" />
    <path d="M9 44.9999C9 64.8821 25.1177 80.9999 44.9999 80.9999C64.8821 81 80.9999 64.8824 81 45.0001C81 25.1178 64.8823 9.00009 45.0001 9.00003C25.1179 8.99997 9.00009 25.1176 9 44.9998" id="Фигура" fill="#393E46" fill-opacity="0.8980392" fill-rule="evenodd" stroke="#FFC536" stroke-width="10" stroke-linecap="round" stroke-dasharray="3,7156668 33,441" />
    <path d="M24 45C24 56.598 33.402 66 44.9999 66C56.5979 66 65.9999 56.5981 66 45.0001C66 33.4021 56.598 24.0001 45.0001 24.0001C33.4021 24 24.0001 33.402 24 44.9999" id="Фигура" fill="#63DAFC" fill-opacity="0.8980392" fill-rule="evenodd" stroke="#2A2E33" stroke-opacity="0.8980392" stroke-width="2" stroke-linecap="round" stroke-linejoin="round" />
  </g>
</svg>