<svg width="28" height="28" viewBox="0 0 28 28" fill="none" xmlns="http://www.w3.org/2000/svg">
<g clip-path="url(#clip0_803_568)">
<path d="M24.8321 26.5269L27.9742 9.92357C28.0214 9.67401 28.0037 9.41879 27.9224 9.17553C27.8411 8.93228 27.6981 8.70676 27.5032 8.51456C27.3083 8.32236 27.0662 8.16805 26.7935 8.06226C26.5209 7.95648 26.2243 7.90176 25.9241 7.90186L2.07621 7.90186C0.800391 7.90186 -0.173986 8.86217 0.0261429 9.92357L3.16692 26.5279C3.24462 26.9385 3.49375 27.3124 3.86953 27.5822C4.2453 27.852 4.72308 28.0002 5.21699 28L22.7833 28C23.804 28 24.672 27.3756 24.8334 26.5279L24.8321 26.5269Z" fill="#FFBE3D"/>
<path d="M14 23.4911L19 20.5934V14.7979L14 11.9001V23.4911Z" fill="#C163E0"/>
<path d="M14 23.4911L9 20.5934V14.7979L14 11.9001V23.4911Z" fill="#C163E0"/>
<path d="M20.7961 12.4297C20.5308 12.4297 20.2763 12.3371 20.0886 12.1721C19.901 12.0072 19.7955 11.7835 19.7955 11.5502V6.41937C19.7955 3.84866 17.417 1.75796 14.4935 1.75796C11.5701 1.75796 9.19036 3.84866 9.19036 6.41937V11.5502C9.19502 11.6682 9.17261 11.7858 9.12445 11.896C9.07629 12.0063 9.00338 12.1068 8.91007 12.1918C8.81675 12.2767 8.70493 12.3442 8.58128 12.3903C8.45763 12.4365 8.32468 12.4602 8.19036 12.4602C8.05604 12.4602 7.92309 12.4365 7.79944 12.3903C7.67579 12.3442 7.56397 12.2767 7.47065 12.1918C7.37734 12.1068 7.30443 12.0063 7.25627 11.896C7.20812 11.7858 7.1857 11.6682 7.19036 11.5502L7.19036 6.41937C7.19036 2.88014 10.467 0 14.4935 0C18.5201 0 21.7967 2.88014 21.7967 6.41937V11.5502C21.7967 11.7835 21.6913 12.0072 21.5037 12.1721C21.316 12.3371 21.0615 12.4297 20.7961 12.4297Z" fill="#FF9A38"/>
</g>
<defs>
<clipPath id="clip0_803_568">
<rect width="28" height="28" fill="white"/>
</clipPath>
</defs>
</svg>
