<svg width="22" height="22" viewBox="0 0 22 22" fill="none" xmlns="http://www.w3.org/2000/svg">
<g clip-path="url(#clip0_939_2)">
<path d="M13.928 0.657614C14.1221 0.453251 14.3551 0.289766 14.6133 0.176781C14.8714 0.0637962 15.1496 0.00359229 15.4314 -0.000287947C15.7132 -0.00416818 15.993 0.0483536 16.2542 0.154187C16.5154 0.260021 16.7528 0.417028 16.9524 0.615971C17.1521 0.813692 17.3097 1.04979 17.4157 1.31003C17.5781 1.70368 17.6177 2.13727 17.5291 2.5538C17.4405 2.97034 17.228 3.35033 16.9194 3.64381L9.88164 10.6573C9.83156 10.7067 9.79201 10.7657 9.76538 10.8308C9.73794 10.8953 9.72379 10.9646 9.72379 11.0347C9.72379 11.1048 9.73794 11.1741 9.76538 11.2386C9.79129 11.3041 9.83093 11.3632 9.88164 11.4121L16.9194 18.436C17.2233 18.7589 17.418 19.1691 17.476 19.6087C17.5341 20.0482 17.4525 20.4949 17.2429 20.8856C17.0332 21.2763 16.7061 21.5912 16.3078 21.7859C15.9094 21.9806 15.4599 22.0452 15.0229 21.9705C14.5788 21.8685 14.1764 21.6336 13.869 21.2973L5.09782 12.5434C4.77268 12.2341 4.55142 11.8316 4.46449 11.3913C4.39858 11.0542 4.41706 10.7061 4.51828 10.3779C4.61925 10.051 4.79784 9.75331 5.03882 9.51036L13.928 0.657614Z" fill="white"/>
</g>
<defs>
<clipPath id="clip0_939_2">
<rect width="22" height="22" fill="white"/>
</clipPath>
</defs>
</svg>
