<svg width="68" height="68" viewBox="0 0 68 68" fill="none" xmlns="http://www.w3.org/2000/svg">
<path d="M13.7792 40.0622L13.7636 40.0335L13.7445 40.0071C10.7807 35.92 9 30.9333 9 25.5C9 11.6938 20.1938 0.5 34 0.5C47.8062 0.5 59 11.6938 59 25.5C59 30.9333 57.2193 35.92 54.2555 40.0071L54.2364 40.0335L54.2208 40.0622C54.1709 40.1542 54.1415 40.2499 54.1282 40.2935C54.1267 40.2982 54.1255 40.3022 54.1244 40.3056C54.1181 40.3257 54.1141 40.3368 54.1122 40.3419L37.12 65.8303C36.4244 66.8737 35.2525 67.5 34 67.5C32.7475 67.5 31.5756 66.8737 30.88 65.8303L13.8888 40.3435C13.8869 40.3384 13.8827 40.3267 13.8756 40.3046C13.8746 40.3011 13.8733 40.2971 13.8719 40.2925C13.8582 40.2484 13.8288 40.1537 13.7792 40.0622ZM25 25.5C25 30.4703 29.0297 34.5 34 34.5C38.9703 34.5 43 30.4703 43 25.5C43 20.5297 38.9703 16.5 34 16.5C29.0297 16.5 25 20.5297 25 25.5Z" fill="#E3DDCF" stroke="black"/>
</svg>
