<svg width={props.width} height={props.height} viewBox="0 0 10 10" fill="none" xmlns="http://www.w3.org/2000/svg">
<path d="M5 0C2.92906 0 1.25 1.67906 1.25 3.75C1.25 4.56547 1.51734 5.31375 1.96172 5.92656C1.96969 5.94125 1.97094 5.95766 1.98 5.97172L4.48 9.72172C4.59594 9.89563 4.79125 10 5 10C5.20875 10 5.40406 9.89563 5.52 9.72172L8.02 5.97172C8.02922 5.95766 8.03031 5.94125 8.03828 5.92656C8.48266 5.31375 8.75 4.56547 8.75 3.75C8.75 1.67906 7.07094 0 5 0ZM5 5C4.30969 5 3.75 4.44031 3.75 3.75C3.75 3.05969 4.30969 2.5 5 2.5C5.69031 2.5 6.25 3.05969 6.25 3.75C6.25 4.44031 5.69031 5 5 5Z" fill="white"/>
</svg>
