<svg width="40" height="40" viewBox="0 0 40 40" fill="none" xmlns="http://www.w3.org/2000/svg">
<path d="M20 12.627C19.4499 12.627 19.0039 12.1811 19.0039 11.631V7.64844C19.0039 7.09833 19.4499 6.65234 20 6.65234C20.5501 6.65234 20.9961 7.09833 20.9961 7.64844V11.631C20.9961 12.1811 20.5501 12.627 20 12.627Z" fill="#F0F7FF"/>
<path d="M24.6484 7.64844H19.0039V3.99609C19.0039 3.44598 19.4499 3 20 3H24.6484C25.1985 3 25.6445 3.44598 25.6445 3.99609V6.65234C25.6445 7.20245 25.1985 7.64844 24.6484 7.64844Z" fill="#FF8659"/>
<path d="M25.3114 11.0995H14.6885C9.39982 11.0995 5.09723 15.4021 5.09723 20.6908V32.5155C5.09723 33.0656 5.54321 33.5116 6.09332 33.5116H33.9067C34.4568 33.5116 34.9027 33.0656 34.9027 32.5155V20.6907C34.9027 15.4021 30.6001 11.0995 25.3114 11.0995Z" fill="#C7CFE1"/>
<path d="M25.3114 11.0995H14.6885C9.39982 11.0995 5.09723 15.4021 5.09723 20.6908V32.5155C5.09723 33.0656 5.54321 33.5116 6.09332 33.5116H33.9067C34.4568 33.5116 34.9027 33.0656 34.9027 32.5155V20.6907C34.9027 15.4021 30.6001 11.0995 25.3114 11.0995Z" fill="#C7CFE1"/>
<path d="M25.3114 11.0995H20V33.5116H33.9067C34.4568 33.5116 34.9028 33.0656 34.9028 32.5155V20.6907C34.9028 15.4021 30.6001 11.0995 25.3114 11.0995Z" fill="#A3B1CC"/>
<path d="M28.1904 32.8475H11.8096C11.2595 32.8475 10.8135 32.4015 10.8135 31.8514V19.0468C10.8135 18.4966 11.2595 18.0507 11.8096 18.0507H28.1904C28.7405 18.0507 29.1865 18.4966 29.1865 19.0468V31.8514C29.1865 32.4015 28.7405 32.8475 28.1904 32.8475Z" fill="#DFE7F4"/>
<path d="M28.1904 32.8475H11.8096C11.2595 32.8475 10.8135 32.4015 10.8135 31.8514V19.0468C10.8135 18.4966 11.2595 18.0507 11.8096 18.0507H28.1904C28.7405 18.0507 29.1865 18.4966 29.1865 19.0468V31.8514C29.1865 32.4015 28.7405 32.8475 28.1904 32.8475Z" fill="#DFE7F4"/>
<path d="M28.1904 18.0507H20V32.8475H28.1904C28.7405 32.8475 29.1865 32.4015 29.1865 31.8514V19.0468C29.1865 18.4966 28.7405 18.0507 28.1904 18.0507Z" fill="#C7CFE1"/>
<path d="M36.0039 31.5194H3.99609C3.44598 31.5194 3 31.9654 3 32.5155V36.0039C3 36.554 3.44598 37 3.99609 37H36.0039C36.554 37 37 36.554 37 36.0039V32.5155C37 31.9654 36.554 31.5194 36.0039 31.5194Z" fill="#4D4D80"/>
<path d="M36.0039 31.5194H3.99609C3.44598 31.5194 3 31.9654 3 32.5155V36.0039C3 36.554 3.44598 37 3.99609 37H36.0039C36.554 37 37 36.554 37 36.0039V32.5155C37 31.9654 36.554 31.5194 36.0039 31.5194Z" fill="#4D4D80"/>
<path d="M36.0039 31.5194H20V37H36.0039C36.554 37 37 36.554 37 36.0039V32.5155C37 31.9654 36.554 31.5194 36.0039 31.5194Z" fill="#443D66"/>
</svg>
