<svg width="44" height="44" viewBox="0 0 44 44" fill="none" xmlns="http://www.w3.org/2000/svg">
<path d="M22.0468 18.7234C23.7012 18.7234 25.0426 20.1061 25.0426 21.8128C25.0426 23.5187 23.7012 24.9021 22.0468 24.9021C20.3924 24.9021 19.0511 23.5187 19.0511 21.8128C19.0511 20.1061 20.3924 18.7234 22.0468 18.7234Z" fill="url(#paint0_linear_727_3)"/>
<path d="M19.566 22.9841C19.566 21.2774 20.9073 19.8947 22.5617 19.8947C23.5506 19.8947 24.4275 20.3887 24.9731 21.1509C24.6792 19.7627 23.4807 18.7234 22.0468 18.7234C20.3924 18.7234 19.0511 20.1061 19.0511 21.8128C19.0511 22.4988 19.2683 23.1326 19.6354 23.6452C19.5894 23.4278 19.5661 23.2063 19.566 22.9841Z" fill="url(#paint1_linear_727_3)"/>
<path d="M22.2285 38.5731C23.6412 38.617 24.7822 39.7414 24.8517 41.1476C24.8542 41.1933 24.8553 41.2393 24.8553 41.2851C24.8553 42.7848 23.6402 44 22.1404 44C20.6407 44 19.4255 42.7848 19.4255 41.2851C19.4255 41.2654 19.4267 41.2456 19.4274 41.2262C19.4585 39.7543 20.6603 38.5702 22.1404 38.5702C22.1694 38.5702 22.1993 38.5713 22.2285 38.5731Z" fill="url(#paint2_linear_727_3)"/>
<path d="M20.196 42.2681C20.196 42.2484 20.1968 42.2286 20.1979 42.2092C20.2286 40.7372 21.431 39.5532 22.9109 39.5532C22.9399 39.5532 22.9699 39.5543 22.9991 39.5561C23.6061 39.5748 24.163 39.7939 24.6067 40.1489C24.1879 39.2424 23.2843 38.606 22.2285 38.5731C22.1993 38.5712 22.1694 38.5702 22.1404 38.5702C20.6604 38.5702 19.4585 39.7543 19.4274 41.2262C19.4267 41.2456 19.4255 41.2653 19.4255 41.2851C19.4255 42.1437 19.8242 42.9084 20.4458 43.4057C20.281 43.0491 20.1957 42.6609 20.196 42.2681Z" fill="url(#paint3_linear_727_3)"/>
<path d="M33.8162 33.618C34.8123 32.6218 36.3899 32.5618 37.4563 33.4373C37.5256 33.4943 37.5921 33.5546 37.6556 33.618C38.7161 34.6777 38.7161 36.3966 37.6556 37.457C36.5958 38.5167 34.8761 38.5167 33.8162 37.457C33.7723 37.4131 33.731 37.3681 33.6919 37.3224C32.7585 36.2561 32.7995 34.6346 33.8162 33.618Z" fill="url(#paint4_linear_727_3)"/>
<path d="M34.5874 34.6011C35.5759 33.6126 37.1364 33.5464 38.202 34.4007C38.0677 34.1094 37.8827 33.8444 37.6556 33.618C37.5921 33.5545 37.5255 33.4942 37.456 33.4373C36.3899 32.562 34.8123 32.6219 33.8161 33.618C32.7995 34.6347 32.7583 36.2561 33.6919 37.3224C33.731 37.3683 33.7723 37.4132 33.8162 37.4571C33.8879 37.5287 33.9636 37.5962 34.043 37.6593C33.5789 36.6563 33.7599 35.4282 34.5874 34.6011Z" fill="url(#paint5_linear_727_3)"/>
<path d="M41.2851 19.1447C42.7848 19.1447 44 20.3598 44 21.8595C44 23.3593 42.7848 24.5744 41.2851 24.5744C41.1849 24.5744 41.0858 24.5689 40.9881 24.5576C39.7115 24.4202 38.6992 23.3939 38.5815 22.1115C38.5739 22.0277 38.5701 21.9437 38.5702 21.8595C38.5702 20.4824 39.5953 19.3457 40.9245 19.1692C41.044 19.1529 41.1645 19.1447 41.2851 19.1447Z" fill="url(#paint6_linear_727_3)"/>
<path d="M39.2336 23.2459C39.2259 23.1623 39.2221 23.0783 39.2222 22.9943C39.2222 21.6172 40.2473 20.4806 41.5765 20.3035C41.696 20.2874 41.8165 20.2792 41.9371 20.279C42.7072 20.279 43.4017 20.6001 43.8958 21.115C43.5721 19.9774 42.5266 19.1447 41.2851 19.1447C41.1625 19.1447 41.0426 19.1531 40.9245 19.1692C39.5953 19.3457 38.5702 20.4823 38.5702 21.8595C38.5702 21.9447 38.5739 22.0281 38.5815 22.1115C38.6393 22.7397 38.9125 23.3058 39.3258 23.737C39.2799 23.5765 39.249 23.4121 39.2336 23.2459Z" fill="url(#paint7_linear_727_3)"/>
<path d="M37.4571 6.34439C38.5169 7.40414 38.5169 9.12388 37.4571 10.1837C37.3767 10.2639 37.2913 10.3389 37.2014 10.4083C36.1362 11.2369 34.5963 11.163 33.6181 10.1837C32.646 9.21207 32.5655 7.68677 33.3756 6.62262C33.4497 6.5242 33.5307 6.43122 33.6181 6.34439C34.6778 5.2838 36.3967 5.2838 37.4571 6.34439Z" fill="url(#paint8_linear_727_3)"/>
<path d="M34.1867 7.66776C34.261 7.56959 34.342 7.47671 34.4292 7.38981C35.4106 6.40721 36.9575 6.33559 38.0231 7.173C37.8878 6.86388 37.6958 6.58284 37.457 6.34439C36.3965 5.2838 34.6778 5.2838 33.6181 6.34439C33.5308 6.43117 33.4498 6.52402 33.3756 6.62225C32.5655 7.68677 32.646 9.21169 33.6181 10.1837C33.6949 10.2597 33.7762 10.331 33.8616 10.3973C33.4746 9.51164 33.583 8.46173 34.1867 7.66776Z" fill="url(#paint9_linear_727_3)"/>
<path d="M24.5744 2.71489C24.5744 2.81038 24.5698 2.90503 24.5595 2.99762C24.4179 4.36443 23.2638 5.42979 21.8595 5.42979C21.7996 5.42979 21.7407 5.42791 21.6826 5.42323C20.3598 5.33907 19.2954 4.30638 19.1596 2.99762C19.1493 2.90503 19.1447 2.81038 19.1447 2.71489C19.1447 1.21515 20.3598 0 21.8595 0C23.3593 0 24.5744 1.21515 24.5744 2.71489Z" fill="url(#paint10_linear_727_3)"/>
<path d="M19.8618 4.246C19.8515 4.15313 19.8468 4.05877 19.8468 3.96328C19.8468 2.46325 21.0619 1.24838 22.5617 1.24838C23.3175 1.24838 24.0014 1.55751 24.4936 2.05592C24.1992 0.875132 23.1322 0 21.8595 0C20.3598 0 19.1447 1.21515 19.1447 2.71489C19.1447 2.81038 19.1493 2.90503 19.1596 2.99762C19.2235 3.61042 19.4944 4.18313 19.9276 4.62122C19.8968 4.49785 19.8748 4.37247 19.8618 4.246Z" fill="url(#paint11_linear_727_3)"/>
<path d="M10.2941 6.66064C11.2425 7.72628 11.2059 9.36056 10.1837 10.3819C9.16051 11.4063 7.52296 11.441 6.45666 10.488C6.41828 10.4543 6.38092 10.4185 6.34432 10.3819C5.28383 9.32217 5.28383 7.60337 6.34432 6.54297C7.40407 5.4821 9.124 5.4821 10.1837 6.54297C10.2221 6.58135 10.2583 6.62048 10.2941 6.66064Z" fill="url(#paint12_linear_727_3)"/>
<path d="M7.12447 7.72894C8.14508 6.70758 9.77711 6.66985 10.8431 7.61594C10.728 7.26319 10.5411 6.93808 10.2942 6.66105C10.2584 6.62051 10.2222 6.58138 10.1838 6.543C9.12403 5.48241 7.4042 5.48241 6.34445 6.543C5.28386 7.60349 5.28386 9.32221 6.34445 10.3823C6.38096 10.4186 6.41832 10.4544 6.4567 10.4881C6.45923 10.4903 6.46175 10.492 6.46438 10.4947C6.15638 9.55335 6.37591 8.4775 7.12447 7.72894Z" fill="url(#paint13_linear_727_3)"/>
<path d="M2.7588 19.4267C4.03106 19.4471 5.0908 20.3413 5.36135 21.5367C5.40638 21.7305 5.42979 21.9327 5.42979 22.1404C5.42979 23.6208 4.2446 24.8235 2.772 24.8535C2.75328 24.8542 2.73362 24.8553 2.71489 24.8553C1.21515 24.8553 0 23.6402 0 22.1404C0 20.6407 1.21515 19.4255 2.71489 19.4255C2.72987 19.4255 2.74382 19.4267 2.7588 19.4267Z" fill="url(#paint14_linear_727_3)"/>
<path d="M5.36143 21.5366C5.09079 20.3412 4.03104 19.4471 2.75879 19.4267C2.74381 19.4267 2.72986 19.4255 2.71488 19.4255C1.51509 19.4255 0.497656 20.2038 0.138916 21.2833C0.635436 20.8396 1.2782 20.5948 1.94404 20.5957C1.95902 20.5957 1.97287 20.5969 1.98785 20.5969C3.26011 20.6173 4.31985 21.5115 4.5905 22.7069C4.63543 22.9007 4.65884 23.1029 4.65884 23.3106C4.65879 23.6014 4.61201 23.8903 4.52029 24.1663C5.07796 23.6695 5.42978 22.9461 5.42978 22.1404C5.42978 21.9327 5.40637 21.7305 5.36143 21.5366Z" fill="url(#paint15_linear_727_3)"/>
<path d="M10.3819 33.8166C11.4308 34.8639 11.4417 36.5556 10.4178 37.618C10.4066 37.6304 10.3944 37.6436 10.3819 37.6556C9.32219 38.7162 7.60338 38.7162 6.54298 37.6556C5.48323 36.5947 5.48323 34.8761 6.54298 33.8163C6.54363 33.8155 6.54485 33.8144 6.54579 33.8144C7.60525 32.7558 9.32219 32.7565 10.3819 33.8166Z" fill="url(#paint16_linear_727_3)"/>
<path d="M6.54076 35.2303C6.54188 35.2293 6.54263 35.2281 6.54366 35.2281C7.60341 34.1694 9.32034 34.1705 10.3801 35.2303C10.7174 35.5665 10.9597 35.986 11.0822 36.4463C11.3281 35.5386 11.0951 34.5285 10.382 33.8162C9.32222 32.7565 7.60528 32.7557 6.54591 33.8143C6.54479 33.8143 6.54366 33.8154 6.54301 33.8162C5.83283 34.5264 5.59916 35.5328 5.84088 36.4385C5.96426 35.9814 6.20562 35.5647 6.54076 35.2303Z" fill="url(#paint17_linear_727_3)"/>
<path d="M5.42979 22.1404C5.42979 21.9326 5.40639 21.7304 5.36145 21.5365L5.38298 21.5319L11 22.468L16.4009 31.5478H22.234V38.3829L22.2285 38.5731C22.1993 38.5712 22.1694 38.5702 22.1404 38.5702C20.6604 38.5702 19.4585 39.7542 19.4274 41.2262C16.0816 40.8056 13.0032 39.5272 10.4178 37.6179C11.4418 36.5555 11.4307 34.8639 10.3819 33.8166C9.3222 32.7568 7.60526 32.7557 6.54589 33.8143C4.58434 31.256 3.25029 28.1936 2.77191 24.8534C4.2446 24.8234 5.42979 23.6207 5.42979 22.1404Z" fill="url(#paint18_linear_727_3)"/>
<path d="M3.67556 25.8291C5.14816 25.7995 6.33335 24.5963 6.33335 23.1164C6.33335 22.9083 6.30995 22.7061 6.26501 22.5126L6.28654 22.5079L11.5448 23.3842L11 22.468L5.38295 21.5319L5.36142 21.5365C5.40636 21.7304 5.42976 21.9326 5.42976 22.1404C5.42976 23.6207 4.24457 24.8234 2.77197 24.8534C3.25026 28.1936 4.5843 31.256 6.54586 33.8144C6.58677 33.7734 6.6289 33.7347 6.67168 33.6969C5.13571 31.3766 4.08767 28.7068 3.67556 25.8291Z" fill="url(#paint19_linear_727_3)"/>
<path d="M17.3042 32.5239H22.2341V31.5479H16.7238L17.3042 32.5239Z" fill="url(#paint20_linear_727_3)"/>
<path d="M11.5149 38.3695C12.3387 37.305 12.2631 35.7688 11.2855 34.7923C11.1519 34.6584 11.0046 34.5389 10.846 34.4357C11.4008 35.4513 11.2582 36.7461 10.4174 37.618C10.7745 37.881 11.1405 38.1317 11.5149 38.3695Z" fill="url(#paint21_linear_727_3)"/>
<path d="M40.9881 24.5576C40.5691 27.8492 39.318 30.8805 37.4564 33.4374C36.39 32.5619 34.8123 32.6219 33.8162 33.6181C32.7996 34.6347 32.7587 36.2562 33.6919 37.3225C31.1708 39.2844 28.1498 40.6334 24.8517 41.1477C24.7822 39.7416 23.6412 38.617 22.2285 38.5732L22.234 38.383V31.5478H27.3183L32.7772 22.0936L38.5701 22.1124L38.5814 22.1115C38.6992 23.3941 39.7114 24.4201 40.9881 24.5577L40.9881 24.5576Z" fill="url(#paint22_linear_727_3)"/>
<path d="M24.3126 39.6573C24.6373 40.089 24.8251 40.6081 24.8517 41.1475C25.089 41.1103 25.3244 41.0679 25.5585 41.0225C25.3151 40.4361 24.8744 39.9532 24.3126 39.6573Z" fill="url(#paint23_linear_727_3)"/>
<path d="M40.9205 25.0295C40.9443 24.8726 40.9681 24.7157 40.9882 24.5577C40.6509 24.5208 40.3237 24.4203 40.0239 24.2615C40.263 24.58 40.569 24.8422 40.9205 25.0295Z" fill="url(#paint24_linear_727_3)"/>
<path d="M23.1431 32.3228H28.2274L33.6864 22.8685L38.7728 22.885C38.6737 22.6421 38.6064 22.3832 38.5815 22.1115L38.5702 22.1123L32.7773 22.0936L27.3183 31.5478H22.234V38.383L22.2285 38.5731C22.5507 38.583 22.8586 38.6499 23.1432 38.763L23.1431 32.3228Z" fill="url(#paint25_linear_727_3)"/>
<path d="M33.6181 10.1837C34.5963 11.1626 36.1362 11.2369 37.2015 10.4083C39.1151 12.9172 40.4287 15.9083 40.9249 19.1688C39.5953 19.3457 38.5702 20.4823 38.5702 21.8595C38.5702 21.9447 38.574 22.028 38.5816 22.1114L38.5702 22.1122L32.7773 22.0936L27.3183 12.6382H21.7546L21.6826 5.42318C21.7407 5.42786 21.7996 5.42973 21.8596 5.42973C23.2638 5.42973 24.418 4.36446 24.5595 2.99756C27.8332 3.45647 30.8439 4.73603 33.3756 6.6226C32.5655 7.68674 32.646 9.21158 33.6181 10.1837Z" fill="url(#paint26_linear_727_3)"/>
<path d="M38.6005 21.4555L33.3288 21.4383L27.8697 11.9829H22.306L22.2402 5.40308C22.1141 5.42087 21.9869 5.42979 21.8596 5.42976C21.7996 5.42976 21.7407 5.42788 21.6826 5.4232L21.7546 12.6383H27.3183L32.7773 22.0936L38.5702 22.1123L38.5815 22.1115C38.5615 21.8928 38.5679 21.6726 38.6005 21.4555Z" fill="url(#paint27_linear_727_3)"/>
<path d="M24.9361 3.05635C24.8106 3.03632 24.6856 3.01544 24.5595 2.99756C24.5186 3.39213 24.3912 3.77284 24.1864 4.11254C24.5177 3.826 24.7749 3.46366 24.9361 3.05635Z" fill="url(#paint28_linear_727_3)"/>
<path d="M39.5085 19.8073C39.9081 19.4608 40.4003 19.239 40.9245 19.1692C40.8997 19.0046 40.8711 18.8415 40.8419 18.6787C40.2857 18.8984 39.8172 19.295 39.5085 19.8073Z" fill="url(#paint29_linear_727_3)"/>
<path d="M17.0036 18.2918C17.3415 18.6309 17.8904 18.6309 18.229 18.2918C18.567 17.9539 18.567 17.4054 18.229 17.0663C17.8904 16.7285 17.3415 16.7285 17.0036 17.0663C16.6649 17.4054 16.6649 17.9539 17.0036 18.2918ZM25.7081 18.229C26.046 18.5669 26.5946 18.5669 26.9328 18.229C27.2715 17.8903 27.2715 17.3417 26.9328 17.0035C26.5945 16.6649 26.046 16.6649 25.7081 17.0035C25.3692 17.3415 25.3692 17.8903 25.7081 18.229ZM25.771 26.9327C26.1096 27.2714 26.6582 27.2714 26.9964 26.9327C27.335 26.5945 27.335 26.046 26.9964 25.708C26.6585 25.3691 26.1096 25.3691 25.771 25.708C25.6087 25.8705 25.5175 26.0907 25.5175 26.3204C25.5175 26.55 25.6087 26.7702 25.771 26.9327ZM21.0891 15.8446C21.0891 16.324 21.4767 16.7117 21.9551 16.7117C22.4334 16.7117 22.822 16.3241 22.822 15.8446C22.822 15.3662 22.4333 14.9787 21.9551 14.9787C21.4768 14.9787 21.0891 15.3662 21.0891 15.8446ZM15.8447 22.9108C16.3241 22.9108 16.7117 22.5233 16.7117 22.0449C16.7117 21.5665 16.3242 21.1779 15.8447 21.1779C15.3663 21.1779 14.9787 21.5662 14.9787 22.0449C14.9787 22.2745 15.0699 22.4948 15.2323 22.6572C15.3947 22.8196 15.615 22.9108 15.8447 22.9108ZM27.2882 21.955C27.2882 22.4333 27.6758 22.822 28.1553 22.822C28.6337 22.822 29.0213 22.4337 29.0213 21.955C29.0213 21.7253 28.93 21.5051 28.7676 21.3427C28.6052 21.1803 28.385 21.089 28.1553 21.089C27.6759 21.089 27.2882 21.4766 27.2882 21.955ZM22.0449 29.0212C22.5233 29.0212 22.9109 28.6336 22.9109 28.1541C22.9109 27.6758 22.5233 27.2882 22.0449 27.2882C21.5665 27.2882 21.1779 27.6758 21.1779 28.1541C21.1779 28.6335 21.5666 29.0212 22.0449 29.0212ZM17.0672 26.9964C17.4055 27.335 17.954 27.335 18.2919 26.9964C18.6308 26.6584 18.6308 26.1095 18.2919 25.7709C17.954 25.433 17.4054 25.433 17.0672 25.7709C16.7285 26.1095 16.7285 26.6584 17.0672 26.9964ZM21.7546 12.6382H27.3183L32.7773 22.0936L27.3183 31.5478H16.4008L11 22.468L5.38297 21.5319L5.36144 21.5365C5.09079 20.3411 4.03104 19.447 2.75879 19.4266C3.21845 16.1009 4.52656 13.0463 6.45666 10.488C7.52296 11.441 9.1606 11.4062 10.1837 10.3823C11.2059 9.36089 11.2425 7.72634 10.2942 6.66098C12.8357 4.75288 15.8644 3.459 19.1597 2.99756C19.2953 4.30632 20.3599 5.33901 21.6825 5.42318L21.7546 12.6382ZM25.0425 21.8127C25.0425 20.1061 23.7012 18.7233 22.0468 18.7233C20.3924 18.7233 19.0511 20.1061 19.0511 21.8127C19.0511 23.5187 20.3924 24.9021 22.0468 24.9021C23.7012 24.9021 25.0425 23.5187 25.0425 21.8127Z" fill="url(#paint30_linear_727_3)"/>
<path d="M24.4911 20.0278C24.8377 20.5317 25.0425 21.1475 25.0425 21.8127C25.0425 23.5187 23.7012 24.9021 22.0468 24.9021C21.446 24.9021 20.8869 24.7189 20.4177 24.4047C20.9604 25.1935 21.8526 25.7088 22.8615 25.7088C24.5159 25.7088 25.8573 24.3254 25.8573 22.6198C25.8573 21.5329 25.3133 20.5781 24.4911 20.0278Z" fill="url(#paint31_linear_727_3)"/>
<path d="M7.27178 11.2946C8.33807 12.2477 9.97534 12.2129 10.9985 11.189C12.021 10.1677 12.0576 8.53295 11.109 7.46777C13.5057 5.66845 16.3354 4.41642 19.4134 3.89198C19.2777 3.61077 19.1919 3.30813 19.1597 2.99756C15.8644 3.45909 12.8357 4.75288 10.2942 6.66061C11.2424 7.72625 11.2058 9.36052 10.1837 10.3819C9.1605 11.4062 7.52295 11.441 6.45703 10.488C4.52655 13.0463 3.21881 16.1009 2.75916 19.4262C3.08026 19.4317 3.38779 19.4927 3.6723 19.5999C4.2032 16.5204 5.4645 13.6899 7.27178 11.2946Z" fill="url(#paint32_linear_727_3)"/>
<path d="M22.5698 13.445H27.7842L27.3182 12.6383H22.5617L22.5698 13.445Z" fill="url(#paint33_linear_727_3)"/>
<path d="M28.1553 21.0891C28.6337 21.0891 29.0213 21.4767 29.0213 21.9551C29.0213 22.4335 28.6337 22.8221 28.1553 22.8221C28.0414 22.8221 27.9287 22.7997 27.8235 22.7561C27.7183 22.7126 27.6227 22.6487 27.5422 22.5682C27.4616 22.4877 27.3978 22.3921 27.3542 22.2869C27.3106 22.1817 27.2882 22.069 27.2882 21.9551C27.2882 21.4767 27.6758 21.0891 28.1553 21.0891ZM26.9964 25.7082C27.335 26.0461 27.335 26.5946 26.9964 26.9328C26.6585 27.2715 26.1096 27.2715 25.771 26.9328C25.433 26.5946 25.433 26.0461 25.771 25.7081C26.1096 25.3692 26.6585 25.3693 26.9964 25.7082ZM26.9328 18.229C26.5945 18.567 26.046 18.567 25.7081 18.229C25.6275 18.1487 25.5635 18.0532 25.5199 17.948C25.4762 17.8429 25.4538 17.7302 25.4538 17.6163C25.4538 17.5025 25.4762 17.3898 25.5199 17.2846C25.5635 17.1795 25.6275 17.084 25.7081 17.0036C26.046 16.665 26.5946 16.665 26.9328 17.0036C27.2715 17.3416 27.2715 17.8904 26.9328 18.229ZM22.0449 27.2883C22.2746 27.2883 22.4948 27.3795 22.6572 27.5419C22.8196 27.7043 22.9109 27.9246 22.9109 28.1542C22.9109 28.6336 22.5233 29.0213 22.0449 29.0213C21.5665 29.0213 21.1779 28.6337 21.1779 28.1542C21.1779 27.6758 21.5666 27.2883 22.0449 27.2883ZM21.955 14.9788C22.4333 14.9788 22.822 15.3663 22.822 15.8447C22.822 16.3241 22.4333 16.7118 21.955 16.7118C21.4768 16.7118 21.0891 16.3242 21.0891 15.8447C21.0891 15.6151 21.1803 15.3948 21.3427 15.2324C21.5051 15.07 21.7254 14.9788 21.955 14.9788ZM18.2918 26.9965C17.9539 27.3351 17.4054 27.3351 17.0672 26.9965C16.7285 26.6585 16.7285 26.1096 17.0672 25.771C17.4054 25.4331 17.9539 25.4331 18.2919 25.771C18.6308 26.1096 18.6308 26.6585 18.2919 26.9965H18.2918ZM18.229 18.2919C17.8904 18.6309 17.3415 18.6309 17.0035 18.2919C16.6649 17.954 16.6649 17.4055 17.0035 17.0664C17.3415 16.7286 17.8904 16.7286 18.229 17.0664C18.5669 17.4055 18.5669 17.954 18.229 18.2919ZM15.8447 21.178C16.3241 21.178 16.7117 21.5667 16.7117 22.045C16.7117 22.5233 16.3242 22.9109 15.8447 22.9109C15.3663 22.9109 14.9787 22.5234 14.9787 22.045C14.9787 21.5666 15.3663 21.178 15.8447 21.178Z" fill="white"/>
<defs>
<linearGradient id="paint0_linear_727_3" x1="19.0511" y1="21.8128" x2="25.0426" y2="21.8128" gradientUnits="userSpaceOnUse">
<stop stop-color="#A9E1FF"/>
<stop offset="1" stop-color="#1593FF"/>
</linearGradient>
<linearGradient id="paint1_linear_727_3" x1="19.0511" y1="21.1843" x2="24.9729" y2="21.1843" gradientUnits="userSpaceOnUse">
<stop stop-color="#1593FF"/>
<stop offset="1" stop-color="#A9E1FF"/>
</linearGradient>
<linearGradient id="paint2_linear_727_3" x1="19.4255" y1="41.2851" x2="24.8553" y2="41.2851" gradientUnits="userSpaceOnUse">
<stop stop-color="#A9E1FF"/>
<stop offset="1" stop-color="#1593FF"/>
</linearGradient>
<linearGradient id="paint3_linear_727_3" x1="19.4255" y1="40.9879" x2="24.6066" y2="40.9879" gradientUnits="userSpaceOnUse">
<stop stop-color="#1593FF"/>
<stop offset="1" stop-color="#A9E1FF"/>
</linearGradient>
<linearGradient id="paint4_linear_727_3" x1="33.0214" y1="35.5372" x2="38.4511" y2="35.5372" gradientUnits="userSpaceOnUse">
<stop stop-color="#A9E1FF"/>
<stop offset="1" stop-color="#1593FF"/>
</linearGradient>
<linearGradient id="paint5_linear_727_3" x1="33.0214" y1="35.2412" x2="38.2021" y2="35.2412" gradientUnits="userSpaceOnUse">
<stop stop-color="#1593FF"/>
<stop offset="1" stop-color="#A9E1FF"/>
</linearGradient>
<linearGradient id="paint6_linear_727_3" x1="38.5702" y1="21.8595" x2="44" y2="21.8595" gradientUnits="userSpaceOnUse">
<stop stop-color="#A9E1FF"/>
<stop offset="1" stop-color="#1593FF"/>
</linearGradient>
<linearGradient id="paint7_linear_727_3" x1="38.5702" y1="21.4408" x2="43.8958" y2="21.4408" gradientUnits="userSpaceOnUse">
<stop stop-color="#1593FF"/>
<stop offset="1" stop-color="#A9E1FF"/>
</linearGradient>
<linearGradient id="paint8_linear_727_3" x1="32.8231" y1="8.26373" x2="38.2519" y2="8.26373" gradientUnits="userSpaceOnUse">
<stop stop-color="#A9E1FF"/>
<stop offset="1" stop-color="#1593FF"/>
</linearGradient>
<linearGradient id="paint9_linear_727_3" x1="32.8231" y1="7.97305" x2="38.0232" y2="7.97305" gradientUnits="userSpaceOnUse">
<stop stop-color="#1593FF"/>
<stop offset="1" stop-color="#A9E1FF"/>
</linearGradient>
<linearGradient id="paint10_linear_727_3" x1="19.1447" y1="2.71489" x2="24.5744" y2="2.71489" gradientUnits="userSpaceOnUse">
<stop stop-color="#A9E1FF"/>
<stop offset="1" stop-color="#1593FF"/>
</linearGradient>
<linearGradient id="paint11_linear_727_3" x1="19.1447" y1="2.31056" x2="24.4936" y2="2.31056" gradientUnits="userSpaceOnUse">
<stop stop-color="#1593FF"/>
<stop offset="1" stop-color="#A9E1FF"/>
</linearGradient>
<linearGradient id="paint12_linear_727_3" x1="5.54895" y1="8.4624" x2="10.9789" y2="8.4624" gradientUnits="userSpaceOnUse">
<stop stop-color="#A9E1FF"/>
<stop offset="1" stop-color="#1593FF"/>
</linearGradient>
<linearGradient id="paint13_linear_727_3" x1="5.54899" y1="8.12091" x2="10.8431" y2="8.12091" gradientUnits="userSpaceOnUse">
<stop stop-color="#1593FF"/>
<stop offset="1" stop-color="#A9E1FF"/>
</linearGradient>
<linearGradient id="paint14_linear_727_3" x1="0" y1="22.1404" x2="5.42979" y2="22.1404" gradientUnits="userSpaceOnUse">
<stop stop-color="#A9E1FF"/>
<stop offset="1" stop-color="#1593FF"/>
</linearGradient>
<linearGradient id="paint15_linear_727_3" x1="0.138822" y1="21.7959" x2="5.42978" y2="21.7959" gradientUnits="userSpaceOnUse">
<stop stop-color="#1593FF"/>
<stop offset="1" stop-color="#A9E1FF"/>
</linearGradient>
<linearGradient id="paint16_linear_727_3" x1="5.74808" y1="35.7362" x2="11.1773" y2="35.7362" gradientUnits="userSpaceOnUse">
<stop stop-color="#A9E1FF"/>
<stop offset="1" stop-color="#1593FF"/>
</linearGradient>
<linearGradient id="paint17_linear_727_3" x1="5.74876" y1="34.7336" x2="11.1769" y2="34.7336" gradientUnits="userSpaceOnUse">
<stop stop-color="#1593FF"/>
<stop offset="1" stop-color="#A9E1FF"/>
</linearGradient>
<linearGradient id="paint18_linear_727_3" x1="2.77201" y1="31.379" x2="22.234" y2="31.379" gradientUnits="userSpaceOnUse">
<stop stop-color="#9BABFC"/>
<stop offset="1" stop-color="#595BD2"/>
</linearGradient>
<linearGradient id="paint19_linear_727_3" x1="2.77197" y1="27.6731" x2="11.5448" y2="27.6731" gradientUnits="userSpaceOnUse">
<stop stop-color="#595BD2"/>
<stop offset="1" stop-color="#9BABFC"/>
</linearGradient>
<linearGradient id="paint20_linear_727_3" x1="16.7238" y1="32.036" x2="22.2341" y2="32.036" gradientUnits="userSpaceOnUse">
<stop stop-color="#595BD2"/>
<stop offset="1" stop-color="#9BABFC"/>
</linearGradient>
<linearGradient id="paint21_linear_727_3" x1="10.4177" y1="36.4027" x2="12.0805" y2="36.4027" gradientUnits="userSpaceOnUse">
<stop stop-color="#595BD2"/>
<stop offset="1" stop-color="#9BABFC"/>
</linearGradient>
<linearGradient id="paint22_linear_727_3" x1="22.2284" y1="31.6207" x2="40.9883" y2="31.6207" gradientUnits="userSpaceOnUse">
<stop stop-color="#9BABFC"/>
<stop offset="1" stop-color="#595BD2"/>
</linearGradient>
<linearGradient id="paint23_linear_727_3" x1="24.3127" y1="40.4024" x2="25.5587" y2="40.4024" gradientUnits="userSpaceOnUse">
<stop stop-color="#595BD2"/>
<stop offset="1" stop-color="#9BABFC"/>
</linearGradient>
<linearGradient id="paint24_linear_727_3" x1="40.0238" y1="24.6457" x2="40.9884" y2="24.6457" gradientUnits="userSpaceOnUse">
<stop stop-color="#595BD2"/>
<stop offset="1" stop-color="#9BABFC"/>
</linearGradient>
<linearGradient id="paint25_linear_727_3" x1="22.2284" y1="30.4283" x2="38.7729" y2="30.4283" gradientUnits="userSpaceOnUse">
<stop stop-color="#595BD2"/>
<stop offset="1" stop-color="#9BABFC"/>
</linearGradient>
<linearGradient id="paint26_linear_727_3" x1="21.6826" y1="12.5549" x2="40.9247" y2="12.5549" gradientUnits="userSpaceOnUse">
<stop stop-color="#9BABFC"/>
<stop offset="1" stop-color="#595BD2"/>
</linearGradient>
<linearGradient id="paint27_linear_727_3" x1="30.1416" y1="22.1123" x2="30.1416" y2="5.40317" gradientUnits="userSpaceOnUse">
<stop stop-color="#595BD2"/>
<stop offset="1" stop-color="#9BABFC"/>
</linearGradient>
<linearGradient id="paint28_linear_727_3" x1="24.5613" y1="4.11263" x2="24.5613" y2="2.99756" gradientUnits="userSpaceOnUse">
<stop stop-color="#595BD2"/>
<stop offset="1" stop-color="#9BABFC"/>
</linearGradient>
<linearGradient id="paint29_linear_727_3" x1="40.2168" y1="19.8072" x2="40.2168" y2="18.6787" gradientUnits="userSpaceOnUse">
<stop stop-color="#595BD2"/>
<stop offset="1" stop-color="#9BABFC"/>
</linearGradient>
<linearGradient id="paint30_linear_727_3" x1="2.75888" y1="17.2728" x2="32.7772" y2="17.2728" gradientUnits="userSpaceOnUse">
<stop stop-color="#736BD9"/>
<stop offset="1" stop-color="#5F5BD0"/>
</linearGradient>
<linearGradient id="paint31_linear_727_3" x1="20.4177" y1="22.8683" x2="25.8575" y2="22.8683" gradientUnits="userSpaceOnUse">
<stop stop-color="#5F5BD0"/>
<stop offset="1" stop-color="#736BD9"/>
</linearGradient>
<linearGradient id="paint32_linear_727_3" x1="2.75887" y1="11.2989" x2="19.4136" y2="11.2989" gradientUnits="userSpaceOnUse">
<stop stop-color="#5F5BD0"/>
<stop offset="1" stop-color="#736BD9"/>
</linearGradient>
<linearGradient id="paint33_linear_727_3" x1="22.5616" y1="13.0417" x2="27.7841" y2="13.0417" gradientUnits="userSpaceOnUse">
<stop stop-color="#5F5BD0"/>
<stop offset="1" stop-color="#736BD9"/>
</linearGradient>
</defs>
</svg>
