<svg width="44" height="44" viewBox="0 0 44 44" fill="none" xmlns="http://www.w3.org/2000/svg">
<path d="M22 42.8864C20.1302 42.8864 15.8851 40.2424 12.2065 36.0622C8.919 32.3263 5 26.1601 5 18C5 8.62619 12.6262 1 22 1C31.3738 1 39 8.62619 39 18C39 26.1602 35.0811 32.3264 31.7935 36.0623C28.1127 40.245 23.8702 42.8864 22 42.8864Z" fill="#6FE7E7"/>
<path d="M22 1C31.3738 1 39 8.62619 39 18C39 26.1602 35.0811 32.3264 31.7935 36.0623C28.1127 40.245 23.8702 42.8864 22 42.8864V1Z" fill="#4DD6D6"/>
<path d="M11.4847 16.7728C10.807 16.7728 10.2576 17.3223 10.2576 18C10.2576 21.6785 11.8905 29.7424 16.7424 29.7424C18.8685 29.7424 20.5983 28.0126 20.5983 25.8865C20.5982 20.8612 16.5099 16.7728 11.4847 16.7728Z" fill="#564971"/>
<path d="M32.5153 16.7728C27.4901 16.7728 23.4019 20.8612 23.4019 25.8864C23.4019 28.0125 25.1316 29.7423 27.2578 29.7423C32.1097 29.7423 33.7426 21.6784 33.7426 17.9999C33.7425 17.3223 33.1931 16.7728 32.5153 16.7728Z" fill="#564971"/>
</svg>
