<svg width="20" height="20" viewBox="0 0 20 20" fill="none" xmlns="http://www.w3.org/2000/svg">
<g clip-path="url(#clip0_625_454)">
<path d="M10 0C4.48598 0 0 4.48598 0 10C0 15.514 4.48598 20 10 20C15.514 20 20 15.514 20 10C20 4.48598 15.514 0 10 0Z" fill="#FFBE3D"/>
<path d="M10 1.93968e-06V7.48957V12.5104V20C15.514 20 20 15.514 20 10C20 4.48598 15.514 1.93968e-06 10 1.93968e-06Z" fill="#FF9A38"/>
<path d="M10.0319 2.54236C5.90216 2.54236 2.54236 5.90216 2.54236 10.0319C2.54236 14.1617 5.90216 17.5215 10.0319 17.5215C14.1617 17.5215 17.5215 14.1617 17.5215 10.0319C17.5215 5.90216 14.1617 2.54236 10.0319 2.54236Z" fill="#FFDF50"/>
<path d="M10 2.54236V7.52154V12.5424V17.5215C14.1298 17.5215 17.4896 14.1617 17.4896 10.032C17.4896 5.90224 14.1298 2.54236 10 2.54236Z" fill="#FFBE3D"/>
<path d="M10 14.0678L13.5593 12.0339V7.96608L10 5.93219V14.0678Z" fill="#FF9A38"/>
<path d="M10 14.0678L6.44068 12.0339V7.96608L10 5.93219V14.0678Z" fill="#FFBE3D"/>
</g>
<defs>
<clipPath id="clip0_625_454">
<rect width="20" height="20" fill="white"/>
</clipPath>
</defs>
</svg>
