<svg width="28" height="28" viewBox="0 0 28 28" fill="none" xmlns="http://www.w3.org/2000/svg">
<g clip-path="url(#clip0_945_46)">
<path d="M14 0.4375C12.502 0.4375 11.2831 1.65637 11.2831 3.15525C11.2831 4.65413 12.502 5.87125 14 5.87125C15.498 5.87125 16.7169 4.65238 16.7169 3.15438C16.7169 1.65638 15.498 0.4375 14 0.4375ZM3.15438 16.7178C4.65325 16.7178 5.87212 15.498 5.87212 14C5.87212 12.502 4.65325 11.2823 3.15438 11.2823C1.6555 11.2823 0.4375 12.502 0.4375 14C0.4375 15.498 1.65638 16.7178 3.15438 16.7178ZM4.41 19.747C3.9009 20.2569 3.61495 20.948 3.61495 21.6685C3.61495 22.389 3.9009 23.0801 4.41 23.59C4.94025 24.1194 5.635 24.3845 6.3315 24.3845C7.028 24.3845 7.72275 24.1194 8.253 23.59C9.31175 22.5304 9.31175 20.8075 8.253 19.747C7.19425 18.6865 5.46962 18.6883 4.41 19.747ZM14 22.1288C12.502 22.1288 11.2831 23.3467 11.2831 24.8447C11.2831 26.3427 12.502 27.5625 14 27.5625C15.498 27.5625 16.7169 26.3427 16.7169 24.8447C16.7169 23.3467 15.498 22.1288 14 22.1288ZM19.747 23.59C20.2773 24.1194 20.9729 24.3845 21.6685 24.3845C22.3641 24.3845 23.0597 24.1194 23.59 23.59C24.6487 22.5304 24.6487 20.8075 23.59 19.747C22.5312 18.6865 20.8075 18.6883 19.747 19.747C18.6865 20.8058 18.6883 22.5304 19.747 23.59ZM24.8456 11.2823C23.3468 11.2823 22.1279 12.502 22.1279 14C22.1279 15.498 23.3468 16.7178 24.8456 16.7178C26.3445 16.7178 27.5625 15.498 27.5625 14C27.5625 12.502 26.3436 11.2823 24.8456 11.2823ZM23.59 4.41C22.5304 3.35125 20.8075 3.35125 19.747 4.41C18.6865 5.46875 18.6883 7.1925 19.747 8.253C20.2773 8.78238 20.9729 9.0475 21.6685 9.0475C22.3641 9.0475 23.0597 8.78238 23.59 8.253C24.0991 7.74312 24.385 7.05203 24.385 6.3315C24.385 5.61097 24.0991 4.91988 23.59 4.41Z" fill="#836EAD"/>
</g>
<defs>
<clipPath id="clip0_945_46">
<rect width="28" height="28" fill="white"/>
</clipPath>
</defs>
</svg>
