<svg width="59" height="59" viewBox="0 0 59 59" fill="none" xmlns="http://www.w3.org/2000/svg">
<path d="M25.1903 49.3602C29.9877 49.3602 34.3705 48.0582 38.1065 45.6595C38.1167 45.6559 38.128 45.6525 38.1403 45.6495L38.1866 45.6958L49.5709 57.0751C50.8047 58.3083 52.7026 58.3083 53.9363 57.0751L56.8878 54.1249C57.5561 53.4569 57.9563 52.6525 57.9967 51.8057C58.0374 50.9512 57.7051 50.1556 57.0986 49.5495L45.7143 38.1701C45.6916 38.1474 45.6763 38.1293 45.6663 38.1162C45.6681 38.1112 45.6704 38.1055 45.673 38.0991C48.0761 34.3629 49.3805 29.979 49.3805 25.1801C49.3805 11.773 38.6022 1 25.1903 1C11.7783 1 1 11.773 1 25.1801C1 38.5872 11.7783 49.3602 25.1903 49.3602ZM25.4011 38.931C17.7309 38.931 11.6436 32.8458 11.6436 25.1801C11.6436 17.5144 17.7309 11.4291 25.4011 11.4291C33.0712 11.4291 39.1585 17.5144 39.1585 25.1801C39.1585 32.8458 33.0712 38.931 25.4011 38.931Z" fill="white" stroke="white" stroke-width="2"/>
</svg>
