<svg width="30" height="30" viewBox="0 0 30 30" fill="none" xmlns="http://www.w3.org/2000/svg">
<path d="M1.29904 13.75L7.06699 3.75962C7.51357 2.98612 8.33889 2.50962 9.23205 2.50962L20.7679 2.50962C21.6611 2.50962 22.4864 2.98612 22.933 3.75962L28.701 13.75C29.1475 14.5235 29.1475 15.4765 28.701 16.25L22.933 26.2404C22.4864 27.0139 21.6611 27.4904 20.768 27.4904L9.23205 27.4904C8.33889 27.4904 7.51357 27.0139 7.06699 26.2404L1.29904 16.25C0.852455 15.4765 0.852455 14.5235 1.29904 13.75Z" fill="url(#paint0_radial_128_468)" fill-opacity="0.8" stroke="#150000"/>
<path d="M2.29904 13.75L7.56699 4.62565C8.01357 3.85214 8.83889 3.37565 9.73205 3.37565L20.268 3.37565C21.1611 3.37565 21.9864 3.85214 22.433 4.62565L27.701 13.75C28.1475 14.5235 28.1475 15.4765 27.701 16.25L22.433 25.3744C21.9864 26.1479 21.1611 26.6244 20.268 26.6244L9.73205 26.6244C8.83889 26.6244 8.01357 26.1479 7.56699 25.3744L2.29904 16.25C1.85246 15.4765 1.85246 14.5235 2.29904 13.75Z" fill="url(#paint1_radial_128_468)" fill-opacity="0.8" stroke="white"/>
<path d="M7.86603 16.5C7.33013 15.5718 7.33013 14.4282 7.86603 13.5L10.134 9.5718C10.6699 8.64359 11.6603 8.0718 12.7321 8.0718L17.2679 8.0718C18.3397 8.0718 19.3301 8.64359 19.866 9.5718L22.134 13.5C22.6699 14.4282 22.6699 15.5718 22.134 16.5L19.866 20.4282C19.3301 21.3564 18.3397 21.9282 17.2679 21.9282L12.7321 21.9282C11.6603 21.9282 10.6699 21.3564 10.134 20.4282L7.86603 16.5Z" fill="white" fill-opacity="0.8"/>
<defs>
<radialGradient id="paint0_radial_128_468" cx="0" cy="0" r="1" gradientUnits="userSpaceOnUse" gradientTransform="translate(15 15) scale(15 15)">
<stop stop-color="white" stop-opacity="0"/>
<stop offset="0.854167" stop-color="#9934C9"/>
</radialGradient>
<radialGradient id="paint1_radial_128_468" cx="0" cy="0" r="1" gradientUnits="userSpaceOnUse" gradientTransform="translate(15 15) scale(14 14)">
<stop stop-color="#9934C9"/>
<stop offset="1" stop-color="white" stop-opacity="0"/>
</radialGradient>
</defs>
</svg>
