<svg width="28" height="28" viewBox="0 0 28 28" fill="none" xmlns="http://www.w3.org/2000/svg">
<path d="M24.2807 10.164V19.4436C24.2807 23.478 21.8703 25.8871 17.836 25.8871H8.55751C4.52318 25.8871 2.11401 23.478 2.11401 19.4436V10.164C2.11401 6.12963 4.52318 3.72046 8.55751 3.72046H17.836C21.8703 3.72046 24.2807 6.12963 24.2807 10.164Z" fill="#836EAD"/>
<path d="M25.886 6.86461C25.844 7.46385 25.6818 8.0485 25.409 8.58368C25.1362 9.11887 24.7584 9.59362 24.2981 9.97962L23.0043 11.2851C22.9217 11.3679 22.8097 11.4144 22.6928 11.4146C22.6483 11.4146 22.604 11.4087 22.561 11.3971C21.1466 10.9858 19.859 10.224 18.8175 9.18246C17.7759 8.14092 17.0142 6.8533 16.6028 5.43895C16.582 5.3635 16.5818 5.28383 16.6023 5.20829C16.6228 5.13276 16.6633 5.06413 16.7195 5.00961L18.0261 3.70295C20.1728 1.55745 22.2098 1.60295 24.304 3.70295C24.7669 4.09633 25.1456 4.57913 25.4175 5.12241C25.6893 5.66569 25.8487 6.25827 25.886 6.86461Z" fill="white"/>
<path d="M21.532 12.7458L15.2565 19.0166C14.7662 19.4671 14.1603 19.7725 13.5065 19.8986L10.0333 20.3933C9.9055 20.4127 9.77641 20.4225 9.64714 20.4224C9.37412 20.4274 9.10281 20.3784 8.84876 20.2783C8.59471 20.1782 8.36291 20.0289 8.16664 19.8391C7.93312 19.5912 7.76135 19.2917 7.66526 18.9649C7.56918 18.6381 7.55149 18.2933 7.61364 17.9584L8.10247 14.4969C8.2284 13.8428 8.53424 13.2368 8.98564 12.7469L15.2611 6.47144C15.3673 6.7666 15.4875 7.06994 15.6368 7.3966C15.7803 7.6976 15.9366 7.99744 16.1035 8.28444C16.2311 8.50414 16.3705 8.71678 16.5211 8.92144C16.6596 9.12621 16.8092 9.32328 16.9691 9.51177C17.0133 9.58231 17.0662 9.64699 17.1266 9.70427C17.4646 10.1072 17.8362 10.4807 18.2373 10.8208C18.2945 10.881 18.357 10.9361 18.424 10.9853C18.6351 11.1568 18.8475 11.3271 19.033 11.4519C19.2538 11.6166 19.4836 11.7688 19.7213 11.9081C20.2932 12.2512 20.9002 12.532 21.532 12.7458Z" fill="white"/>
</svg>
