<svg width="72" height="72" viewBox="0 0 72 72" fill="none" xmlns="http://www.w3.org/2000/svg">
<path d="M63.7683 13.7135L63.7687 13.7136C64.2814 13.8804 64.6316 14.3594 64.635 14.9049V14.9654C64.635 33.6106 57.0447 51.1519 43.8387 63.1029L43.8385 63.1031C41.6937 65.0452 39.0051 66.0169 36.3175 66.0169C33.6297 66.0169 30.9434 65.0474 28.7965 63.1032L28.7963 63.103C15.5903 51.1496 8 33.6083 8 14.9654C8 14.3905 8.37789 13.871 8.8618 13.7136L8.86218 13.7135L34.9465 5.21819C34.9468 5.21807 34.9472 5.21796 34.9475 5.21784C35.8484 4.927 36.7907 4.9279 37.6795 5.21744L37.6796 5.21748L63.7683 13.7135Z" fill="#B363CF" stroke="black" stroke-width="2"/>
<path d="M30.4636 29.0073L30.4636 51.0066C30.4636 51.6212 30.7071 52.2127 31.1431 52.6464L34.9817 56.4873C35.8515 57.357 37.3915 57.357 38.2613 56.4873L42.0998 52.6464C42.5359 52.2103 42.7794 51.6212 42.7794 51.0066L42.7794 29.0073L30.4636 29.0073Z" fill="#E4EDF2"/>
<path d="M34.3022 24.3686L38.9409 24.3686L38.9409 18.7928L34.3022 18.7928L34.3022 24.3686Z" fill="#7A442A"/>
<path d="M34.3021 24.3686L28.9397 24.3686C27.6571 24.3686 26.6203 25.4053 26.6203 26.688C26.6203 27.9706 27.6571 29.0073 28.9397 29.0073L30.4612 29.0073L42.7794 29.0073L44.3009 29.0073C45.5835 29.0073 46.6202 27.9706 46.6202 26.688C46.6202 25.4053 45.5835 24.3686 44.3009 24.3686L38.9408 24.3686L34.3021 24.3686Z" fill="#FBC34E"/>
<path d="M38.9409 18.7928L39.363 18.7928C40.6456 18.7928 41.6824 17.7561 41.6824 16.4735C41.6824 15.1909 40.6456 14.1541 39.363 14.1541L33.8823 14.1541C32.5997 14.1541 31.563 15.1909 31.563 16.4735C31.563 17.7561 32.5997 18.7928 33.8823 18.7928L34.3021 18.7928L38.9409 18.7928Z" fill="#FBC34E"/>
</svg>
