<svg width="44" height="44" viewBox="0 0 44 44" fill="none" xmlns="http://www.w3.org/2000/svg">
<g clip-path="url(#clip0_951_108)">
<path d="M11.4237 39.022L18.6868 11.3875L25.2546 11.3938L32.5763 39.0427L11.4237 39.022Z" fill="#F9D026"/>
<path d="M22.0029 44C27.8424 44 32.5762 41.7806 32.5762 39.0429C32.5762 36.3053 27.8424 34.0859 22.0029 34.0859C16.1634 34.0859 11.4296 36.3053 11.4296 39.0429C11.4296 41.7806 16.1634 44 22.0029 44Z" fill="#F9EDBD"/>
<path d="M43.2466 13.9857C42.5213 12.042 40.2836 10.398 36.5958 9.09979C34.0468 8.20236 31.7058 7.78307 31.6073 7.76562H12.3926C12.2942 7.78307 9.95308 8.20227 7.40419 9.09971C3.71621 10.398 1.47868 12.0419 0.753457 13.9856C0.477342 14.7257 0.340444 15.8846 1.25593 17.2033C2.88821 19.5544 7.09267 21.0868 9.45362 21.7909C13.3814 22.9625 17.8371 23.6076 22 23.6076C26.1628 23.6076 30.6186 22.9625 34.5463 21.7909C36.9073 21.0868 41.1117 19.5544 42.744 17.2033C43.6596 15.8846 43.5227 14.7256 43.2466 13.9857Z" fill="#444242"/>
<path d="M11.3703 16.757C12.123 16.757 12.7332 16.1468 12.7332 15.3941C12.7332 14.6414 12.123 14.0312 11.3703 14.0312C10.6176 14.0312 10.0074 14.6414 10.0074 15.3941C10.0074 16.1468 10.6176 16.757 11.3703 16.757Z" fill="#F9D026"/>
<path d="M32.6297 16.757C33.3824 16.757 33.9926 16.1468 33.9926 15.3941C33.9926 14.6414 33.3824 14.0312 32.6297 14.0312C31.877 14.0312 31.2668 14.6414 31.2668 15.3941C31.2668 16.1468 31.877 16.757 32.6297 16.757Z" fill="#D3B121"/>
<path d="M32.8818 7.5175C32.0551 5.33109 30.6038 3.46196 28.6849 2.11207C26.7206 0.730291 24.409 0 22 0C19.5909 0 17.2794 0.730291 15.3152 2.11207C13.3964 3.46188 11.9451 5.33118 11.1183 7.5175L10.9031 8.08648L11.1647 8.63562C11.2656 8.8478 11.8542 9.95965 13.5212 11.0276C15.6237 12.3744 18.4763 13.0572 21.9998 13.0572C25.5234 13.0572 28.3762 12.3744 30.4785 11.0275C32.1455 9.95965 32.734 8.84754 32.8351 8.63553L33.0967 8.08631L32.8818 7.5175Z" fill="#41BAFE"/>
<path d="M22 16.212C21.2472 16.212 20.6371 16.8222 20.6371 17.5749C20.6371 18.3276 21.2472 18.9378 22 18.9378C22.7527 18.9378 23.3628 18.3276 23.3628 17.5749C23.3628 16.8222 22.7527 16.212 22 16.212Z" fill="#F9D026"/>
<path d="M23.3629 17.5749C23.3629 16.8222 22.7527 16.212 22 16.212V18.9377C22.7527 18.9378 23.3629 18.3276 23.3629 17.5749Z" fill="#D3B121"/>
</g>
<defs>
<clipPath id="clip0_951_108">
<rect width="44" height="44" fill="white"/>
</clipPath>
</defs>
</svg>
