<svg width="30" height="32" viewBox="0 0 30 32" fill="none" xmlns="http://www.w3.org/2000/svg">
<path d="M11.4202 5.98847L13.2899 2.98817C13.8771 2.04594 15.2488 2.04594 15.836 2.98816L17.7057 5.98841C18.2013 6.78358 19.0998 7.23492 20.0336 7.15767L23.4073 6.87856C24.4509 6.79222 25.2595 7.7747 24.9742 8.78223L23.8389 12.7904C23.6115 13.5932 23.7996 14.4565 24.3403 15.0919L26.9857 18.2007C27.6407 18.9705 27.3624 20.1546 26.4331 20.552L22.9985 22.0207C22.1911 22.3659 21.6241 23.1094 21.5047 23.9794L20.9713 27.866C20.8229 28.947 19.6066 29.5129 18.684 28.9301L15.8982 27.1702C15.0826 26.6549 14.0433 26.6549 13.2277 27.1702L10.4419 28.9301C9.51933 29.5129 8.30303 28.947 8.15465 27.866L7.62121 23.9794C7.50181 23.1094 6.93476 22.3659 6.12738 22.0207L2.69283 20.552C1.76348 20.1546 1.48519 18.9705 2.14022 18.2007L4.7856 15.092C5.32631 14.4565 5.5144 13.5933 5.28702 12.7905L4.15175 8.7823C3.86638 7.77476 4.67505 6.79229 5.71865 6.87863L9.09235 7.15773C10.0261 7.23498 10.9247 6.78364 11.4202 5.98847Z" fill="#50B3FB" stroke="black"/>
<path d="M16.2603 7.56942C15.4774 6.31313 13.6485 6.31314 12.8656 7.56943L12.3123 8.4572C11.9159 9.09334 11.197 9.45441 10.45 9.39262L9.40941 9.30652C8.01794 9.19141 6.93972 10.5014 7.32021 11.8448L7.76403 13.4117C7.94593 14.0539 7.79546 14.7445 7.36289 15.2529L6.31034 16.4898C5.43696 17.5161 5.80801 19.095 7.04714 19.6248L8.30298 20.1619C8.94888 20.4381 9.40252 21.0329 9.49804 21.7288L9.68463 23.0883C9.88247 24.5297 11.5042 25.2842 12.7342 24.5072L13.4947 24.0267C14.1472 23.6145 14.9786 23.6145 15.6311 24.0267L16.3916 24.5072C17.6217 25.2842 19.2434 24.5297 19.4412 23.0883L19.6278 21.7288C19.7233 21.0329 20.177 20.4381 20.8229 20.1619L22.0787 19.6248C23.3179 19.095 23.6889 17.5161 22.8156 16.4898L21.763 15.2528C21.3304 14.7445 21.1799 14.0539 21.3618 13.4116L21.8057 11.8447C22.1862 10.5013 21.1079 9.19136 19.7165 9.30648L18.6758 9.39257C17.9288 9.45437 17.21 9.0933 16.8136 8.45716L16.2603 7.56942Z" fill="white" fill-opacity="0.9"/>
</svg>
