<svg width={props.width} height={props.height} viewBox="0 0 76 76" fill="none" xmlns="http://www.w3.org/2000/svg">
<path d="M34.9649 51.5371L21.7852 38.3575L46.2369 13.9058C46.8362 13.3065 47.6479 12.9696 48.4985 12.9696L48.4987 12.9696L57.1575 12.967C57.1575 12.967 57.1576 12.967 57.1576 12.967C58.8428 12.9671 60.3553 14.4796 60.3554 16.1647C60.3554 16.1648 60.3554 16.1648 60.3554 16.1649L60.3528 24.8237L60.3528 24.8251C60.355 25.6715 60.0163 26.4856 59.4165 27.0855L34.9649 51.5371Z" fill="#E4EDF2" stroke="black"/>
<path d="M20.1765 48.6231L24.6998 53.1464L19.12 58.7262L14.5967 54.2029L20.1765 48.6231Z" fill="#7A442A" stroke="black"/>
<path d="M31.8068 58.8392L25.7604 52.7929L20.53 47.5625L14.4863 41.5187C13.2353 40.2678 13.2353 38.2464 14.4863 36.9954C15.7372 35.7445 17.7586 35.7445 19.0096 36.9954L20.7252 38.711L34.6145 52.6004L36.3301 54.3159C37.581 55.5669 37.581 57.5883 36.3301 58.8392C35.0791 60.0902 33.0577 60.0902 31.8068 58.8392Z" fill="#FBC34E" stroke="black"/>
<path d="M13.0597 54.0806L13.5357 54.5565L18.7661 59.787L19.2395 60.2603C20.4904 61.5112 20.4904 63.5327 19.2395 64.7836C17.9885 66.0345 15.9671 66.0345 14.7162 64.7836L8.53645 58.6039C7.2855 57.3529 7.2855 55.3315 8.53644 54.0806C9.78739 52.8296 11.8088 52.8296 13.0597 54.0806Z" fill="#FBC34E" stroke="black"/>
<path d="M54.211 37.9538L41.0314 51.1335L16.5797 26.6818C15.9804 26.0825 15.6435 25.2708 15.6435 24.4202L15.6435 24.42L15.6409 15.7612C15.6409 15.7612 15.6409 15.7611 15.6409 15.7611C15.6409 14.0759 17.1535 12.5634 18.8386 12.5633C18.8387 12.5633 18.8387 12.5633 18.8388 12.5633L27.4975 12.5659L27.499 12.5659C28.3454 12.5637 29.1595 12.9024 29.7593 13.5022L54.211 37.9538Z" fill="#E4EDF2" stroke="black"/>
<path d="M51.2971 52.7427L55.8204 48.2194L61.4002 53.7993L56.8769 58.3226L51.2971 52.7427Z" fill="#7A442A" stroke="black"/>
<path d="M61.5134 41.1125L55.467 47.1588L50.2366 52.3892L44.1929 58.433C42.9419 59.6839 40.9205 59.6839 39.6696 58.433C38.4186 57.182 38.4186 55.1606 39.6696 53.9097L41.3851 52.1941L55.2745 38.3048L56.9901 36.5892C58.241 35.3382 60.2624 35.3382 61.5134 36.5892C62.7643 37.8401 62.7643 39.8615 61.5134 41.1125Z" fill="#FBC34E" stroke="black"/>
<path d="M56.7546 59.8593L57.2306 59.3834L62.461 54.1529L62.9344 53.6796C64.1853 52.4286 66.2067 52.4286 67.4577 53.6796C68.7086 54.9305 68.7086 56.9519 67.4577 58.2029L61.2779 64.3826C60.027 65.6336 58.0056 65.6336 56.7546 64.3826C55.5037 63.1317 55.5037 61.1103 56.7546 59.8593Z" fill="#FBC34E" stroke="black"/>
</svg>
