<svg width="48" height="44" viewBox="0 0 48 44" fill="none" xmlns="http://www.w3.org/2000/svg">
<path d="M21.2716 29.9205L13.5305 22.1794L28.2675 7.44246C28.5954 7.11459 29.0394 6.93023 29.5049 6.93023L29.5051 6.93023L34.7727 6.92864C34.7727 6.92864 34.7728 6.92864 34.7728 6.92864C35.6898 6.92873 36.5223 7.76116 36.5224 8.67815C36.5224 8.6782 36.5224 8.67825 36.5224 8.6783L36.5208 13.9459L36.5208 13.9474C36.522 14.4097 36.337 14.8551 36.0085 15.1835L21.2716 29.9205Z" fill="#E4EDF2" stroke="black"/>
<path d="M12.2745 28.7016L14.7493 31.1765L11.6317 34.2941L9.15684 31.8192L12.2745 28.7016Z" fill="#7A442A" stroke="black"/>
<path d="M19.4884 34.5013L15.81 30.8229L12.628 27.641L8.95122 23.9642C8.26667 23.2796 8.26667 22.1739 8.95122 21.4893C9.63578 20.8048 10.7415 20.8048 11.4261 21.4893L12.4698 22.533L20.9195 30.9828L21.9632 32.0264C22.6478 32.711 22.6478 33.8168 21.9632 34.5013C21.2787 35.1859 20.1729 35.1859 19.4884 34.5013Z" fill="#FBC34E" stroke="black"/>
<path d="M7.80659 31.8833L8.09615 32.1728L11.2781 35.3548L11.5661 35.6428C12.2507 36.3273 12.2507 37.4331 11.5661 38.1176C10.8815 38.8022 9.77578 38.8022 9.09123 38.1176L5.33172 34.3581C4.64716 33.6736 4.64716 32.5678 5.33172 31.8833C6.01627 31.1987 7.12203 31.1987 7.80659 31.8833Z" fill="#FBC34E" stroke="black"/>
<path d="M33.575 21.9338L25.834 29.6749L11.097 14.9379C10.7691 14.61 10.5847 14.166 10.5847 13.7004L10.5847 13.7003L10.5832 8.43266C10.5832 8.43261 10.5832 8.43256 10.5832 8.43251C10.5832 7.51552 11.4157 6.68309 12.3327 6.683C12.3327 6.683 12.3328 6.683 12.3328 6.683L17.6004 6.68459L17.6019 6.68459C18.0642 6.68336 18.5096 6.8684 18.838 7.19681L33.575 21.9338Z" fill="#E4EDF2" stroke="black"/>
<path d="M32.3561 30.9308L34.831 28.456L37.9486 31.5736L35.4737 34.0485L32.3561 30.9308Z" fill="#7A442A" stroke="black"/>
<path d="M38.1558 23.7169L34.4775 27.3953L31.2955 30.5773L27.6187 34.2541C26.9341 34.9386 25.8284 34.9386 25.1438 34.2541C24.4593 33.5695 24.4593 32.4638 25.1438 31.7792L26.1875 30.7355L34.6373 22.2858L35.681 21.2421C36.3655 20.5575 37.4713 20.5575 38.1558 21.2421C38.8404 21.9266 38.8404 23.0324 38.1558 23.7169Z" fill="#FBC34E" stroke="black"/>
<path d="M35.5377 35.3987L35.8273 35.1091L39.0093 31.9272L39.2973 31.6392C39.9818 30.9546 41.0876 30.9546 41.7721 31.6392C42.4567 32.3237 42.4567 33.4295 41.7721 34.1141L38.0126 37.8736C37.3281 38.5581 36.2223 38.5581 35.5377 37.8736C34.8532 37.189 34.8532 36.0833 35.5377 35.3987Z" fill="#FBC34E" stroke="black"/>
</svg>
