<svg width="44" height="44" viewBox="0 0 44 44" fill="none" xmlns="http://www.w3.org/2000/svg">
<g clip-path="url(#clip0_942_2)">
<path d="M37.0319 22.7324L33.6444 19.3444C33.4401 19.1401 33.1975 18.9781 32.9306 18.8675C32.6637 18.757 32.3776 18.7001 32.0887 18.7001H11.9113C11.6224 18.7001 11.3363 18.757 11.0694 18.8675C10.8025 18.9781 10.5599 19.1401 10.3556 19.3444L6.88893 22.8111C6.69805 23.002 6.47366 23.1561 6.22698 23.2658L1.30631 25.4526C0.917477 25.6255 0.587118 25.9074 0.35526 26.2642C0.123403 26.621 -1.47176e-06 27.0374 0 27.4629L0 32.5146C8.53261e-06 32.9763 0.145296 33.4264 0.415283 33.801C0.68527 34.1755 1.06627 34.4557 1.50431 34.6017L6.1072 36.1358C6.43139 36.2437 6.72599 36.4257 6.96764 36.6672L10.3556 40.0557C10.5599 40.26 10.8025 40.4221 11.0694 40.5326C11.3363 40.6432 11.6224 40.7001 11.9113 40.7001H27.6887C27.9776 40.7001 28.2637 40.6432 28.5306 40.5326C28.7975 40.4221 29.0401 40.26 29.2444 40.0557L32.3556 36.9444C32.5599 36.7401 32.8025 36.5781 33.0694 36.4675C33.3363 36.357 33.6224 36.3001 33.9113 36.3001H40.7C41.0415 36.3001 41.3784 36.2206 41.6839 36.0678C41.9894 35.9151 42.2551 35.6933 42.46 35.4201L43.56 33.9534C43.8456 33.5726 44 33.1094 44 32.6334V26.8851C44 26.4233 43.8546 25.9732 43.5845 25.5986C43.3144 25.224 42.9333 24.9439 42.4952 24.798L37.8923 23.2643C37.5681 23.1563 37.2735 22.9742 37.0319 22.7324Z" fill="#67BC7A"/>
<path d="M11.9113 18.7001H32.0887C32.3776 18.7001 32.6637 18.757 32.9306 18.8675C33.1975 18.9781 33.4401 19.1401 33.6444 19.3444L37.0319 22.7324C37.2735 22.9742 37.5681 23.1563 37.8923 23.2643L42.4957 24.798C42.9338 24.944 43.3149 25.2242 43.5849 25.5989C43.8549 25.9736 44.0001 26.4237 44 26.8855V27.8315C44 28.2535 43.8787 28.6666 43.6504 29.0215L42.4492 30.8891C42.2501 31.1989 41.9764 31.4538 41.6532 31.6303C41.33 31.8069 40.9676 31.8995 40.5993 31.8996H33.9113C33.6223 31.8996 33.3362 31.9566 33.0693 32.0673C32.8024 32.1779 32.5599 32.3401 32.3556 32.5444L29.2444 35.6557C29.0401 35.86 28.7975 36.0221 28.5306 36.1326C28.2637 36.2432 27.9776 36.3001 27.6887 36.3001H11.9113C11.6224 36.3001 11.3363 36.2432 11.0694 36.1326C10.8025 36.0221 10.5599 35.86 10.3556 35.6557L6.96764 32.2677C6.72604 32.026 6.43144 31.8439 6.1072 31.7358L1.50431 30.2017C1.06619 30.0556 0.685134 29.7754 0.41514 29.4008C0.145146 29.0261 -9.40437e-05 28.5759 4.56859e-08 28.1141V27.4629C-1.42608e-06 27.0374 0.123403 26.621 0.35526 26.2642C0.587118 25.9074 0.917477 25.6255 1.30631 25.4526L6.22649 23.2658C6.47334 23.1562 6.6979 23.0021 6.88893 22.8111L10.3556 19.3444C10.5599 19.1401 10.8025 18.9781 11.0694 18.8675C11.3363 18.757 11.6224 18.7001 11.9113 18.7001Z" fill="#7FD391"/>
<path d="M30.8 5.50005C26.4 5.50005 22.399 3.30005 19.8 3.30005C17.2857 3.30005 15.4 5.50005 15.4 5.50005V14.2991C15.4 14.2991 17.2866 12.1 19.801 12.1C22.3154 12.1 26.401 14.3 30.801 14.3C31.5823 14.2766 32.351 14.0966 33.0615 13.7708C33.772 13.445 34.4099 12.9799 34.9375 12.4032C35.1075 12.2225 35.2018 11.9835 35.201 11.7353V4.09498C35.2013 4.03091 35.1831 3.96811 35.1486 3.91414C35.114 3.86018 35.0646 3.81734 35.0063 3.79079C34.948 3.76425 34.8833 3.75511 34.8199 3.7645C34.7565 3.77388 34.6972 3.80139 34.649 3.84369C33.9123 4.49489 32.4994 5.50005 30.8 5.50005Z" fill="#FF6A6A"/>
<path d="M16.5 3.37341C16.7918 3.37341 17.0716 3.48931 17.2778 3.6956C17.4841 3.90189 17.6 4.18167 17.6 4.47341V22.6845C17.6 22.8142 17.5485 22.9385 17.4568 23.0302C17.3651 23.1219 17.2408 23.1734 17.1111 23.1734H15.8889C15.7593 23.1734 15.6349 23.1219 15.5432 23.0302C15.4515 22.9385 15.4 22.8142 15.4 22.6845V4.47341C15.4 4.18167 15.5159 3.90189 15.7222 3.6956C15.9285 3.48931 16.2083 3.37341 16.5 3.37341Z" fill="black"/>
</g>
<defs>
<clipPath id="clip0_942_2">
<rect width="44" height="44" fill="white"/>
</clipPath>
</defs>
</svg>
