<svg width="22" height="22" viewBox="0 0 22 22" fill="none" xmlns="http://www.w3.org/2000/svg">
<g clip-path="url(#clip0_807_625)">
<path d="M16.5 20.8372L14.1639 16.6728L17.3381 11.0044L22 11.0044C22 11.2098 21.9474 11.4153 21.8433 11.6101L16.9299 20.3933C16.8247 20.5891 16.6774 20.7403 16.5 20.8372ZM14.1639 5.32624L7.82577 5.32624L5.5 1.16188C5.67781 1.05428 5.88051 0.998351 6.0866 1.00004L15.9031 1.00004C16.1227 1.00004 16.3217 1.05431 16.5 1.16188L14.1639 5.32624ZM5.5 20.8372C5.32167 20.7403 5.16493 20.5881 5.05981 20.3933L0.15674 11.6101C0.055009 11.4254 0.00103014 11.2168 -8.41152e-07 11.0044L4.65153 11.0044L7.82577 16.6728L5.5 20.8372Z" fill="#893ED0"/>
<path d="M14.1639 16.6729L7.82576 16.6729L4.65153 11.0054L7.82576 5.32629L14.1639 5.32629L17.3381 11.0054L14.1639 16.6729Z" fill="#BB99FF"/>
<path d="M22 11.0053L17.3381 11.0053L14.1639 5.32622L16.5 1.16186C16.6783 1.27041 16.8247 1.42159 16.9299 1.61639L21.8433 10.389C21.9474 10.5721 22 10.7883 22 11.0053ZM4.65153 11.0053L-8.34119e-07 11.0053C-8.24672e-07 10.7892 0.0525587 10.5731 0.15674 10.389L5.05981 1.61639C5.16474 1.42712 5.3167 1.27021 5.5 1.16186L7.82577 5.32622L4.65153 11.0053ZM15.9031 21L6.08754 21C5.87824 21 5.67927 20.9457 5.50094 20.8381L7.8267 16.6738L14.1648 16.6738L16.5009 20.8381C16.3217 20.9457 16.1227 21 15.9031 21Z" fill="#9D4BFF"/>
</g>
<defs>
<clipPath id="clip0_807_625">
<rect width="22" height="22" fill="white"/>
</clipPath>
</defs>
</svg>
