<svg width="22" height="22" viewBox="0 0 22 22" fill="none" xmlns="http://www.w3.org/2000/svg">
<path d="M11 5.6719L13.75 11L11 16.3281L9.40002 17.7603L7.93247 16.3281L4.58069 14.4945L4.86063 11L4.89844 6.76236L7.93247 5.6719L9.66479 3.93781L11 5.6719Z" fill="#BB99FF"/>
<path d="M17.1394 11V14.4238L14.0675 16.3281L12.8424 17.7603L11 16.3281V5.67187L12.507 4.00842L14.0675 5.67187L17.0615 7.50376L17.1394 11ZM11 16.3281L12.3596 17.9858L11 20.625H5.82227C5.70711 20.625 5.59582 20.5941 5.49957 20.5386L6.10075 16.9569L7.93246 16.3281H11ZM7.93246 5.67187L4.86063 11L3.24998 13.2059L0 11C0 10.8891 0.0283594 10.7778 0.0859375 10.6782L5.26367 1.69769C5.32125 1.59758 5.40332 1.51722 5.5 1.46136L8.88723 2.18861L7.93246 5.67187Z" fill="#B366FF"/>
<path d="M11 1.375L12.8097 3.43183L11 5.67187H7.93246L5.5 1.46137C5.59625 1.40594 5.70711 1.375 5.82227 1.375H11ZM22 11L19.0471 12.4129L17.1394 11L14.0675 5.67187L13.8814 2.42438L16.5 1.46137C16.5967 1.51723 16.6787 1.59758 16.7363 1.6977L21.9141 10.6782C21.9716 10.7779 22 10.8891 22 11Z" fill="#9933FF"/>
<path d="M16.5 1.46137L14.0675 5.67188H11V1.375H16.1777C16.2929 1.375 16.4037 1.40594 16.5 1.46137Z" fill="#7A29CC"/>
<path d="M16.5004 20.5386C16.4023 20.5952 16.291 20.6249 16.1777 20.625H11V16.3281H14.0675L16.3678 16.7854L16.5004 20.5386ZM7.93246 16.3281L5.49957 20.5386C5.40155 20.4819 5.32019 20.4004 5.26367 20.3023L0.0859375 11.3218C0.0283594 11.2221 0 11.1109 0 11H4.86062L7.93246 16.3281Z" fill="#9933FF"/>
<path d="M22 11C22 11.1109 21.9716 11.2221 21.914 11.3218L16.7363 20.3023C16.6798 20.4004 16.5984 20.4819 16.5004 20.5386L14.0675 16.3281L17.1393 11H22Z" fill="#7A29CC"/>
</svg>
